<svg width="288" height="33" viewBox="0 0 288 33" fill="none" xmlns="http://www.w3.org/2000/svg">
<path d="M9.79718 0.259766L0 32.1565L11.4524 22.583L23.039 32.1565L34.6704 22.583L46.3912 32.1565L36.3703 0.259766L23.039 7.95435L9.79718 0.259766Z" fill="#E46669"/>
<path d="M285.433 10.9746H288V27.1497H285.433V10.9746ZM271.516 10.9746H274.083V16.6343H276.959C278.794 16.6343 280.278 17.0467 281.412 17.8714C282.567 18.6962 283.144 19.9951 283.144 21.7683V21.8611C283.144 23.6136 282.567 24.9332 281.412 25.8198C280.258 26.7064 278.773 27.1497 276.959 27.1497H271.516V10.9746ZM277.113 25.1085C278.33 25.1085 279.206 24.8507 279.742 24.3353C280.299 23.7992 280.577 22.9745 280.577 21.8611V21.7683C280.577 20.7374 280.309 19.9642 279.773 19.4487C279.237 18.9127 278.351 18.6446 277.113 18.6446H274.083V25.1085H277.113Z" fill="white"/>
<path d="M256.844 10.9746H262.503C266.297 10.9746 268.194 12.3457 268.194 15.088V15.1807C268.194 15.9642 267.978 16.6859 267.545 17.3457C267.112 17.9848 266.462 18.4178 265.596 18.6446C267.844 19.1395 268.967 20.3559 268.967 22.2941V22.3868C268.967 23.9538 268.452 25.1394 267.421 25.9435C266.411 26.7476 264.998 27.1497 263.184 27.1497H256.844V10.9746ZM259.411 13.0158V17.8096H262.503C263.576 17.8096 264.339 17.6137 264.792 17.222C265.266 16.8302 265.503 16.191 265.503 15.3045V15.2117C265.503 14.3869 265.256 13.8199 264.761 13.5107C264.287 13.1808 263.524 13.0158 262.473 13.0158H259.411ZM259.411 19.8508V25.1085H262.936C264.07 25.1085 264.906 24.9126 265.442 24.5208C265.998 24.1085 266.277 23.4487 266.277 22.5415V22.4487C266.277 21.5415 265.998 20.8817 265.442 20.4693C264.906 20.057 264.07 19.8508 262.936 19.8508H259.411Z" fill="white"/>
<path d="M245.008 18.892V27.1497H242.441V10.9746H245.008V18.5209L251.72 10.9746H254.72L247.792 18.5828L255.307 27.1497H252.184L245.008 18.892Z" fill="white"/>
<path d="M233.248 27.4278C230.938 27.4278 229.041 26.6855 227.557 25.201C226.072 23.6959 225.33 21.7062 225.33 19.232V18.9846C225.33 16.5516 226.083 14.562 227.588 13.0156C229.114 11.4692 230.979 10.696 233.186 10.696C235.041 10.696 236.619 11.16 237.918 12.0878C239.217 12.995 239.979 14.4176 240.206 16.3558H237.67C237.299 14.0053 235.804 12.83 233.186 12.83C231.681 12.83 230.433 13.397 229.443 14.531C228.474 15.6444 227.99 17.129 227.99 18.9846V19.232C227.99 21.1701 228.464 22.665 229.413 23.7165C230.382 24.768 231.67 25.2938 233.278 25.2938C234.495 25.2938 235.536 24.9536 236.402 24.2732C237.289 23.5722 237.794 22.5928 237.918 21.3351H240.299C240.134 23.1083 239.392 24.5722 238.072 25.7268C236.773 26.8608 235.165 27.4278 233.248 27.4278Z" fill="white"/>
<path d="M216.159 25.2936C217.768 25.2936 219.046 24.7369 219.994 23.6235C220.963 22.5101 221.448 21.0359 221.448 19.2009V18.9844C221.448 17.1081 220.963 15.6133 219.994 14.4999C219.046 13.3865 217.768 12.8298 216.159 12.8298C214.53 12.8298 213.242 13.3865 212.293 14.4999C211.345 15.6133 210.871 17.0978 210.871 18.9534V19.2009C210.871 21.0771 211.335 22.5616 212.262 23.6544C213.211 24.7472 214.51 25.2936 216.159 25.2936ZM216.128 27.4276C213.84 27.4276 211.943 26.6544 210.438 25.108C208.953 23.541 208.211 21.572 208.211 19.2009V18.9534C208.211 16.5411 208.953 14.5617 210.438 13.0154C211.943 11.469 213.85 10.6958 216.159 10.6958C218.469 10.6958 220.365 11.469 221.85 13.0154C223.355 14.5411 224.108 16.5102 224.108 18.9225V19.1699C224.108 21.6029 223.355 23.5925 221.85 25.1389C220.345 26.6647 218.438 27.4276 216.128 27.4276Z" fill="white"/>
<path d="M184.662 5.03613H188.404L195.239 22.2627L201.858 5.03613H205.569V27.1493H202.878V8.53093L195.549 27.1493H194.714L187.136 8.53093V27.1493H184.662V5.03613Z" fill="white"/>
<path d="M160.926 27.1497V10.9746H163.493V23.4384L171.75 10.9746H174.317V27.1497H171.75V14.6859L163.493 27.1497H160.926Z" fill="white"/>
<path d="M158.933 13.1395H153.706V27.1497H151.139V13.1395H145.912V10.9746H158.933V13.1395Z" fill="white"/>
<path d="M138.388 27.4276C136.079 27.4276 134.182 26.6853 132.697 25.2008C131.213 23.6956 130.471 21.706 130.471 19.2318V18.9844C130.471 16.5514 131.223 14.5617 132.728 13.0154C134.254 11.469 136.12 10.6958 138.326 10.6958C140.182 10.6958 141.759 11.1597 143.058 12.0875C144.357 12.9947 145.12 14.4174 145.347 16.3555H142.811C142.44 14.005 140.945 12.8298 138.326 12.8298C136.821 12.8298 135.574 13.3968 134.584 14.5308C133.615 15.6442 133.13 17.1287 133.13 18.9844V19.2318C133.13 21.1699 133.605 22.6647 134.553 23.7163C135.522 24.7678 136.811 25.2936 138.419 25.2936C139.636 25.2936 140.677 24.9534 141.543 24.273C142.429 23.5719 142.934 22.5926 143.058 21.3348H145.44C145.275 23.108 144.532 24.5719 143.213 25.7265C141.914 26.8605 140.306 27.4276 138.388 27.4276Z" fill="white"/>
<path d="M121.3 25.2938C122.908 25.2938 124.186 24.7371 125.135 23.6237C126.104 22.5103 126.589 21.0361 126.589 19.2011V18.9846C126.589 17.1083 126.104 15.6135 125.135 14.5001C124.186 13.3867 122.908 12.83 121.3 12.83C119.671 12.83 118.382 13.3867 117.434 14.5001C116.486 15.6135 116.011 17.098 116.011 18.9537V19.2011C116.011 21.0774 116.475 22.5619 117.403 23.6546C118.352 24.7474 119.65 25.2938 121.3 25.2938ZM121.269 27.4278C118.98 27.4278 117.083 26.6546 115.578 25.1082C114.094 23.5412 113.352 21.5722 113.352 19.2011V18.9537C113.352 16.5413 114.094 14.562 115.578 13.0156C117.083 11.4692 118.991 10.696 121.3 10.696C123.609 10.696 125.506 11.4692 126.991 13.0156C128.496 14.5414 129.248 16.5104 129.248 18.9227V19.1702C129.248 21.6031 128.496 23.5928 126.991 25.1392C125.485 26.6649 123.578 27.4278 121.269 27.4278Z" fill="white"/>
<path d="M99.6992 10.9746H105.359C109.153 10.9746 111.05 12.3457 111.05 15.088V15.1807C111.05 15.9642 110.833 16.6859 110.4 17.3457C109.967 17.9848 109.318 18.4178 108.452 18.6446C110.699 19.1395 111.823 20.3559 111.823 22.2941V22.3868C111.823 23.9538 111.307 25.1394 110.276 25.9435C109.266 26.7476 107.854 27.1497 106.039 27.1497H99.6992V10.9746ZM102.266 13.0158V17.8096H105.359C106.431 17.8096 107.194 17.6137 107.648 17.222C108.122 16.8302 108.359 16.191 108.359 15.3045V15.2117C108.359 14.3869 108.111 13.8199 107.617 13.5107C107.142 13.1808 106.38 13.0158 105.328 13.0158H102.266ZM102.266 19.8508V25.1085H105.792C106.926 25.1085 107.761 24.9126 108.297 24.5208C108.854 24.1085 109.132 23.4487 109.132 22.5415V22.4487C109.132 21.5415 108.854 20.8817 108.297 20.4693C107.761 20.057 106.926 19.8508 105.792 19.8508H102.266Z" fill="white"/>
<path d="M89.507 25.2936C91.1152 25.2936 92.3935 24.7369 93.342 23.6235C94.311 22.5101 94.7955 21.0359 94.7955 19.2009V18.9844C94.7955 17.1081 94.311 15.6133 93.342 14.4999C92.3935 13.3865 91.1152 12.8298 89.507 12.8298C87.8781 12.8298 86.5895 13.3865 85.641 14.4999C84.6926 15.6133 84.2184 17.0978 84.2184 18.9534V19.2009C84.2184 21.0771 84.6823 22.5616 85.6101 23.6544C86.5585 24.7472 87.8575 25.2936 89.507 25.2936ZM89.476 27.4276C87.1874 27.4276 85.2905 26.6544 83.7854 25.108C82.3009 23.541 81.5586 21.572 81.5586 19.2009V18.9534C81.5586 16.5411 82.3009 14.5617 83.7854 13.0154C85.2905 11.469 87.1977 10.6958 89.507 10.6958C91.8162 10.6958 93.7131 11.469 95.1976 13.0154C96.7027 14.5411 97.4553 16.5102 97.4553 18.9225V19.1699C97.4553 21.6029 96.7027 23.5925 95.1976 25.1389C93.6925 26.6647 91.7853 27.4276 89.476 27.4276Z" fill="white"/>
<path d="M61.9062 5.03613H64.5969V15.0566H76.2257V5.03613H78.9164V27.1493H76.2257V17.3143H64.5969V27.1493H61.9062V5.03613Z" fill="white"/>
</svg>
