<svg width="157" height="34" viewBox="0 0 157 34" fill="none" xmlns="http://www.w3.org/2000/svg">
  <path d="M33.3569 31.1733C33.8302 32.0122 33.2175 33.0454 32.2467 33.0454H7.311C6.85666 33.0454 6.43684 32.8054 6.20972 32.416L3.20934 27.2713C2.98294 26.8831 2.98226 26.405 3.20754 26.0162L17.3614 1.58752C17.5881 1.19634 18.0089 0.955078 18.4645 0.955078H24.4796C24.9334 0.955078 25.3528 1.19442 25.5801 1.58311L33.5018 15.1282C33.9924 15.9671 33.3807 17.017 32.4013 17.017H27.87C27.4154 17.017 26.9954 16.7769 26.7684 16.3871L22.6067 9.24285C22.1169 8.40218 20.8907 8.40318 20.4024 9.24465L11.4332 24.7009C10.9464 25.5398 11.5583 26.5861 12.5359 26.5861H30.0221C30.4829 26.5861 30.9076 26.8328 31.1322 27.2309L33.3569 31.1733Z" fill="url(#paint0_linear_3079_20218)"/>
  <path d="M39.6662 26.0386C39.8951 26.4309 39.8933 26.9146 39.6615 27.3053L37.3651 31.1753C36.8707 32.0085 35.6512 32.0022 35.1656 31.164L31.9577 25.6268C31.7311 25.2356 31.3103 24.9944 30.8546 24.9944H15.2216C14.2438 24.9944 13.6319 23.9475 14.1194 23.1086L16.4039 19.177C16.6312 18.7857 17.0529 18.5449 17.509 18.5459L34.5841 18.5828C35.0374 18.5838 35.4558 18.8234 35.6825 19.2119L39.6662 26.0386Z" fill="url(#paint1_linear_3079_20218)"/>
  <path d="M47.6841 25.6581L53.8275 9.64069H58.777L64.9203 25.6581H60.0454L58.7023 22.2507H53.8772L52.559 25.6581H47.6841ZM54.499 18.893H58.0806L56.2898 14.1922L54.499 18.893ZM70.5473 25.9068C69.4364 25.9068 68.4664 25.7244 67.6373 25.3596C66.8249 24.9783 66.1865 24.3648 65.7222 23.5191C65.2745 22.6735 65.0507 21.546 65.0507 20.1366C65.0507 18.694 65.3077 17.4919 65.8217 16.5302C66.3357 15.5684 67.0238 14.8472 67.8861 14.3663C68.7483 13.8689 69.6851 13.6202 70.6966 13.6202C71.2438 13.6202 71.7826 13.6782 72.3132 13.7943C72.8604 13.9103 73.333 14.0761 73.7309 14.2917V8.89453H78.4068V25.6581H74.3527L74.1289 24.7378C73.6646 25.1026 73.1423 25.3928 72.562 25.6084C71.9982 25.8073 71.3267 25.9068 70.5473 25.9068ZM71.8904 22.5243C72.6034 22.5243 73.2169 22.2838 73.7309 21.803V17.6245C73.2667 17.21 72.6532 17.0027 71.8904 17.0027C71.2769 17.0027 70.7795 17.2763 70.3981 17.8235C70.0167 18.3707 69.8261 19.15 69.8261 20.1614C69.8261 21.1563 69.9919 21.803 70.3235 22.1014C70.6551 22.3833 71.1774 22.5243 71.8904 22.5243ZM85.2571 25.9068C84.2456 25.9068 83.2922 25.8322 82.3968 25.683C81.518 25.5503 80.8216 25.3762 80.3076 25.1607V21.803C80.8879 22.0683 81.576 22.2755 82.3719 22.4248C83.1844 22.574 83.8725 22.6486 84.4363 22.6486C85.0332 22.6486 85.4809 22.632 85.7794 22.5989C86.0944 22.5657 86.2519 22.4248 86.2519 22.1761C86.2519 21.8942 85.9783 21.6786 85.4312 21.5294C84.884 21.3802 84.1959 21.1646 83.3668 20.8827C82.289 20.5014 81.4848 20.0537 80.9542 19.5396C80.4236 19.0256 80.1583 18.2795 80.1583 17.3012C80.1583 16.1239 80.6226 15.2202 81.5512 14.5902C82.4797 13.9435 83.9389 13.6202 85.9286 13.6202C86.6913 13.6202 87.4789 13.6782 88.2914 13.7943C89.1039 13.9103 89.7423 14.043 90.2066 14.1922V17.4753C89.7091 17.2597 89.1619 17.1022 88.565 17.0027C87.9847 16.9032 87.4541 16.8535 86.9732 16.8535C86.4426 16.8535 85.9701 16.8784 85.5555 16.9281C85.141 16.9778 84.9337 17.1188 84.9337 17.3509C84.9337 17.6162 85.1659 17.8069 85.6301 17.923C86.111 18.039 86.7494 18.2214 87.5453 18.4702C88.4407 18.7355 89.1371 19.0256 89.6345 19.3407C90.1485 19.6557 90.505 20.0371 90.704 20.4848C90.9195 20.9325 91.0273 21.4879 91.0273 22.1512C91.0273 23.345 90.5382 24.2736 89.5599 24.9368C88.5982 25.5835 87.1639 25.9068 85.2571 25.9068ZM101.033 25.9068C98.1814 25.9068 96.0093 25.2104 94.517 23.8176C93.0246 22.4082 92.2785 20.4019 92.2785 17.7986C92.2785 15.1125 93.0495 13.0398 94.5916 11.5807C96.1336 10.1215 98.3887 9.39197 101.357 9.39197C102.352 9.39197 103.247 9.45 104.043 9.56607C104.855 9.68214 105.618 9.85624 106.331 10.0884V14.0927C105.601 13.8108 104.847 13.6202 104.068 13.5207C103.288 13.4212 102.493 13.3714 101.68 13.3714C100.138 13.3714 98.9773 13.7196 98.198 14.4161C97.4352 15.1125 97.0539 16.24 97.0539 17.7986C97.0539 19.2578 97.3855 20.3107 98.0487 20.9573C98.7286 21.604 99.7234 21.9273 101.033 21.9273C101.464 21.9273 101.871 21.9025 102.252 21.8527C102.633 21.7864 102.99 21.7035 103.322 21.604V19.2661H100.138V16.3809H107.226V24.4394C106.613 24.8208 105.792 25.1607 104.764 25.4591C103.753 25.7576 102.509 25.9068 101.033 25.9068ZM108.977 25.6581V13.8689H113.478L113.603 14.814C114.084 14.5321 114.697 14.2751 115.443 14.043C116.189 13.8108 116.944 13.6699 117.707 13.6202V17.1022C117.275 17.1354 116.803 17.1934 116.289 17.2763C115.791 17.3592 115.302 17.467 114.821 17.5996C114.357 17.7157 113.968 17.8484 113.652 17.9976V25.6581H108.977ZM121.96 25.9068C121.214 25.9068 120.518 25.7742 119.871 25.5089C119.241 25.2436 118.735 24.829 118.354 24.2653C117.972 23.7015 117.782 22.9885 117.782 22.1263C117.782 20.8827 118.196 19.921 119.025 19.2412C119.854 18.5448 121.106 18.1966 122.781 18.1966H125.84V17.9727C125.84 17.5084 125.65 17.1685 125.268 16.953C124.887 16.7374 124.215 16.6296 123.254 16.6296C121.894 16.6296 120.551 16.8369 119.224 17.2514V14.4409C119.821 14.2088 120.567 14.0181 121.463 13.8689C122.358 13.7031 123.27 13.6202 124.199 13.6202C126.072 13.6202 127.556 14.0015 128.651 14.7643C129.745 15.527 130.292 16.7374 130.292 18.3955V25.6581H126.213L125.989 24.713C125.575 25.0778 125.036 25.3679 124.373 25.5835C123.726 25.799 122.922 25.9068 121.96 25.9068ZM123.552 23.1709C124.083 23.1709 124.53 23.0797 124.895 22.8973C125.276 22.7149 125.592 22.4911 125.84 22.2258V20.7584H123.577C122.549 20.7584 122.035 21.1646 122.035 21.9771C122.035 22.773 122.541 23.1709 123.552 23.1709ZM132.415 25.6581V13.8689H136.743L136.867 14.814C137.381 14.4658 137.953 14.1839 138.584 13.9684C139.23 13.7362 139.935 13.6202 140.698 13.6202C141.46 13.6202 142.057 13.7279 142.488 13.9435C142.92 14.159 143.268 14.4741 143.533 14.8886C144.064 14.5072 144.661 14.2005 145.324 13.9684C146.004 13.7362 146.8 13.6202 147.712 13.6202C149.088 13.6202 150.099 13.9849 150.746 14.7145C151.393 15.4275 151.716 16.5219 151.716 17.9976V25.6581H147.115V18.5448C147.115 18.0142 147.007 17.6411 146.791 17.4255C146.576 17.1934 146.219 17.0773 145.722 17.0773C145.075 17.0773 144.544 17.3095 144.13 17.7737C144.163 17.9893 144.18 18.1966 144.18 18.3955C144.18 18.5779 144.18 18.7852 144.18 19.0173V25.6581H139.852V18.4702C139.852 17.9893 139.769 17.6411 139.603 17.4255C139.437 17.1934 139.122 17.0773 138.658 17.0773C138.343 17.0773 138.036 17.1602 137.738 17.3261C137.439 17.4919 137.174 17.6908 136.942 17.923V25.6581H132.415Z" fill="white"/>
  <defs>
    <linearGradient id="paint0_linear_3079_20218" x1="35.1237" y1="37.0003" x2="13.5708" y2="-1.14359" gradientUnits="userSpaceOnUse">
      <stop offset="0.0446244" stop-color="#00F0FF"/>
      <stop offset="0.335569" stop-color="#045AF4"/>
      <stop offset="0.657543" stop-color="#D70CBC"/>
      <stop offset="0.933293" stop-color="#FF8D21"/>
    </linearGradient>
    <linearGradient id="paint1_linear_3079_20218" x1="35.1236" y1="37.0002" x2="13.5707" y2="-1.14369" gradientUnits="userSpaceOnUse">
      <stop offset="0.0446244" stop-color="#00F0FF"/>
      <stop offset="0.335569" stop-color="#045AF4"/>
      <stop offset="0.657543" stop-color="#D70CBC"/>
      <stop offset="0.933293" stop-color="#FF8D21"/>
    </linearGradient>
  </defs>
</svg>
