<svg width="68" height="37" viewBox="0 0 68 37" fill="none" xmlns="http://www.w3.org/2000/svg">
<path d="M4.60235 12.0962H27.6775L26.5667 17.9254H11.8709L11.2678 21.1858H25.5191L24.3766 27.1796H10.1251L9.49034 30.7035H24.4083L23.2973 36.5986H0L4.60235 12.0962Z" fill="white"/>
<path fill-rule="evenodd" clip-rule="evenodd" d="M59.7312 16.9632C64.2761 16.9632 67.9605 13.1659 67.9605 8.4816C67.9605 3.79734 64.2761 0 59.7312 0C55.1862 0 51.502 3.79734 51.502 8.4816C51.502 13.1659 55.1862 16.9632 59.7312 16.9632ZM61.7886 7.70687C62.9247 7.70687 63.8458 6.75754 63.8458 5.58648C63.8458 4.4154 62.9247 3.46607 61.7886 3.46607C60.6523 3.46607 59.7312 4.4154 59.7312 5.58648C59.7312 6.75754 60.6523 7.70687 61.7886 7.70687Z" fill="#EDCEFF"/>
<path d="M40.903 12.0962H32.5303L27.9141 36.5986H50.1671L51.4724 29.7154H37.6239L40.903 12.0962Z" fill="white"/>
</svg>
