<svg width="245" height="64" viewBox="0 0 245 64" fill="none" xmlns="http://www.w3.org/2000/svg">
<path d="M84.6633 6.37598H73.4844V59.3656H84.6633V6.37598Z" fill="white"/>
<path d="M100.702 5.4856H100.502C96.7562 5.4856 94.5547 7.7533 94.5547 11.4562C94.5547 15.1305 96.9564 17.4269 100.502 17.4269H100.702C104.361 17.4269 106.649 15.0444 106.649 11.4562C106.649 7.81072 104.361 5.4856 100.702 5.4856Z" fill="white"/>
<path d="M106.195 20.583H95.0156V59.3637H106.195V20.583Z" fill="white"/>
<path d="M178.373 27.4465L177.544 20.5859H167.48V59.3666H178.631V40.3063C178.631 29.427 190.61 28.0205 196.442 30.5753L196.472 19.8109C189.495 18.7202 183.062 21.5045 178.373 27.4465Z" fill="white"/>
<path d="M142.133 19.6089C133.67 19.6089 128.924 25.063 126.951 28.8807V6.37598H115.887V59.3369H126.122L126.923 53.1652C129.21 56.1219 134.07 60.3415 141.504 60.3415C153.255 60.3415 160.688 52.6487 160.688 39.3294C160.717 26.0964 152.683 19.6089 142.133 19.6089ZM138.359 51.9884C131.154 51.9884 127.666 46.9362 127.666 39.3294C127.666 31.5504 131.983 26.6705 138.359 26.6705C145.02 26.6705 148.708 31.0911 148.708 39.3294C148.708 47.2233 144.62 51.9884 138.359 51.9884Z" fill="white"/>
<path d="M220.125 19.6072C206.001 19.6072 198.281 28.7354 198.281 39.959C198.281 51.1828 206.544 60.311 220.125 60.311C231.618 60.311 238.052 54.5698 240.253 47.2788H228.674C227.701 49.3743 226.158 50.9531 223.812 51.728C222.584 52.13 221.297 52.3883 219.41 52.3022C214.978 52.1013 210.518 48.2261 210.403 42.1407H241.224C242.368 30.0271 235.536 19.6072 220.125 19.6072ZM210.489 36.1126C211.032 31.3188 215.378 27.6732 220.068 27.6732C225.1 27.6732 229.274 31.692 229.674 36.1126H210.489Z" fill="white"/>
<path d="M55.0048 32.8129L18.4089 43.118V36.1427L54.1469 25.9235L53.2892 19.1779L18.4089 28.9376V21.991L52.4315 12.2313L51.5739 5.4856L18.4089 14.786V21.991L3.65625 26.0384L4.54255 33.0425L18.4089 28.9376V36.1427L5.37167 39.7307L6.22939 46.6488L18.4089 43.118V50.2942L7.05851 53.4231L7.94481 60.3124L18.4089 57.2696V50.2942L55.8338 39.5872L55.0048 32.8129Z" fill="#5734E7"/>
</svg>
