<svg width="102" height="78" viewBox="0 0 102 78" fill="none" xmlns="http://www.w3.org/2000/svg">
<path fill-rule="evenodd" clip-rule="evenodd" d="M43.42 8.3399L43.44 8.35991C43.44 8.35991 43.41 8.3499 43.42 8.3399ZM81.87 16.0899C81.47 16.0899 81.08 15.9599 80.74 15.8799C81.05 15.4099 81.38 15.1399 81.78 14.7299C82.07 14.4399 82.71 13.9399 83.21 13.8999C83.42 14.2899 83.66 15.0999 83.77 15.5899C83.22 15.9599 82.75 16.0799 81.87 16.0799V16.0899ZM78.42 21.3799C78.42 20.7099 78.69 19.7499 78.84 19.1999C79.01 18.5799 79.34 17.8899 79.62 17.3699C80.45 17.4299 81.87 18.0199 82.58 18.0699C82.3 18.5999 81.94 18.9099 81.51 19.2599C81.4 19.3499 81.36 19.3999 81.25 19.4899C80.59 20.0199 79.15 21.3199 78.42 21.3799ZM45.18 23.0699C45.36 22.2899 46.74 21.0299 47.72 21.0299C47.67 21.6899 47.3 22.1399 46.89 22.4499C46.42 22.7999 45.84 22.9199 45.19 23.0699H45.18ZM41.17 32.0099C41.17 31.4199 41.58 30.5299 41.76 29.9899C42.31 28.3399 42.96 26.8199 43.73 25.2699C44.09 24.5499 44.02 24.6099 44.97 24.6099C45.44 24.6099 45.58 24.6799 46.03 24.6799C45.5 25.6799 41.8 31.5899 41.17 32.0099ZM47.21 0.659912H47.68C48 0.709912 48.33 0.839906 48.72 1.05991C49.39 1.42991 50 2.10991 49.64 3.15991C48.81 5.58991 46.93 8.28991 45.59 10.5299L40.1 19.6999C39.91 20.0399 39.74 20.4099 39.56 20.7799L37.29 24.9899C36.7 26.0099 36.11 27.1099 35.65 28.2099L34.1 31.5199C33.91 31.9199 33.73 32.2399 33.63 32.6699C33.86 32.4999 34.32 31.7499 34.52 31.4399C34.81 30.9999 35.06 30.6599 35.35 30.2299C35.91 29.3799 36.53 28.6499 37.1 27.8199C38.2 26.1999 39.47 24.6999 40.65 23.1299L43.37 19.5799C43.67 19.1799 43.94 18.8199 44.29 18.4599C45.38 17.3799 45.9 17.8399 46.96 18.6499C47.51 19.0699 47.84 18.9599 48.43 19.2199L49.7 19.9999C50.05 19.7599 50.57 19.2399 50.88 18.9299C51.28 18.5299 51.57 18.1599 51.94 17.7299C52.38 17.2199 52.98 16.0999 53.71 16.1199C53.96 16.1199 54.39 16.2799 54.6 16.3699C55.08 16.5699 55.56 17.0299 55.51 17.6599C55.42 18.8999 53.8 21.6899 53.78 22.6899C54.7 22.1999 55.21 21.8099 56.06 21.1699C57.14 20.3599 58.04 18.5199 58.73 17.2899C59.32 16.2299 59.67 14.8499 61.26 15.8399C61.7 16.1199 62.05 16.3399 62.03 16.9799C62 17.7399 60.16 21.1299 59.52 22.0099C59.26 22.3699 58.98 22.7299 58.78 23.1099C58.63 23.4099 57.66 25.3199 57.58 25.6499C57.73 25.5499 58.03 25.1599 58.17 24.9799C59.78 22.9099 62.6 19.8199 63.9 17.7499C65.15 15.7699 65.62 14.3699 66.48 12.4399C67.07 11.1099 68.7 10.8499 69.64 11.7599C70.15 12.2599 70.35 12.5299 69.8 13.4399C69.06 14.6599 68.01 16.9099 67.29 18.3299C67.11 18.6899 66.6 19.5999 66.52 19.9499C66.91 19.6899 67.2 19.2699 67.56 18.9499C67.69 18.8399 67.71 18.8399 67.84 18.7299C69.22 17.5699 71.08 15.5999 72.58 16.2799C75.05 17.4099 72.94 18.9899 72.72 19.9499C73.17 19.7099 73.96 18.9299 74.36 18.5599C75.84 17.1899 76.55 16.8599 78.08 14.8799C78.3 14.5999 78.54 14.3799 78.8 14.1199C79.56 13.3599 81.03 11.8599 82.64 12.0799C84.09 12.2799 85.6 13.9599 85.68 14.9499C86.66 14.7199 88.71 13.2699 89.65 12.5799L91.05 11.5899C91.85 11.1999 91.35 11.4599 92.03 10.9499C92.85 10.3399 95.07 8.67991 95.58 8.16991L99.03 4.91991C100.16 3.56991 100.81 4.23991 99.49 6.43991C99.06 7.15991 98.23 8.34991 97.63 8.93991C97.38 9.18991 97.18 9.38991 96.93 9.63991L93.84 12.3999C93.55 12.6199 93.29 12.8099 92.99 13.0299C91.86 13.8799 90.8 14.7799 89.68 15.4899L87.87 16.5599C86.57 17.3099 86.2 17.3499 85.36 18.4199L84.37 19.6199C84.01 20.0899 83 21.0199 82.56 21.3999C81.56 22.2399 80.18 23.5799 78.82 23.3599C78.1 23.2399 77.38 22.8999 76.89 22.3899C76.4 21.8699 76.24 21.2299 76.24 20.2199C75.96 20.1599 76.19 20.1299 75.93 20.3299L72.48 23.2999C71.5 24.1399 69.99 24.5099 69.07 23.6599C68.75 23.3699 68.42 22.8999 68.6 22.2399C68.78 21.5999 69.12 21.2399 69.19 20.9299L67.62 22.3199C67.12 22.8199 66.67 23.2699 66.18 23.7599C62.86 27.0799 63.29 27.8099 61.77 31.0499C61.29 32.0799 59.33 36.9699 59.15 37.2299C58.25 38.5499 56.54 37.2499 56.41 36.8099C56.27 36.3299 56.47 35.9399 56.61 35.6099L57.99 32.6199C58.11 32.3799 58.37 31.8599 58.33 31.5099C58.22 30.2599 58.42 30.1699 58.9 29.3199L60.74 26.0899C60.86 25.8999 60.91 25.8399 60.94 25.5799L58.42 28.5499C57.62 29.4699 56.42 30.7199 54.92 29.6899C53.02 28.3799 54.77 26.2299 54.88 24.9399C54.61 25.0099 54.24 25.3699 54.01 25.5499C50.43 28.4299 51.16 31.1999 49.18 30.5699C48.5 30.3499 47.71 30.0399 47.94 28.9899C48.01 28.6799 48.22 28.1999 48.35 27.9199C48.43 27.7399 48.5 27.6299 48.59 27.4499C48.68 27.2599 48.71 27.1499 48.8 26.9599C49.12 26.2899 49.4 25.6399 49.69 24.9599C49.85 24.5899 50.49 23.2499 50.52 22.9699C50.23 23.1199 49.65 23.5499 49.45 23.7999C47.87 25.8099 44.34 32.7999 41.91 34.7899C41.24 35.3399 39.93 35.1199 39.13 34.4399C37.78 33.2799 38.99 31.6799 39.11 30.2299C38.86 30.3999 37.61 32.2299 37.3 32.6499C36.16 34.1699 34.95 36.0199 33.81 37.5399C33.38 38.1099 32.43 39.5799 32 39.8899C31.03 40.5799 29.62 40.4199 28.81 39.6999C27.98 38.9599 28.25 38.1999 28.51 37.3199C29.13 35.1299 29.6 34.0899 30.59 32.0799L37.65 18.2199C37.92 17.7399 38.15 17.3599 38.43 16.8899L40.37 13.6099C40.51 13.3799 40.61 13.1899 40.76 12.9399C41.03 12.4899 42.98 9.23992 43.05 8.95992C42.01 9.65992 36.49 17.5999 36.07 18.1799C34.93 19.7399 33.77 21.3099 32.7 22.9099C31.63 24.5199 30.59 26.1199 29.62 27.8599C29.01 28.9599 28.21 29.8899 27.58 30.9599C27.44 31.1999 27.33 31.3399 27.21 31.5699L24.28 36.7399C23.02 38.8499 21.89 41.0799 20.66 43.1999C20.17 44.0499 19.79 44.9799 19.28 45.8299L17.91 48.4799C17.68 48.9499 17.44 49.3599 17.21 49.8199C16.41 51.3899 13.37 50.3999 13.63 48.9199C13.69 48.5599 13.99 47.7999 14.14 47.3799C14.32 46.8399 14.45 46.3699 14.63 45.8299C15.3 43.8099 16.12 41.9599 16.9 39.9999C18.42 36.1699 20.11 32.4199 21.63 28.5999L25.14 20.0599C25.56 19.0699 25.91 18.1599 26.33 17.1599L28.81 11.6099C29.2 10.7999 29.75 9.63991 29.96 8.73991L27.64 11.2799C27.41 11.5799 27.21 11.8399 26.97 12.1599L23 17.8399C22.58 18.4699 22.15 19.1099 21.73 19.7399C21.51 20.0699 21.31 20.3699 21.08 20.7099C20.85 21.0599 20.65 21.3099 20.42 21.6699C19.33 23.3099 18.4 24.9799 17.39 26.6699L12.2 35.8499L4.76999 50.8899C4.28999 52.0799 3.77999 54.8099 3.01999 55.5499C2.50999 56.0499 1.00999 55.6499 0.789993 54.9899C0.769993 54.9299 0.75999 54.8699 0.73999 54.7999V54.0599C0.87999 52.6299 1.67 50.4199 1.91 49.7999C2.5 48.2699 3.07999 46.7599 3.81999 45.2999C3.92999 45.0699 3.96999 44.9399 4.07999 44.7099L4.59999 43.6099C6.38999 39.8799 8.26999 36.2199 10.33 32.6399C11.7 30.2499 13.11 27.8799 14.42 25.4599C15.7 23.0899 17.2 20.7899 18.7 18.5399C19.57 17.2299 20.6 15.9499 21.36 14.7899C22.62 12.8799 23.94 10.9899 25.31 9.15991C26.69 7.31991 28.17 5.59991 29.59 3.77991C30.52 2.58991 31.72 0.899908 33.46 1.74991C36.24 3.10991 34.26 6.46991 33.47 8.43991L28.01 20.6599C26.71 23.6299 25.5 26.6699 24.29 29.6899C24.14 30.0599 23.95 30.3999 23.86 30.8099C24.02 30.6899 24.09 30.4999 24.21 30.3199C25.83 27.8599 27.34 25.3399 28.97 22.8899L34.32 15.2099L41.37 5.98991C41.88 5.37991 42.32 4.8099 42.85 4.2299C43.36 3.6799 43.86 3.05991 44.44 2.57991L45.32 1.8399C45.63 1.5599 45.92 1.3799 46.25 1.1499C46.61 0.909902 46.92 0.769904 47.22 0.729904L47.21 0.659912ZM58.85 43.9199C58.82 44.2399 57.14 47.9799 56.88 48.5699C56.8 48.7399 56.73 48.8999 56.63 49.0999C56.53 49.2999 56.42 49.4699 56.31 49.6299L55.57 50.5899C54.72 51.7199 53.94 52.8799 53.25 54.1199C52.36 55.7299 51.35 57.2699 50.48 58.8899C49.85 60.0699 49.49 61.0599 48.27 61.6899L45.55 63.1199C44.4 63.6899 41.95 65.0999 40.87 65.9699C40 66.6799 39.82 67.0999 40.72 67.8999C42.05 69.0799 45.25 66.6899 46.56 66.0199L47.71 65.4799C47.69 65.7399 47.43 66.1999 47.32 66.4999C46.66 68.2399 45.66 71.2199 45.17 72.9399C45.05 73.3499 44.97 73.7099 45.29 74.0399C45.64 74.3999 46.59 74.8199 47.08 75.0599C48.96 75.9999 48.75 74.6399 49.17 73.4099C49.3 73.0099 49.42 72.6599 49.54 72.2999C49.66 71.9399 49.78 71.6299 49.92 71.2699C50.99 68.5299 51.56 66.9699 53.11 64.3899C54.29 62.4199 53.55 62.3099 55.72 61.2299L67.08 55.3299C67.39 55.1699 67.68 55.0099 68.02 54.8599L69.03 54.3899C70.41 53.7999 71.65 53.1699 72.99 52.5799C73.63 52.2999 74.29 51.9199 74.95 51.6499L76.91 50.7199C78.23 50.0599 79.48 49.4799 80.9 49.0099C82.78 48.3899 85.24 47.3499 87.17 46.6199C87.83 46.3699 93.06 44.2999 93.48 44.2699C93.48 42.9299 92.46 43.5499 91.48 43.7499C90.55 43.9299 89.68 44.0899 88.77 44.2799C85.58 44.9399 79.69 47.0299 76.57 48.2799C73.89 49.3499 71.26 50.5199 68.6 51.6499C66.35 52.6099 64.11 53.6099 61.93 54.6999L58.71 56.3399C58.22 56.5899 56.93 57.2599 56.43 57.2999L58.17 53.3299L59.56 50.9199C60.32 49.7699 61.23 48.7499 62.12 47.6999C63.28 46.3199 64.73 45.2399 66 43.9699C66.65 43.3199 67.25 42.7199 67.9 42.0699C68.38 41.5899 68.96 41.1999 69.51 40.7899C69.77 40.5999 69.82 40.4099 70.1 40.4699C69.96 40.5799 69.87 40.8799 69.76 41.0499L67.23 45.7799C67 46.2299 66.68 46.8099 66.86 47.2999C67.18 48.1899 69.28 49.6799 70.85 48.3399C71.59 47.7099 72.12 46.8699 72.75 46.1599C73.37 45.4599 74.11 44.6699 74.55 43.8099C74.81 43.2999 75.82 41.4399 75.22 40.6999C74.76 40.1299 74.2 40.6999 73.91 40.9899C73.55 41.3599 73.26 41.7499 72.84 42.0299C73.01 41.3199 73.41 40.7199 73.64 40.0099C74.16 38.4399 73 37.1799 71.51 36.8699C70.3 36.6199 69.26 37.2199 68.34 37.8099C68.03 38.0099 67.81 38.1699 67.51 38.3899C66.34 39.2699 64.66 40.4999 63.62 41.5499C63.4 41.7799 63.13 42.0799 62.83 42.1699C63.11 41.5899 64.14 38.5999 64.32 38.0199C64.62 37.0299 65.49 34.3699 65.44 33.4299C65.38 32.1399 63.89 31.4899 63.3 32.8499C63.02 33.4899 61.39 37.4999 61.35 38.0099C60.18 37.9099 60.41 38.0899 59.15 39.3999L57.32 41.3699C57.19 41.5199 57.18 41.5699 57.04 41.7199C56.43 42.3799 55.78 42.9899 55.22 43.6999C54 45.2199 52.62 46.6099 51.43 48.1499C50.7 49.0899 49.95 49.9699 49.21 50.9299L43.77 57.5399C43.64 57.6899 43.59 57.7199 43.47 57.8799C43.2 58.2299 42.64 58.9799 42.27 59.2199C42.38 57.9399 43.28 56.2199 43.78 55.0199L44.41 53.6799C44.85 52.7999 45.25 51.9999 45.72 51.1899L47.81 47.5099C48.99 45.5199 50.33 43.6499 51.59 41.7099C52.22 40.7399 52.75 39.6899 53.39 38.7199C54.3 37.3499 56.38 34.0599 54.92 32.6099C54.8 32.4899 54.56 32.3199 54.41 32.1999C54.2 32.0399 54.07 31.9199 53.86 31.7699C52.34 30.6599 51.1 31.5999 49.93 32.5699L48.48 33.9399C47.71 34.7099 46.41 36.3099 45.7 37.0099C45.48 37.2199 45.43 37.3199 45.24 37.5399L42.46 40.5399C42.36 40.6599 42.36 40.6699 42.28 40.7799L38.01 45.6699L35.49 48.9199C34.37 50.4099 33.75 50.4499 31.91 51.1199C29.13 52.1299 26.46 53.3899 23.72 54.4799C22.33 55.0299 20.98 55.6199 19.55 56.0899C18.55 56.4199 17.61 57.0099 18.62 58.0899C18.96 58.4599 19.24 58.7199 19.76 58.9299C20.3 59.1499 20.93 59.0199 21.4 58.8599C24.13 57.9299 26.99 56.7699 29.57 55.4799C29.96 55.2799 30.51 54.9699 30.93 54.8699C30.42 55.8299 28.11 58.8699 27.38 59.9799C26.56 61.2199 25.65 62.3899 24.82 63.6199C23.15 66.0699 21.38 68.4599 19.74 70.9299L17.86 74.0499C17.55 74.6099 17.26 75.1199 16.97 75.6999C16.47 76.7099 16.17 77.3999 17.96 77.6499L19.04 77.8399C20.01 75.9999 21.31 74.2099 22.53 72.5299C23.78 70.8099 24.96 69.0499 26.23 67.3599L32.42 59.0399C32.64 58.7199 32.89 58.4399 33.11 58.1099C34.36 56.2599 36.23 53.0599 38.05 51.7799C39.15 51.0099 40.72 50.6299 42.01 50.1099C42.22 50.0199 42.44 49.9699 42.62 49.8799C42.46 50.5899 41.77 51.5799 41.42 52.2799C40.36 54.4199 40.13 54.8299 39.25 57.2899C38.92 58.2099 38.54 59.1199 38.41 60.1199C38.34 60.6499 38.38 61.3399 38.49 61.7599C38.71 62.6099 39.85 63.0099 40.57 63.3399C42.38 64.1599 44.15 62.4299 45.18 61.1099C45.9 60.1899 47.08 59.0399 47.72 58.2199C50.25 54.9699 53.04 50.9699 55.52 47.9199C55.8 47.5799 56.03 47.2999 56.31 46.9499C56.6 46.5799 56.85 46.2899 57.13 45.9399C57.43 45.5699 58.46 44.2099 58.81 43.9599L58.85 43.9199ZM49.13 38.8499C49.03 39.2799 47 42.6599 46.7 43.1799C46.4 43.6899 46.17 44.0999 45.87 44.5999C45.57 45.0999 45.32 45.5099 45.02 46.0099C43.48 48.5699 44.09 47.3699 41.5 48.1199C41.3 48.1799 40.79 48.3399 40.54 48.3599L45.8 42.3499C46.2 41.9499 46.49 41.5899 46.89 41.1899L49.13 38.8499ZM90.68 32.5799C90.44 32.4199 90.41 32.2199 90.23 31.9699C89.87 31.4899 89.54 31.1999 88.99 30.9499C87.51 30.2799 86.11 31.4199 85.01 32.2499C84.5 32.6299 83.77 33.1499 83.31 33.5799L81.68 35.0499C81.15 35.4699 81.3 35.5399 80.9 35.8099C81.02 35.2699 81.23 34.3899 81.07 33.8799C80.91 33.3799 79.55 32.2899 79.04 33.2499C78.69 33.8999 77.41 38.4799 77.09 39.4699L76.25 42.1499C76.02 42.8799 75.63 43.4899 76.76 44.2599C77.39 44.6899 78.37 45.3199 78.96 44.5199C79.47 43.8199 80.37 41.6199 81.04 40.6099C81.2 40.3699 81.35 40.1499 81.52 39.8899C82.11 39.0099 83.77 37.0399 84.62 36.2899L85.59 35.4299C85.83 35.2399 85.98 35.0799 86.23 34.8699C86.49 34.6599 86.69 34.5099 86.96 34.3299C86.84 35.7399 84.11 36.5299 86.85 38.1799C88.16 38.9699 88.58 38.2799 89.48 37.4899L91.31 35.9399C92.04 35.2899 93.11 34.3599 93.9 33.8099C94.18 33.6199 94.5 33.4699 94.79 33.2899C95.44 32.8999 97.74 31.5799 98.51 31.5199C98.37 31.8099 98.29 32.0399 98.13 32.3399C97.92 32.7299 95.4 36.6999 95.16 36.8399L94.28 37.2299C94.28 37.9899 94.38 38.0599 94.84 38.3599C95.71 38.9299 96.45 39.0499 97.31 38.4299C97.88 38.0199 98.48 37.2799 98.89 36.6999C99.71 35.5099 100.11 34.9699 100.69 33.4999C101.04 32.6099 101.39 31.5999 101.39 30.5399C101.39 29.3499 99.96 28.8499 98.71 28.8499C97.34 28.8499 95.06 29.8999 93.93 30.6199C93.75 30.7399 93.66 30.7999 93.45 30.9199C92.87 31.2699 91 32.4899 90.67 32.5799H90.68ZM73.71 29.9699C73.71 30.4899 74.23 31.0099 74.57 31.2299C75.6 31.9099 76.42 30.9699 77.36 30.3799L81.43 28.1199L84.41 26.8099C86.8 25.8499 88.42 25.3699 90.98 24.8499L96.61 24.1399C97.27 24.0699 98.13 24.1899 98.43 23.7799C98.2 22.9399 95.94 22.7799 95.33 22.7199C94.7 22.6699 94.02 22.5799 93.42 22.5199C90.55 22.1999 85.7 23.3099 82.91 24.3799C80.47 25.3199 80.87 25.0899 78.5 26.3099C78.04 26.5499 74.41 28.9599 74.08 29.2799C73.93 29.4299 73.71 29.6999 73.71 29.9699ZM30.75 73.3699C31.85 73.4799 31.89 73.4999 33.1 73.3199C34.38 73.1299 35.93 72.8199 37.07 72.3599C37.73 72.0999 38.71 71.5899 39.15 71.1299C40.95 69.2399 40.27 68.8799 40.26 68.2199C39.94 68.2199 39.7 68.1799 39.49 68.0799L39.44 67.2999C38.1 67.2999 37.05 66.9599 35.47 68.0799C34.76 68.5799 34.32 69.0099 33.76 69.6799C32.73 70.9499 32.2 72.0799 31.15 72.9199C30.77 73.2199 30.81 73.1099 30.74 73.3599L30.75 73.3699ZM23.78 30.8199L23.8 30.8399C23.8 30.8399 23.77 30.8299 23.78 30.8199Z" fill="white"/>
</svg>
