<svg width="244" height="68" viewBox="0 0 244 68" fill="none" xmlns="http://www.w3.org/2000/svg">
<g clip-path="url(#clip0_3745_12256)">
<path d="M0.96875 34.1404C0.968752 22.239 0.968753 16.2883 3.25538 11.7825C5.26675 7.81897 8.47621 4.5966 12.4238 2.5771C16.9115 0.281247 22.7863 0.281248 34.5359 0.28125L37.6222 0.28125C49.372 0.281252 55.2466 0.281254 59.7343 2.57711C63.6819 4.5966 66.8914 7.819 68.9029 11.7825C71.1894 16.2883 71.1894 22.239 71.1894 34.1404C71.1894 46.0419 71.1894 51.9928 68.9029 56.4986C66.8914 60.4619 63.6819 63.6845 59.7343 65.704C55.2466 67.9998 49.3717 67.9998 37.6222 67.9998H34.5359C22.7863 67.9998 16.9115 67.9998 12.4238 65.704C8.47621 63.6845 5.26675 60.4619 3.25538 56.4986C0.968747 51.9928 0.968748 46.0419 0.96875 34.1404Z" fill="#E31513"/>
<path d="M28.6169 26.7298C28.6169 26.3203 28.9251 25.9883 29.3054 25.9883H32.5527C32.9332 25.9883 33.2413 26.3203 33.2413 26.7298V41.5524C33.2413 41.962 32.9332 42.2937 32.5527 42.2937H29.3054C28.9251 42.2937 28.6169 41.962 28.6169 41.5524V36.676C28.6169 36.2665 28.3087 35.9348 27.9285 35.9348H21.0628C20.6826 35.9348 20.3744 36.2665 20.3744 36.676V41.5524C20.3744 41.962 20.0662 42.2937 19.686 42.2937H16.4385C16.0582 42.2937 15.75 41.962 15.75 41.5524V26.7298C15.75 26.3203 16.0582 25.9883 16.4385 25.9883H19.686C20.0662 25.9883 20.3744 26.3203 20.3744 26.7298V31.0467C20.3744 31.4563 20.6826 31.7883 21.0628 31.7883H27.9285C28.3087 31.7883 28.6169 31.4563 28.6169 31.0467V26.7298Z" fill="white"/>
<path d="M56.5956 34.1413C56.5956 35.1662 56.4174 36.1213 56.0604 37.0065C55.7036 37.8761 55.1614 38.637 54.4333 39.2891C53.7055 39.9415 52.7849 40.4617 51.6715 40.8501C50.7411 41.1655 49.6673 41.3585 48.4501 41.4293C48.0754 41.451 47.7753 41.7791 47.7753 42.1828V42.298C47.7753 42.7075 47.4669 43.0395 47.0867 43.0395H43.8392C43.459 43.0395 43.1507 42.7075 43.1507 42.298V42.1828C43.1507 41.7791 42.8505 41.451 42.4758 41.4293C41.2565 41.3585 40.1757 41.1655 39.2329 40.8501C38.1337 40.4617 37.2204 39.9415 36.4926 39.2891C35.7645 38.637 35.2223 37.8761 34.8655 37.0065C34.5228 36.1213 34.3516 35.1662 34.3516 34.1413C34.3516 33.1164 34.5228 32.1614 34.8655 31.2761C35.2223 30.3911 35.7645 29.6224 36.4926 28.9701C37.2204 28.3179 38.1337 27.8055 39.2329 27.4328C40.1738 27.1046 41.2526 26.9096 42.4691 26.8477C42.8465 26.8285 43.1507 26.4995 43.1507 26.0927V25.9847C43.1507 25.5752 43.459 25.2432 43.8392 25.2432H47.0867C47.4669 25.2432 47.7753 25.5752 47.7753 25.9847V26.0927C47.7753 26.4995 48.0794 26.8285 48.4568 26.8477C49.6712 26.9096 50.7427 27.1046 51.6715 27.4328C52.7849 27.8055 53.7055 28.3179 54.4333 28.9701C55.1614 29.6224 55.7036 30.3911 56.0604 31.2761C56.4174 32.1614 56.5956 33.1164 56.5956 34.1413ZM38.8904 34.1413C38.8904 34.6228 38.9759 35.0808 39.1474 35.5157C39.3329 35.9351 39.6039 36.2999 39.9606 36.6105C40.332 36.9054 40.7958 37.1462 41.3523 37.3324C41.9232 37.5033 42.5941 37.5888 43.3648 37.5888C43.3885 37.5888 43.4076 37.5683 43.4076 37.5426V30.7401C43.4076 30.7147 43.3885 30.6939 43.3648 30.6939C42.5941 30.6939 41.9232 30.787 41.3523 30.9735C40.7958 31.1441 40.332 31.3849 39.9606 31.6955C39.6039 31.9904 39.3329 32.3476 39.1474 32.7669C38.9759 33.1863 38.8904 33.6445 38.8904 34.1413ZM47.5612 37.5888C48.3318 37.5888 49.0027 37.5033 49.5736 37.3324C50.1444 37.1462 50.6082 36.9054 50.965 36.6105C51.3363 36.2999 51.6073 35.9351 51.7785 35.5157C51.964 35.0808 52.0568 34.6228 52.0568 34.1413C52.0568 33.6445 51.964 33.1863 51.7785 32.7669C51.6073 32.3476 51.3363 31.9904 50.965 31.6955C50.6082 31.3849 50.1444 31.1441 49.5736 30.9735C49.0027 30.787 48.3318 30.6939 47.5612 30.6939C47.5374 30.6939 47.5183 30.7147 47.5183 30.7401V37.5426C47.5183 37.5683 47.5374 37.5888 47.5612 37.5888Z" fill="white"/>
<mask id="mask0_3745_12256" style="mask-type:luminance" maskUnits="userSpaceOnUse" x="90" y="8" width="154" height="57">
<path d="M243.714 8.72656H90.5078V64.1683H243.714V8.72656Z" fill="white"/>
</mask>
<g mask="url(#mask0_3745_12256)">
<path d="M104.401 8.72656H108.996V29.3791H104.401V20.8989H96.4184V29.3791H91.8281V8.72656H96.4184V16.7424H104.401V8.72656Z" fill="white"/>
<path d="M125.508 23.0907H115.602C116.004 25.1945 117.354 26.1187 119.882 26.1187C121.553 26.1309 123.201 25.7239 124.676 24.9345V28.5708C123.118 29.3555 121.394 29.7507 119.651 29.7226C114.567 29.7226 111.414 26.7225 111.414 21.8508C111.414 17.0859 114.4 13.835 118.704 13.835C122.808 13.835 125.508 16.8955 125.508 21.5675V23.0907ZM115.602 20.1789H121.574C121.376 18.2747 120.456 17.2902 118.731 17.2902C117.007 17.2902 115.93 18.2747 115.602 20.1789Z" fill="white"/>
<path d="M127.352 21.7906C127.352 17.0861 130.536 13.8352 135.187 13.8352C136.605 13.8058 138.005 14.1654 139.236 14.8755V19.1435C138.197 18.246 136.872 17.7518 135.501 17.7502C133.033 17.7502 131.683 19.1899 131.683 21.786C131.683 24.3821 133.07 25.7985 135.501 25.7985C136.871 25.7961 138.196 25.302 139.236 24.4053V28.6965C138.005 29.4051 136.605 29.7632 135.187 29.7321C130.509 29.7228 127.352 26.523 127.352 21.7906Z" fill="white"/>
<path d="M157.11 29.3788H151.743L146.718 22.6865V29.3788H142.383V14.1785H146.718V20.3366L151.771 14.1646H156.994L150.911 21.3583L157.11 29.3788Z" fill="white"/>
<path d="M169.09 14.2344H173.491L165.799 29.379H161.417L163.973 24.2704L157.844 14.2344H162.466L166.021 20.1696L169.09 14.2344Z" fill="white"/>
<path d="M182.994 14.1787H187.325V29.379H182.994V24.303C182.069 24.5629 181.111 24.688 180.151 24.6745C176.333 24.6745 174.234 22.6868 174.234 19.0504V14.1787H178.57V18.5628C178.57 20.1186 179.291 20.7827 180.923 20.7827C181.627 20.7806 182.327 20.663 182.994 20.4344V14.1787Z" fill="white"/>
<path d="M199.863 14.1787H204.218V29.379H199.882V23.4949H195.158V29.379H190.812V14.1787H195.148V19.8028H199.854L199.863 14.1787Z" fill="white"/>
<path d="M215.315 18.8507C218.616 18.8507 220.797 20.9266 220.797 24.1265C220.797 27.3263 218.597 29.379 215.315 29.379H207.734V14.1787H211.955V18.8507H215.315ZM214.451 26.1467C215.888 26.1467 216.633 25.4547 216.633 24.1265C216.633 22.7982 215.916 22.0784 214.451 22.0784H211.955V26.1467H214.451ZM222.66 14.1787H226.996V29.379H222.66V14.1787Z" fill="white"/>
<path d="M243.713 23.0907H233.802C234.204 25.1945 235.554 26.1187 238.078 26.1187C239.749 26.1321 241.397 25.725 242.871 24.9345V28.5709C241.314 29.355 239.592 29.7501 237.851 29.7226C232.739 29.7226 229.609 26.7225 229.609 21.8508C229.614 17.0859 232.6 13.835 236.908 13.835C241.013 13.835 243.713 16.8955 243.713 21.5675V23.0907ZM233.802 20.1789H239.774C239.571 18.2748 238.651 17.2902 236.931 17.2902C235.212 17.2902 234.121 18.2748 233.802 20.1789Z" fill="white"/>
<path d="M103.053 57.8205V64.169H98.7175V57.8205C93.6927 57.6765 90.5078 54.6205 90.5078 49.8884C90.5078 45.1559 93.7438 42.0721 98.7175 41.9281V36.0439H103.053V41.9281C108.073 42.0721 111.309 45.1605 111.309 49.8884C111.309 54.6159 108.105 57.6765 103.053 57.8205ZM98.893 54.1053V45.6482C96.1196 45.7085 94.7051 47.1482 94.7051 49.8884C94.7051 52.6283 96.1056 54.0446 98.8884 54.1004L98.893 54.1053ZM102.887 54.1053C105.66 54.0495 107.107 52.605 107.107 49.893C107.107 47.1806 105.67 45.7131 102.887 45.6528V54.1053Z" fill="white"/>
<path d="M118.186 51.3876L123.381 42.2759H127.745V57.4901H123.497V48.16L118.186 57.4901H113.938V42.2759H118.186V51.3876Z" fill="white"/>
<path d="M140.289 42.2759H144.624V57.4901H140.289V51.5919H135.578V57.4901H131.242V42.2759H135.578V47.9H140.289V42.2759Z" fill="white"/>
<path d="M160.072 47.9279V57.4902H156.148V55.6325C155.752 56.3284 155.173 56.9012 154.474 57.2877C153.775 57.6746 152.984 57.8602 152.187 57.8247C149.413 57.8247 147.453 56.0086 147.453 53.4684C147.453 51.2762 148.914 49.6647 151.641 49.1446L155.801 48.3644C155.741 46.7205 154.507 45.8009 152.529 45.8009C150.92 45.8218 149.356 46.3355 148.045 47.2731V43.2837C149.59 42.3375 151.377 41.8661 153.185 41.9277C157.461 41.9277 160.072 44.1521 160.072 47.9279ZM155.769 53.4638V51.2437L153.125 51.7359C152.094 51.9357 151.604 52.4279 151.604 53.2362C151.604 54.1279 152.237 54.6293 153.356 54.6293C153.822 54.6452 154.285 54.5472 154.705 54.3444C155.125 54.1414 155.49 53.839 155.769 53.4638Z" fill="white"/>
<path d="M172.362 42.2759H176.697V57.4901H172.362V51.5919H167.656V57.4901H163.32V42.2759H167.656V47.9H172.362V42.2759Z" fill="white"/>
<path d="M179.312 49.8879C179.312 45.1604 182.497 41.9279 187.148 41.9279C188.566 41.8985 189.966 42.2581 191.197 42.9682V47.2362C190.159 46.3391 188.836 45.8447 187.467 45.8428C184.998 45.8428 183.648 47.2825 183.648 49.8787C183.648 52.4747 185.035 53.8913 187.467 53.8913C188.835 53.8874 190.158 53.3933 191.197 52.498V56.766C189.966 57.4745 188.566 57.8326 187.148 57.8017C182.47 57.8203 179.312 54.6204 179.312 49.8879Z" fill="white"/>
<path d="M201.906 46.9491C205.206 46.9491 207.388 49.025 207.388 52.225C207.388 55.4246 205.197 57.4913 201.906 57.4913H194.32V42.2771H198.54V46.9491H201.906ZM201.037 54.2405C202.469 54.2405 203.219 53.5485 203.219 52.2201C203.219 50.8919 202.502 50.1721 201.037 50.1721H198.54V54.2405H201.037ZM209.246 42.2725H213.582V57.4913H209.246V42.2725Z" fill="white"/>
</g>
</g>
<defs>
<clipPath id="clip0_3745_12256">
<rect width="243" height="68" fill="white" transform="translate(0.96875)"/>
</clipPath>
</defs>
</svg>
