<svg width="161" height="78" viewBox="0 0 161 78" fill="none" xmlns="http://www.w3.org/2000/svg">
<path fill-rule="evenodd" clip-rule="evenodd" d="M13.2913 21.125C20.2127 21.125 25.5795 26.5897 25.5795 33.3822C25.5795 40.1747 20.2127 45.6393 13.2913 45.6393H8.02492V56.875H0V38.8297V28.3602V21.125H13.2913ZM13.2913 37.9785C15.7489 37.9785 17.5545 35.9868 17.5545 33.3822C17.5545 30.7775 15.7489 28.7857 13.2913 28.7857H8.02492V37.9785H13.2913ZM52.1621 56.875L50.4065 51.2572H37.366L35.6106 56.875H26.8334L38.7704 21.125H49.0021L60.9393 56.875H52.1621ZM39.7736 43.5965H47.9991L43.8863 30.471L39.7736 43.5965ZM86.1675 56.875L79.547 45.1285H75.7352V56.875H67.7103V37.9785V27.9346V21.125H81.7539C88.4246 21.125 93.7914 26.5897 93.7914 33.3822C93.7914 37.7743 91.1832 41.7578 87.3213 43.7497L94.7944 56.875H86.1675ZM75.7352 28.7857V37.9785H81.7539C83.9607 37.9785 85.7663 35.9868 85.7663 33.3822C85.7663 30.7775 83.9607 28.7857 81.7539 28.7857H75.7352ZM125.139 21.125V28.99H116.111V56.875H108.086V28.99H99.0577V21.125H125.139ZM152.223 56.875L150.467 51.2572H137.427L135.671 56.875H126.894L138.831 21.125H149.063L161 56.875H152.223ZM139.834 43.5965H148.06L143.947 30.471L139.834 43.5965Z" fill="white"/>
<path d="M48.3006 9.75H38.6406V17.875H48.3006V9.75Z" fill="white"/>
</svg>
