<svg width="250" height="55" viewBox="0 0 250 55" fill="none" xmlns="http://www.w3.org/2000/svg">
<g clip-path="url(#clip0_3450_6946)">
<mask id="mask0_3450_6946" style="mask-type:alpha" maskUnits="userSpaceOnUse" x="0" y="0" width="250" height="55">
<path fill-rule="evenodd" clip-rule="evenodd" d="M0.207031 0H249.207V55H0.207031V0Z" fill="white"/>
</mask>
<g mask="url(#mask0_3450_6946)">
<path fill-rule="evenodd" clip-rule="evenodd" d="M16.9809 26.4375C22.8866 26.4375 26.6669 25.4504 29.4239 23.247C31.8646 21.2716 33.0454 18.6132 33.0454 15.3467C33.0454 11.32 31.2355 8.58561 28.4007 6.76228C25.3284 4.78692 21.5493 4.25596 15.1707 4.25596H5.01306L5.01185 26.4375H16.9809ZM0.208244 0L15.4848 0.00116954C22.0997 0.00116954 27.2186 0.761371 31.2355 3.26887C35.0933 5.69918 37.8492 9.64871 37.8492 15.1186C37.8503 20.1325 35.4873 24.234 31.8646 26.7404C29.2664 28.5648 26.1953 29.4759 22.6514 30.008L41.707 54.9989L35.8802 55L17.2949 30.3869H5.01187L5.01066 54.9989H0.207031L0.208244 0Z" fill="white"/>
<path fill-rule="evenodd" clip-rule="evenodd" d="M97.0399 17.1875H100.497L100.497 55H97.0391L97.0399 17.1875Z" fill="white"/>
<path fill-rule="evenodd" clip-rule="evenodd" d="M115.282 47.2018C119.48 49.7027 124.865 51.0279 130.012 51.0279C136.586 51.0279 140.784 48.8942 140.786 44.5539C140.784 39.1105 134.29 38.5214 128.193 37.6381C121.698 36.6822 114.332 34.9165 114.332 27.56C114.333 20.7179 120.589 17.1875 129.46 17.1875C134.528 17.1875 139.677 18.3643 143.479 20.2773L143.478 24.8384C139.36 22.4112 134.133 21.1607 129.302 21.1607C123.203 21.1607 119.006 23.1462 119.005 27.2667C119.006 32.3419 125.342 32.8573 131.201 33.7408C138.25 34.7702 145.457 36.5348 145.457 44.1856C145.457 51.3224 139.2 55 129.776 55C124.627 55 119.241 53.8956 115.282 51.8367V47.2018Z" fill="white"/>
<path fill-rule="evenodd" clip-rule="evenodd" d="M159.882 41.7665L159.883 21.6597H152.375L152.376 17.815H159.883V7.61368L164.403 6.875V17.8162H176.583V21.6597H164.403V41.0278C164.403 46.4978 165.244 51.0073 171.22 51.0084C173.211 51.0073 175.127 50.4906 176.583 49.6768L176.582 53.8175C175.127 54.4822 172.906 55 170.607 55C167.85 55 164.709 54.2603 162.563 51.8939C160.648 49.7508 159.882 46.4978 159.882 41.7665Z" fill="white"/>
<path fill-rule="evenodd" clip-rule="evenodd" d="M207.597 46.8495V38.7005C204.77 37.8933 201.499 37.3791 198.523 37.3791C193.318 37.3791 187.962 38.9933 187.963 44.3536C187.962 49.0528 192.052 51.1079 196.514 51.109C200.68 51.109 204.696 49.3468 207.597 46.8495ZM187.292 52.503C184.913 50.7416 183.5 48.0989 183.5 44.721C183.5 40.9027 185.285 38.1862 188.111 36.3503C190.864 34.5892 194.582 33.929 198.152 33.9279C201.499 33.9279 204.547 34.4421 207.597 35.2503V31.0657C207.597 27.541 206.927 25.2655 204.92 23.5032C203.208 22.0347 200.681 21.2265 197.407 21.2265C193.095 21.2265 189.153 22.6214 186.178 24.7511V20.4194C189.153 18.5824 193.243 17.1886 197.855 17.1875C202.243 17.1886 205.812 18.2896 208.267 20.3459C210.72 22.4021 211.985 25.6317 211.985 30.038V45.6764C211.984 48.76 212.727 51.0367 215.703 51.0356C216.595 51.0356 217.414 50.8164 218.083 50.449L218.082 54.194C217.265 54.5603 216.149 54.7808 214.884 54.7808C211.76 54.7808 209.307 53.3123 208.266 50.5214H208.117C205.366 52.8715 200.903 55 195.92 55C192.797 55 189.673 54.2663 187.292 52.503Z" fill="white"/>
<path fill-rule="evenodd" clip-rule="evenodd" d="M232.507 41.7678L232.508 21.6597H225L225.001 17.8162H232.508V7.61481L237.028 6.875V17.8162H249.208V21.6597H237.028V41.0278C237.028 46.4989 237.869 51.0084 243.845 51.0084C245.836 51.0084 247.752 50.4905 249.208 49.6779L249.207 53.8175C247.752 54.4833 245.531 55 243.232 55C240.475 55 237.334 54.2613 235.188 51.895C233.273 49.7519 232.507 46.4989 232.507 41.7678Z" fill="white"/>
<path fill-rule="evenodd" clip-rule="evenodd" d="M73.4734 30.7167C74.5333 32.2308 75.1536 34.0816 75.1536 36.0943C75.1536 41.2442 71.1406 45.3637 65.9146 45.3637C60.69 45.3637 56.6756 41.2431 56.6756 36.0943C56.6756 30.9455 60.69 26.825 65.9157 26.825C68.2466 26.825 70.3324 27.6496 71.9321 29.0155L78.724 21.0271C75.2505 18.6078 70.8454 17.1886 65.9157 17.1875C54.0254 17.1875 45.1652 25.4273 45.1641 36.0943C45.1641 46.7613 54.0254 55 65.9146 55C77.8038 55.0011 86.6641 46.7624 86.6641 36.0954C86.6641 31.6635 85.1319 27.6551 82.4922 24.4782L73.4734 30.7167Z" fill="#26A4F0"/>
<path fill-rule="evenodd" clip-rule="evenodd" d="M98.5535 10.3125L107.414 3.67296C106.353 2.28912 105.11 1.05476 103.711 0L97.0391 8.50072C97.6131 9.03111 98.1194 9.64106 98.5535 10.3125Z" fill="#26A4F0"/>
</g>
</g>
<defs>
<clipPath id="clip0_3450_6946">
<rect width="249" height="55" fill="white" transform="translate(0.207031)"/>
</clipPath>
</defs>
</svg>
