<svg width="307" height="67" viewBox="0 0 307 67" fill="none" xmlns="http://www.w3.org/2000/svg">
<g clip-path="url(#clip0_3955_9837)">
<path d="M95.015 40.9693C95.015 40.3787 94.9248 39.8488 94.7444 39.3793C94.5791 38.8948 94.2633 38.4557 93.7969 38.062C93.3306 37.6531 92.6767 37.2518 91.8342 36.8581C90.9922 36.4644 89.9018 36.0556 88.563 35.6316C87.0742 35.1471 85.6605 34.6019 84.3217 33.9962C82.9981 33.3905 81.8251 32.6864 80.8027 31.8838C79.795 31.0662 78.9976 30.1198 78.4111 29.0447C77.8398 27.9695 77.5539 26.7203 77.5539 25.2969C77.5539 23.919 77.855 22.6697 78.4562 21.5492C79.0579 20.4135 79.9004 19.4444 80.9832 18.6419C82.0659 17.8241 83.3444 17.1958 84.8179 16.7566C86.3073 16.3175 87.939 16.0979 89.7138 16.0979C92.1353 16.0979 94.2481 16.537 96.0527 17.4153C97.8578 18.2936 99.2564 19.4974 100.249 21.0268C101.257 22.5562 101.761 24.3051 101.761 26.2736H95.0379C95.0379 25.3045 94.8346 24.4565 94.4286 23.7297C94.0377 22.9877 93.436 22.4047 92.6239 21.9807C91.8265 21.5568 90.8193 21.3447 89.6007 21.3447C88.4277 21.3447 87.4504 21.5265 86.6682 21.8899C85.886 22.2382 85.2995 22.7151 84.9082 23.3209C84.5174 23.9114 84.3217 24.5777 84.3217 25.3196C84.3217 25.8799 84.457 26.3872 84.7277 26.8415C85.0136 27.2957 85.4349 27.7197 85.9915 28.1134C86.5475 28.5071 87.2319 28.8781 88.0445 29.2264C88.8566 29.5747 89.7964 29.9153 90.8645 30.2485C92.6538 30.7936 94.2258 31.4069 95.5793 32.0883C96.9479 32.7697 98.091 33.5344 99.008 34.3824C99.9255 35.2304 100.617 36.1919 101.084 37.267C101.55 38.3421 101.783 39.5611 101.783 40.9239C101.783 42.3624 101.505 43.6495 100.948 44.7852C100.392 45.9209 99.5874 46.8824 98.5346 47.6698C97.4817 48.4572 96.2261 49.0553 94.7672 49.4642C93.3083 49.873 91.6765 50.0775 89.8714 50.0775C88.2472 50.0775 86.6454 49.8654 85.0664 49.4415C83.4873 49.0024 82.0507 48.3436 80.7576 47.4654C79.4792 46.5871 78.4562 45.4666 77.6892 44.1038C76.9223 42.741 76.5391 41.1283 76.5391 39.2658H83.3292C83.3292 40.2954 83.4873 41.1661 83.8031 41.8779C84.1189 42.5895 84.5625 43.165 85.1343 43.6041C85.7208 44.0432 86.4122 44.3612 87.2096 44.558C88.0217 44.7549 88.9093 44.8533 89.8714 44.8533C91.0449 44.8533 92.007 44.6867 92.7593 44.3536C93.5262 44.0205 94.0905 43.5587 94.4514 42.9681C94.827 42.3776 95.015 41.7113 95.015 40.9693ZM112.476 14.7124V49.6232H105.979V14.7124H112.476ZM127.862 25.0471L117.259 37.2216L111.574 43.0135L109.205 38.2891L113.717 32.5199L120.057 25.0471H127.862ZM121.117 49.6232L113.898 38.2664L118.387 34.3142L128.607 49.6232H121.117ZM129.622 37.585V37.108C129.622 35.306 129.878 33.6479 130.389 32.1337C130.9 30.6043 131.645 29.2794 132.622 28.1588C133.6 27.0383 134.803 26.1676 136.232 25.5468C137.66 24.9108 139.3 24.5928 141.15 24.5928C143 24.5928 144.647 24.9108 146.09 25.5468C147.534 26.1676 148.745 27.0383 149.722 28.1588C150.715 29.2794 151.467 30.6043 151.979 32.1337C152.489 33.6479 152.746 35.306 152.746 37.108V37.585C152.746 39.3718 152.489 41.0299 151.979 42.5593C151.467 44.0735 150.715 45.3985 149.722 46.5341C148.745 47.6547 147.542 48.5254 146.113 49.1462C144.684 49.767 143.045 50.0775 141.195 50.0775C139.345 50.0775 137.698 49.767 136.254 49.1462C134.826 48.5254 133.615 47.6547 132.622 46.5341C131.645 45.3985 130.9 44.0735 130.389 42.5593C129.878 41.0299 129.622 39.3718 129.622 37.585ZM136.119 37.108V37.585C136.119 38.6146 136.209 39.5762 136.389 40.4696C136.57 41.363 136.856 42.1504 137.247 42.8318C137.653 43.4981 138.179 44.0205 138.826 44.3991C139.473 44.7776 140.262 44.9669 141.195 44.9669C142.097 44.9669 142.872 44.7776 143.519 44.3991C144.165 44.0205 144.684 43.4981 145.075 42.8318C145.466 42.1504 145.752 41.363 145.933 40.4696C146.128 39.5762 146.226 38.6146 146.226 37.585V37.108C146.226 36.1086 146.128 35.1698 145.933 34.2915C145.752 33.3981 145.459 32.6107 145.053 31.9293C144.661 31.2328 144.143 30.6876 143.496 30.2939C142.849 29.9002 142.067 29.7034 141.15 29.7034C140.232 29.7034 139.45 29.9002 138.803 30.2939C138.172 30.6876 137.653 31.2328 137.247 31.9293C136.856 32.6107 136.57 33.3981 136.389 34.2915C136.209 35.1698 136.119 36.1086 136.119 37.108ZM163.236 30.4075V49.6232H156.738V25.0471H162.852L163.236 30.4075ZM170.59 24.8881L170.477 30.9526C170.162 30.9072 169.778 30.8693 169.327 30.8391C168.891 30.7936 168.492 30.7709 168.131 30.7709C167.214 30.7709 166.416 30.892 165.74 31.1343C165.078 31.3615 164.522 31.7022 164.07 32.1564C163.634 32.6107 163.304 33.1634 163.078 33.8145C162.867 34.4657 162.747 35.2076 162.716 36.0405L161.408 35.6316C161.408 34.0416 161.566 32.5804 161.882 31.2479C162.198 29.9002 162.657 28.7267 163.258 27.7273C163.875 26.7279 164.627 25.9556 165.514 25.4105C166.401 24.8653 167.417 24.5928 168.56 24.5928C168.921 24.5928 169.289 24.6231 169.665 24.6837C170.041 24.7291 170.35 24.7972 170.59 24.8881ZM171.944 37.585V37.108C171.944 35.306 172.199 33.6479 172.711 32.1337C173.222 30.6043 173.966 29.2794 174.944 28.1588C175.922 27.0383 177.125 26.1676 178.554 25.5468C179.983 24.9108 181.622 24.5928 183.472 24.5928C185.321 24.5928 186.968 24.9108 188.412 25.5468C189.856 26.1676 191.067 27.0383 192.045 28.1588C193.037 29.2794 193.789 30.6043 194.3 32.1337C194.812 33.6479 195.067 35.306 195.067 37.108V37.585C195.067 39.3718 194.812 41.0299 194.3 42.5593C193.789 44.0735 193.037 45.3985 192.045 46.5341C191.067 47.6547 189.863 48.5254 188.435 49.1462C187.006 49.767 185.366 50.0775 183.517 50.0775C181.667 50.0775 180.02 49.767 178.576 49.1462C177.147 48.5254 175.937 47.6547 174.944 46.5341C173.966 45.3985 173.222 44.0735 172.711 42.5593C172.199 41.0299 171.944 39.3718 171.944 37.585ZM178.441 37.108V37.585C178.441 38.6146 178.531 39.5762 178.712 40.4696C178.892 41.363 179.178 42.1504 179.569 42.8318C179.975 43.4981 180.501 44.0205 181.148 44.3991C181.795 44.7776 182.585 44.9669 183.517 44.9669C184.419 44.9669 185.194 44.7776 185.84 44.3991C186.487 44.0205 187.006 43.4981 187.397 42.8318C187.788 42.1504 188.074 41.363 188.254 40.4696C188.45 39.5762 188.547 38.6146 188.547 37.585V37.108C188.547 36.1086 188.45 35.1698 188.254 34.2915C188.074 33.3981 187.78 32.6107 187.374 31.9293C186.984 31.2328 186.464 30.6876 185.818 30.2939C185.171 29.9002 184.389 29.7034 183.472 29.7034C182.554 29.7034 181.772 29.9002 181.126 30.2939C180.494 30.6876 179.975 31.2328 179.569 31.9293C179.178 32.6107 178.892 33.3981 178.712 34.2915C178.531 35.1698 178.441 36.1086 178.441 37.108ZM220.582 44.3082V49.6232H204.046V44.3082H220.582ZM206.234 16.5522V49.6232H199.466V16.5522H206.234ZM235.291 50.0775C233.396 50.0775 231.697 49.7746 230.193 49.1689C228.689 48.5481 227.41 47.6925 226.358 46.6023C225.32 45.512 224.523 44.2476 223.966 42.8091C223.41 41.3554 223.132 39.8109 223.132 38.1755V37.267C223.132 35.4045 223.395 33.701 223.921 32.1564C224.447 30.6119 225.199 29.2718 226.177 28.1361C227.17 27.0004 228.373 26.1297 229.787 25.5241C231.2 24.9032 232.794 24.5928 234.569 24.5928C236.299 24.5928 237.833 24.8805 239.171 25.4559C240.51 26.0313 241.63 26.849 242.533 27.909C243.45 28.969 244.142 30.2409 244.609 31.7249C245.074 33.1937 245.308 34.8291 245.308 36.631V39.3566H225.906V34.9956H238.923V34.4959C238.923 33.5874 238.758 32.7772 238.427 32.0656C238.111 31.3388 237.63 30.7633 236.983 30.3394C236.337 29.9153 235.509 29.7034 234.502 29.7034C233.644 29.7034 232.907 29.8926 232.29 30.2712C231.674 30.6498 231.17 31.1797 230.779 31.8611C230.403 32.5426 230.117 33.3451 229.922 34.2688C229.742 35.1773 229.651 36.1767 229.651 37.267V38.1755C229.651 39.1598 229.787 40.0683 230.058 40.9012C230.343 41.734 230.742 42.4533 231.253 43.059C231.78 43.6646 232.411 44.1341 233.148 44.4672C233.9 44.8003 234.749 44.9669 235.697 44.9669C236.87 44.9669 237.961 44.7398 238.969 44.2855C239.991 43.816 240.871 43.1119 241.608 42.1731L244.766 45.6256C244.255 46.3676 243.556 47.0793 242.668 47.7607C241.796 48.4421 240.743 49.0024 239.51 49.4415C238.277 49.8654 236.87 50.0775 235.291 50.0775ZM262.182 44.081V33.1331C262.182 32.3457 262.054 31.6719 261.799 31.1116C261.543 30.5362 261.145 30.0895 260.603 29.7715C260.076 29.4535 259.393 29.2945 258.55 29.2945C257.828 29.2945 257.204 29.4232 256.678 29.6807C256.151 29.9229 255.745 30.2788 255.46 30.7482C255.174 31.2024 255.031 31.74 255.031 32.3608H248.534C248.534 31.3161 248.774 30.3242 249.255 29.3854C249.737 28.4465 250.436 27.6213 251.353 26.9096C252.271 26.1828 253.361 25.6149 254.625 25.2061C255.903 24.7972 257.332 24.5928 258.911 24.5928C260.806 24.5928 262.49 24.9108 263.965 25.5468C265.439 26.1828 266.596 27.1367 267.439 28.4087C268.296 29.6807 268.724 31.2706 268.724 33.1786V43.6949C268.724 45.0426 268.807 46.148 268.973 47.0111C269.138 47.8591 269.379 48.6011 269.695 49.237V49.6232H263.13C262.814 48.9569 262.574 48.1241 262.408 47.1247C262.258 46.1101 262.182 45.0956 262.182 44.081ZM263.039 34.6549L263.084 38.3573H259.452C258.595 38.3573 257.851 38.4557 257.219 38.6525C256.587 38.8494 256.069 39.1295 255.663 39.4929C255.256 39.8412 254.956 40.25 254.76 40.7195C254.579 41.1889 254.489 41.7037 254.489 42.264C254.489 42.8242 254.618 43.3315 254.873 43.7858C255.128 44.2249 255.497 44.5732 255.979 44.8306C256.46 45.0729 257.024 45.194 257.67 45.194C258.648 45.194 259.498 44.9972 260.219 44.6035C260.941 44.2098 261.498 43.7252 261.889 43.1498C262.295 42.5744 262.506 42.0293 262.521 41.5144L264.235 44.2855C263.994 44.9063 263.664 45.5499 263.243 46.2161C262.837 46.8824 262.318 47.5108 261.686 48.1013C261.054 48.6768 260.295 49.1538 259.407 49.5323C258.52 49.8957 257.467 50.0775 256.249 50.0775C254.7 50.0775 253.294 49.767 252.03 49.1462C250.782 48.5102 249.79 47.6395 249.053 46.5341C248.331 45.4136 247.97 44.1416 247.97 42.7182C247.97 41.4311 248.21 40.2879 248.692 39.2885C249.173 38.2891 249.88 37.4487 250.812 36.7673C251.76 36.0707 252.94 35.5483 254.354 35.2C255.768 34.8367 257.407 34.6549 259.272 34.6549H263.039ZM288.148 44.2628V14.7351H294.691V49.6232H288.803L288.148 44.2628ZM272.717 37.6304V37.1534C272.717 35.2758 272.928 33.5723 273.35 32.0429C273.77 30.4983 274.387 29.1734 275.199 28.068C276.011 26.9626 277.011 26.107 278.2 25.5014C279.388 24.8957 280.741 24.5928 282.261 24.5928C283.689 24.5928 284.938 24.8957 286.005 25.5014C287.088 26.107 288.005 26.9702 288.758 28.0907C289.525 29.1961 290.141 30.5059 290.607 32.0202C291.074 33.5192 291.412 35.1622 291.623 36.949V37.9938C291.412 39.7049 291.074 41.2949 290.607 42.7637C290.141 44.2325 289.525 45.5196 288.758 46.625C288.005 47.7152 287.088 48.5632 286.005 49.1689C284.922 49.7746 283.659 50.0775 282.215 50.0775C280.696 50.0775 279.343 49.767 278.155 49.1462C276.982 48.5254 275.989 47.6547 275.176 46.5341C274.38 45.4136 273.77 44.0962 273.35 42.582C272.928 41.0677 272.717 39.4172 272.717 37.6304ZM279.215 37.1534V37.6304C279.215 38.645 279.29 39.5913 279.441 40.4696C279.606 41.3478 279.869 42.1277 280.23 42.8091C280.606 43.4754 281.087 43.9978 281.674 44.3763C282.275 44.7398 283.005 44.9215 283.862 44.9215C284.975 44.9215 285.893 44.6716 286.614 44.1719C287.336 43.6571 287.885 42.953 288.261 42.0596C288.652 41.1661 288.878 40.1365 288.938 38.9705V35.995C288.893 35.0411 288.758 34.1855 288.532 33.4284C288.321 32.6561 288.005 31.9975 287.585 31.4523C287.179 30.9072 286.667 30.4832 286.05 30.1804C285.449 29.8775 284.734 29.7261 283.907 29.7261C283.065 29.7261 282.343 29.9229 281.741 30.3166C281.14 30.6952 280.651 31.2176 280.275 31.8838C279.914 32.5501 279.643 33.3375 279.463 34.2461C279.298 35.1395 279.215 36.1086 279.215 37.1534Z" fill="white"/>
<path d="M65.2266 0.259766H0V65.9314H65.2266V0.259766Z" fill="#3A3A3A"/>
<path d="M25.9139 40.6409C25.9139 40.0504 25.8236 39.5204 25.6432 39.0509C25.4777 38.5664 25.1619 38.1273 24.6957 37.7336C24.2294 37.3247 23.5752 36.9235 22.733 36.5298C21.8907 36.1361 20.8004 35.7272 19.4618 35.3032C17.9729 34.8187 16.5592 34.2736 15.2206 33.6678C13.8971 33.0621 12.724 32.358 11.7013 31.5555C10.6936 30.7378 9.89654 29.7914 9.30999 28.7163C8.73845 27.6412 8.4527 26.3919 8.4527 24.9685C8.4527 23.5906 8.7535 22.3413 9.35511 21.2208C9.95666 20.0851 10.7989 19.116 11.8818 18.3135C12.9646 17.4958 14.243 16.8674 15.7169 16.4282C17.2058 15.9891 18.8376 15.7695 20.6124 15.7695C23.0338 15.7695 25.1469 16.2087 26.9516 17.087C28.7564 17.9652 30.1551 19.169 31.1477 20.6984C32.1554 22.2278 32.6592 23.9767 32.6592 25.9452H25.9364C25.9364 24.9761 25.7334 24.1282 25.3273 23.4013C24.9363 22.6594 24.3347 22.0764 23.5226 21.6523C22.7255 21.2284 21.7178 21.0164 20.4996 21.0164C19.3265 21.0164 18.3489 21.1981 17.5668 21.5615C16.7847 21.9098 16.1982 22.3868 15.8072 22.9925C15.4161 23.583 15.2206 24.2493 15.2206 24.9913C15.2206 25.5515 15.356 26.0588 15.6267 26.5131C15.9125 26.9674 16.3335 27.3913 16.89 27.785C17.4465 28.1787 18.1308 28.5497 18.9429 28.898C19.7551 29.2463 20.6951 29.587 21.7629 29.9201C23.5527 30.4653 25.1243 31.0785 26.4779 31.7599C27.8465 32.4413 28.9895 33.206 29.9069 34.054C30.8244 34.902 31.5162 35.8635 31.9824 36.9386C32.4487 38.0137 32.6818 39.2327 32.6818 40.5955C32.6818 42.034 32.4035 43.3211 31.8471 44.4568C31.2906 45.5925 30.486 46.554 29.4332 47.3414C28.3804 48.1288 27.1246 48.727 25.6657 49.1358C24.2069 49.5446 22.5751 49.7491 20.7703 49.7491C19.146 49.7491 17.5443 49.5371 15.9651 49.1131C14.3859 48.674 12.9496 48.0152 11.6562 47.137C10.3778 46.2587 9.35511 45.1382 8.58804 43.7754C7.82103 42.4126 7.4375 40.7999 7.4375 38.9374H14.228C14.228 39.9671 14.3859 40.8378 14.7017 41.5495C15.0176 42.2611 15.4612 42.8366 16.0327 43.2757C16.6193 43.7148 17.3111 44.0328 18.1083 44.2296C18.9204 44.4265 19.8077 44.5249 20.7703 44.5249C21.9434 44.5249 22.9059 44.3584 23.6579 44.0252C24.425 43.6921 24.989 43.2303 25.3499 42.6397C25.7259 42.0492 25.9139 41.3829 25.9139 40.6409ZM58.3998 43.9798V49.2948H41.8636V43.9798H58.3998ZM44.0519 16.2238V49.2948H37.284V16.2238H44.0519Z" fill="#FFF700"/>
</g>
<defs>
<clipPath id="clip0_3955_9837">
<rect width="307" height="66" fill="white" transform="translate(0 0.259766)"/>
</clipPath>
</defs>
</svg>
