<svg width="1172" height="181" viewBox="0 0 1172 181" fill="none" xmlns="http://www.w3.org/2000/svg">
  <path d="M312.454 117.073L315.732 109.632C317.921 104.602 321.86 103.289 326.888 107.006C336.517 114.009 352.264 119.262 373.271 119.262C391.215 119.262 398.869 114.67 398.869 109.194C398.869 103.066 392.528 101.315 382.024 100.002L358.176 96.947C329.514 93.23 315.072 82.94 315.072 65.002C315.072 45.751 330.827 30.431 367.359 30.431C387.705 30.431 400.835 33.495 409.365 36.773C418.77 40.49 420.083 43.554 420.083 51.218V61.062C420.083 67.19 417.895 69.379 411.768 69.379H404.988C398.861 69.379 396.673 67.19 396.673 61.062V57.775C392.734 56.462 382.891 54.497 371.298 54.497C351.174 54.497 341.323 58.213 341.323 64.341C341.323 68.933 347.227 71.559 357.945 73.095L381.355 76.159C410.017 79.876 425.112 88.415 425.112 108.98C425.112 129.982 405.203 143.336 369.762 143.336C343.726 143.336 322.727 135.019 314.411 127.364C311.356 124.514 310.918 120.79 312.454 117.073Z" fill="white"/>
  <path d="M570.66 141.577H558.628C552.724 141.577 550.751 140.701 547.91 136.324L525.16 102.843C521.882 98.251 519.471 97.153 512.692 97.153H489.942V133.26C489.942 139.388 487.754 141.577 481.627 141.577H472.874C466.747 141.577 464.558 139.388 464.558 133.26V24.517H456.466C450.339 24.517 448.151 22.329 448.151 16.201V8.98302C448.151 2.85502 450.339 0.666016 456.466 0.666016H481.627C487.754 0.666016 489.942 2.85502 489.942 8.98302V72.658H510.289C517.068 72.658 519.479 71.567 522.758 66.967L541.791 37.649C544.855 33.057 546.82 32.181 552.732 32.181H564.764C571.328 32.181 572.641 37.434 568.917 42.901L547.695 75.069C545.507 78.133 542.881 81.412 540.255 84.038C542.881 86.227 546.597 89.943 548.133 92.132L574.821 131.08C578.537 136.333 577.224 141.577 570.66 141.577Z" fill="white"/>
  <path d="M612.079 161.712V154.494C612.079 148.366 614.268 146.177 620.395 146.177H630.898C637.24 146.177 640.304 144.864 642.715 139.834L644.028 136.993L593.929 42.249C590.866 36.559 593.269 32.181 599.833 32.181H611.212C617.117 32.181 619.742 33.272 621.931 37.434L642.93 80.536C647.744 90.381 653.21 101.761 657.587 111.606C661.963 101.976 666.992 91.042 671.806 81.412L693.243 37.434C695.208 33.28 698.057 32.181 703.961 32.181H715.34C721.905 32.181 724.308 36.559 721.244 42.249L664.143 150.562C657.578 163.033 649.924 170.036 632.855 170.036H620.387C614.268 170.028 612.079 167.84 612.079 161.712Z" fill="white"/>
  <path d="M861.061 86.441V89.068C861.061 95.196 858.873 97.384 852.746 97.384H763.044C766.107 108.98 777.701 120.137 802.424 120.137C824.521 120.137 834.587 112.919 839.179 109.632C844.207 105.916 847.709 107.22 850.334 112.258L854.05 119.476C856.016 123.193 854.926 126.042 851.639 128.883C846.825 133.037 830.417 143.328 802.416 143.328C764.786 143.328 738.536 121.227 738.536 86.656C738.536 52.737 763.696 30.422 799.79 30.422C835.9 30.422 861.061 52.523 861.061 86.441ZM763.044 76.159H836.776C833.935 64.779 822.333 54.059 799.798 54.059C777.263 54.059 765.884 64.779 763.044 76.159Z" fill="white"/>
  <path d="M1020.6 82.717V133.26C1020.6 139.388 1018.41 141.577 1012.28 141.577H1003.53C997.402 141.577 995.213 139.388 995.213 133.26V83.369C995.213 65.646 984.71 56.016 966.989 56.016C953.207 56.016 936.799 64.547 928.699 73.516V133.252C928.699 139.38 926.51 141.569 920.383 141.569H911.63C905.503 141.569 903.315 139.38 903.315 133.252V56.016H895.222C889.095 56.016 886.907 53.828 886.907 47.7V40.481C886.907 34.353 889.095 32.165 895.222 32.165H916.444C922.571 32.165 924.76 34.353 924.76 40.481V46.609C936.576 36.98 952.546 30.414 969.829 30.414C1002.65 30.422 1020.6 49.896 1020.6 82.717Z" fill="white"/>
  <path d="M1171.65 40.49V142.898C1171.65 165.651 1147.15 180.533 1115.86 180.533C1086.33 180.533 1072.33 171.779 1065.98 165.874C1062.92 163.033 1062.48 159.308 1064.01 155.592L1067.28 148.151C1069.7 142.683 1073.63 141.585 1078.44 145.525C1086.1 151.652 1093.54 156.682 1115.63 156.905C1135.32 156.905 1146.26 149.687 1146.26 140.933V130.428C1138.38 135.457 1128.75 138.744 1114.97 138.744C1079.53 138.744 1055.02 117.957 1055.02 84.699C1055.02 51.441 1079.52 30.431 1114.97 30.431C1130.28 30.431 1140.35 34.808 1147.14 40.06C1148.89 36.344 1152.39 32.181 1156.76 32.181H1163.33C1169.46 32.173 1171.65 34.362 1171.65 40.49ZM1146.28 102.199V67.19C1140.15 59.749 1131.18 55.157 1114.99 55.157C1095.52 55.157 1081.3 66.315 1081.3 84.699C1081.3 103.083 1095.52 114.017 1114.99 114.017C1130.96 114.009 1139.93 109.417 1146.28 102.199Z" fill="white"/>
  <path d="M31.6477 166.881C13.2303 177.451 7.13042e-06 168.642 6.38122e-06 152.975C5.58367e-06 136.296 3.19061e-06 86.25 3.19061e-06 86.25C3.19061e-06 86.25 7.97555e-07 36.204 0 19.525C-7.49196e-07 3.85802 13.2221 -4.95097 31.6477 5.61903C60.3325 22.078 146.379 71.471 146.379 71.471C157.82 78.037 157.82 94.455 146.379 101.021C146.379 101.029 60.3325 150.422 31.6477 166.881Z" fill="#00C1FF"/>
  <path d="M126.364 166.881C107.946 177.451 94.7163 168.642 94.7163 152.975C94.7163 136.296 94.7163 86.25 94.7163 86.25C94.7163 86.25 94.7163 36.204 94.7163 19.525C94.7163 3.85802 107.938 -4.95097 126.364 5.61903C154.417 21.719 238.575 70.028 238.575 70.028C251.141 77.238 251.141 95.262 238.575 102.472C238.567 102.472 154.417 150.781 126.364 166.881Z" fill="#6FE4FF"/>
  <mask id="mask0_3072_7477" style="mask-type:alpha" maskUnits="userSpaceOnUse" x="94" y="1" width="154" height="171">
    <path d="M126.364 166.881C107.946 177.451 94.7163 168.642 94.7163 152.975C94.7163 136.296 94.7163 86.25 94.7163 86.25C94.7163 86.25 94.7163 36.204 94.7163 19.525C94.7163 3.85802 107.938 -4.95097 126.364 5.61903C154.417 21.719 238.575 70.028 238.575 70.028C251.141 77.238 251.141 95.262 238.575 102.472C238.567 102.472 154.417 150.781 126.364 166.881Z" fill="#6FE4FF"/>
  </mask>
  <g mask="url(#mask0_3072_7477)">
    <path d="M31.6477 166.881C13.2303 177.451 7.13042e-06 168.642 6.38122e-06 152.975C5.58367e-06 136.296 3.19061e-06 86.25 3.19061e-06 86.25C3.19061e-06 86.25 7.97555e-07 36.204 0 19.525C-7.49196e-07 3.85802 13.2221 -4.95097 31.6477 5.61903C60.3325 22.078 146.379 71.471 146.379 71.471C157.82 78.037 157.82 94.455 146.379 101.021C146.379 101.021 60.3325 150.422 31.6477 166.881Z" fill="#009EE4"/>
  </g>
</svg>
