<?xml version="1.0" encoding="UTF-8"?> <svg xmlns="http://www.w3.org/2000/svg" width="146" height="26" viewBox="0 0 146 26" fill="none"><g clip-path="url(#clip0_642_1130)"><path fill-rule="evenodd" clip-rule="evenodd" d="M31.8047 0.25708V15.822C31.8047 19.524 33.5715 20.7299 36.2077 20.7299C37.5539 20.7299 38.6196 20.4214 39.5171 19.7764L38.6477 17.084C38.1709 17.2243 37.7222 17.3365 37.2735 17.3365C36.1236 17.3365 35.5347 16.7195 35.5347 15.0929V0.25708H31.8047ZM40.1719 13.1858C40.1719 8.69861 43.1447 5.52953 47.9123 5.52953C52.68 5.52953 55.3162 8.81079 55.3162 12.9053C55.3162 13.5223 55.2601 14.0271 55.176 14.4759H43.9861C44.4067 16.411 45.8651 17.701 48.9781 17.701C50.8571 17.701 52.3995 17.2243 53.7457 16.7195L54.587 19.4679C52.8763 20.3092 50.9132 20.8701 48.6415 20.8701C43.1447 20.8701 40.1719 17.673 40.1719 13.1858ZM43.9861 11.7555H51.5862C51.2216 9.8765 50.0438 8.67056 47.8843 8.67056C45.6968 8.67056 44.3787 9.8765 43.9861 11.7555ZM137.579 5.52953C132.812 5.52953 129.839 8.69861 129.839 13.1858C129.839 17.673 132.812 20.8701 138.309 20.8701C140.58 20.8701 142.543 20.3092 144.254 19.4679L143.413 16.7195C142.067 17.2243 140.524 17.701 138.645 17.701C135.532 17.701 134.074 16.411 133.653 14.4759H144.843C144.927 14.0271 144.983 13.5223 144.983 12.9053C144.983 8.81079 142.347 5.52953 137.579 5.52953ZM141.253 11.7555H133.653C134.046 9.8765 135.364 8.67056 137.551 8.67056C139.711 8.67056 140.889 9.8765 141.253 11.7555ZM114.612 5.95021H111.892V26.0584H115.65V19.2155C116.912 20.2531 118.538 20.8421 120.445 20.8421C124.708 20.8421 127.737 17.673 127.737 13.1858C127.737 8.69862 124.708 5.52954 120.445 5.52954C118.314 5.52954 116.491 6.25871 115.201 7.54878L114.612 5.95021ZM119.744 17.5328C117.276 17.5328 115.481 15.8501 115.481 13.1858C115.481 10.5496 117.276 8.86689 119.744 8.86689C122.184 8.86689 123.979 10.5496 123.979 13.1858C123.979 15.8501 122.184 17.5328 119.744 17.5328ZM101.266 17.4767C103.706 17.4767 105.417 15.8501 105.417 13.1858C105.417 10.5496 103.706 8.89493 101.266 8.89493C98.8265 8.89493 97.1438 10.5496 97.1438 13.1858C97.1438 15.8501 98.8265 17.4767 101.266 17.4767ZM93.3857 13.1858C93.3857 8.64253 96.5829 5.52954 101.266 5.52954C105.95 5.52954 109.175 8.64253 109.175 13.1858C109.175 17.7571 105.95 20.8421 101.266 20.8421C96.5829 20.8421 93.3857 17.7571 93.3857 13.1858ZM56.9004 19.0752C58.3587 19.8885 60.7145 20.8421 63.8275 20.8421C67.894 20.8421 69.9413 19.2716 69.9413 16.411C69.9413 12.7419 66.5872 12.0636 63.9609 11.5324C62.2712 11.1906 60.8828 10.9098 60.8828 9.9326C60.8828 8.92298 62.3411 8.64253 63.6312 8.64253C65.3419 8.64253 67.1929 9.09125 68.6232 9.68019L69.4926 6.81961C68.1745 6.20262 66.2674 5.52954 63.547 5.52954C59.4244 5.52954 57.293 7.07201 57.293 9.9326C57.293 13.439 60.5139 14.1023 63.1204 14.639C64.8919 15.0039 66.3796 15.3102 66.3796 16.411C66.3796 17.1121 65.7906 17.7291 63.7153 17.7291C61.1632 17.7291 59.0038 16.7756 57.9661 16.2708L56.9004 19.0752ZM14.208 13.1858C14.208 8.69862 17.1808 5.52954 21.9484 5.52954C26.7161 5.52954 29.3523 8.8108 29.3523 12.9054C29.3523 13.5223 29.2962 14.0272 29.2121 14.4759H18.0221C18.4428 16.411 19.9011 17.701 23.0141 17.701C24.8931 17.701 26.4356 17.2243 27.7818 16.7195L28.6231 19.4679C26.9124 20.3092 24.9492 20.8701 22.6776 20.8701C17.1808 20.8701 14.208 17.673 14.208 13.1858ZM18.0221 11.7555H25.6223C25.2577 9.87651 24.0798 8.67057 21.9204 8.67057C19.7329 8.67057 18.4148 9.87651 18.0221 11.7555ZM4.07904 2.41654L3.79859 4.49187C3.65836 5.58562 3.32182 5.9502 2.25611 5.9502H0.292969V9.3156H3.40596V14.9807C3.40596 18.9631 5.56542 20.786 9.04299 20.786C10.894 20.786 12.2962 20.2812 13.1376 19.7203L12.2962 16.9158C11.6512 17.1682 10.8379 17.4206 9.8002 17.4206C8.11751 17.4206 7.16398 16.8036 7.16398 14.7002V9.3156H12.5767V5.9502H7.16398V2.41654H4.07904Z" fill="white"></path><path d="M87.6794 3.18932C87.9679 3.44841 88.6115 8.10014 85.4136 11.2149C84.1835 9.31108 82.9045 8.7584 81.2267 8.7584C79.2508 8.7584 76.6529 10.2493 76.6529 13.4604C76.6529 15.8817 78.671 17.8179 81.2267 17.8179C83.7222 17.8179 84.5872 16.5315 85.3389 15.8042C86.0056 15.159 87.5186 13.8125 89.3641 13.8125C91.9866 13.8125 92.799 16.592 92.799 17.369C92.4957 17.2598 90.65 15.9296 88.0652 18.5923C87.0081 19.6812 84.9999 21.8054 81.2267 21.8054C78.148 21.8054 72.7481 19.3797 72.748 13.8027C72.748 9.59163 74.7889 7.7106 74.7889 7.7106C74.7889 7.7106 74.2873 3.44171 74.8219 3.18932C75.5343 2.85299 78.4246 5.25083 78.4246 5.25083C78.4246 5.25083 81.2659 4.07775 84.1016 5.25083C85.4717 3.71241 87.5219 3.04797 87.6794 3.18932Z" fill="#FF7A00"></path></g><defs><clipPath id="clip0_642_1130"><rect width="145.191" height="26" fill="white"></rect></clipPath></defs></svg> 