<svg width="337" height="93" viewBox="0 0 337 93" fill="none" xmlns="http://www.w3.org/2000/svg">
<mask id="mask0_4013_10640" style="mask-type:luminance" maskUnits="userSpaceOnUse" x="1" y="0" width="334" height="92">
<path d="M334.972 0.669922H1.17188V91.7958H334.972V0.669922Z" fill="white"/>
</mask>
<g mask="url(#mask0_4013_10640)">
<mask id="mask1_4013_10640" style="mask-type:luminance" maskUnits="userSpaceOnUse" x="1" y="0" width="334" height="92">
<path d="M334.972 0.669922H1.17188V91.7958H334.972V0.669922Z" fill="white"/>
</mask>
<g mask="url(#mask1_4013_10640)">
<path d="M68.6133 78.2558C67.8604 78.772 67.1077 79.2465 66.3271 79.7209C64.9051 80.5578 63.3995 81.2973 61.8658 81.981C59.454 83.0135 56.931 83.7949 54.3238 84.3529C51.717 84.8691 49.1101 85.1482 46.5031 85.1482C41.2475 85.1482 36.187 84.1156 31.5725 82.1762C26.7908 80.1952 22.4831 77.3071 18.8863 73.7075C11.8183 66.6338 7.46875 56.8534 7.46875 46.0684C7.46875 40.8084 8.50039 35.7436 10.4382 31.1535C12.4178 26.3262 15.3035 22.0149 18.9003 18.4153C22.497 14.8575 26.8047 11.9276 31.5864 9.94641C36.2149 8.04891 41.2614 6.97461 46.5172 6.97461C51.7728 6.97461 56.8334 8.04891 61.4198 9.94641C66.2434 11.9276 70.5512 14.8436 74.1478 18.4153C81.2159 25.4889 85.5654 35.2693 85.5654 46.0545C85.5654 48.51 85.3285 50.9936 84.8545 53.4071C84.3806 55.8626 83.6695 58.2346 82.7633 60.5644C81.8989 62.7411 80.8254 64.8339 79.5989 66.8151C78.8042 68.0847 77.9398 69.3127 77.0336 70.4566L80.9789 82.0508L68.6551 78.2558H68.6133Z" fill="white"/>
<path d="M20.0703 70.4309C20.779 71.2991 21.5294 72.1392 22.3215 72.8953C29.0614 79.6861 38.3577 83.8866 48.6412 83.8866C53.7688 83.8866 58.7715 82.8504 63.3295 80.8762C64.3996 80.4001 65.414 79.9241 66.4423 79.3641L47.3766 73.4132L58.1741 65.9505L68.3322 70.6269L63.9548 62.2541C61.1616 61.974 58.5632 61.0639 56.2284 59.6778C53.2686 57.8854 50.8368 55.3513 49.1831 52.2989L52.7266 57.0174C54.1856 59.5938 61.4257 60.742 63.9548 62.2541C66.4423 63.7243 63.7604 59.6358 66.7898 59.6358H76.7535V44.0799H76.4339C73.9462 44.0799 72.0286 43.086 70.6809 41.5037C69.2217 39.8373 68.5128 37.4992 68.5128 35.0348V34.7129H47.4739C47.2376 36.183 46.5289 37.4851 45.5422 38.4795C44.2777 39.7535 42.5545 39.9916 40.6646 39.9916C38.7748 39.9916 40.748 39.7535 39.525 38.4795C38.4969 37.4851 37.8298 36.183 37.5936 34.7129H28.8945C26.4488 34.7129 24.2532 35.707 22.6688 37.3311C21.057 38.9132 20.0703 41.1395 20.0703 43.5619V57.0594C20.0703 59.5238 21.057 61.7361 22.6688 63.3322C24.2393 64.9563 26.4488 65.9505 28.8945 65.9505C31.3402 65.9505 33.5081 64.9563 35.0784 63.3322C36.6904 61.7502 37.677 59.5238 37.677 57.0594V43.5619H40.3589V57.0594C40.3589 60.2797 39.0946 63.1782 37.01 65.2364C34.9255 67.3367 32.0489 68.6527 28.8945 68.6527C25.7399 68.6527 22.8217 67.3367 20.779 65.2364C20.5428 64.9984 20.3065 64.7603 20.0703 64.5222V70.4309Z" fill="#FECC00"/>
<path d="M63.9421 51.1693C63.1078 51.1693 62.4403 51.8375 62.4403 52.6728C62.4403 53.5078 63.1078 54.176 63.9421 54.176C64.7765 54.176 65.4441 53.5078 65.4441 52.6728C65.4441 51.8375 64.7765 51.1693 63.9421 51.1693ZM76.9161 67.6222C78.6127 65.2141 80.0309 62.6112 81.1295 59.8828C82.8678 55.5401 83.7717 50.8492 83.7717 46.0332C83.7717 35.7328 79.5999 26.4207 72.8557 19.6698C66.1114 12.919 56.8086 8.74317 46.5182 8.74317C36.2281 8.74317 26.9252 12.919 20.181 19.6698C13.4367 26.4207 9.26499 35.7328 9.26499 46.0332C9.26499 53.494 11.4343 60.4675 15.2166 66.3136V56.6537V43.2354C15.2166 40.0755 16.5238 37.1944 18.6096 35.1064C20.6954 33.0184 23.5739 31.7519 26.7305 31.7519H35.5608C35.8388 30.4851 36.5063 29.3438 37.3683 28.4391C38.6339 27.1723 40.358 26.4207 42.2493 26.4207C43.32 26.4207 44.2934 26.6574 45.2113 27.0889C45.7257 26.7688 46.2402 26.5739 46.7825 26.4207C47.3806 26.2677 47.9645 26.1842 48.5903 26.1842C50.4813 26.1842 52.2198 26.9357 53.4433 28.2022C54.3889 29.1489 55.0566 30.3739 55.3346 31.7519H72.4387C73.7735 31.7519 74.9971 32.267 75.8733 33.1717C76.7771 34.0347 77.3333 35.2595 77.3333 36.6097V61.943H74.9694L76.9022 67.6222H76.9161ZM17.9421 69.9467C18.6513 70.8095 19.4022 71.6448 20.1949 72.3964C26.939 79.1474 36.2422 83.3232 46.5322 83.3232C51.6633 83.3232 56.6277 82.2931 61.2306 80.3305C62.3013 79.8572 63.3163 79.3841 64.3454 78.8273L45.2251 72.9114L58.5049 63.7941L65.6387 67.8587L61.8561 61.8178C59.0611 61.5393 56.4191 60.6344 54.1247 59.2566C51.1629 57.4747 48.6877 54.9556 47.0328 51.9209L49.3968 50.6543C50.8152 53.2155 52.9429 55.4287 55.4736 56.932C57.9627 58.3934 60.7995 59.2148 63.8726 59.2148H74.6355V43.7503H74.3577C71.8405 43.7503 69.9078 42.7621 68.5589 41.1892C67.1405 39.5328 66.3896 37.2083 66.3896 34.7586C66.3896 34.6333 66.3896 34.5635 66.4314 34.4385H49.0491C48.8128 35.8999 48.1453 37.1944 47.158 38.1827C45.8926 39.4493 44.1683 40.2289 42.277 40.2289C40.3859 40.2289 38.6477 39.4354 37.3962 38.1827C36.4089 37.1944 35.6996 35.8999 35.4634 34.4385H26.7585C24.3527 34.4385 22.1416 35.4266 20.5286 37.0414C18.9573 38.614 17.9699 40.8273 17.9699 43.2354V56.6537C17.9699 59.1034 18.9573 61.3028 20.5286 62.8895C22.1416 64.5041 24.3527 65.4924 26.7585 65.4924C29.1642 65.4924 31.3749 64.5041 32.9881 62.8895C34.5594 61.3165 35.5467 59.1034 35.5467 56.6537V43.2354H38.2723V56.6537C38.2723 59.855 36.9649 62.7365 34.8794 64.7826C32.7935 66.8706 29.9149 68.1788 26.7585 68.1788C23.6018 68.1788 20.7233 66.8706 18.6374 64.7826C18.401 64.546 18.1646 64.3093 17.9699 64.0728V69.9467H17.9421ZM74.3157 81.9034C71.2842 84.2698 67.933 86.2462 64.387 87.7495C58.7831 90.1576 52.7203 91.4521 46.5322 91.4521C34.0034 91.4521 22.684 86.3574 14.4518 78.1591C6.24745 69.9188 1.17188 58.5884 1.17188 46.0471C1.17188 33.5057 6.26135 22.1754 14.4518 13.9629C22.684 5.72264 34.0034 0.669922 46.5322 0.669922C59.0611 0.669922 70.3805 5.72264 78.585 13.9629C86.8171 22.1754 91.8648 33.4918 91.8648 46.0471C91.8648 51.8514 90.7663 57.5722 88.6386 62.8895C86.6222 67.9424 83.7161 72.5915 80.0032 76.6558L82.687 84.4647L74.3296 81.9034H74.3157ZM65.0963 61.943L73.6066 75.5562L58.6302 66.9957L51.3437 72.0067L78.4181 80.3305L72.1466 61.943H65.0963ZM52.5673 31.7519C52.3726 31.1255 52.011 30.5687 51.5801 30.1372C50.8291 29.3438 49.7722 28.8706 48.6182 28.8706C48.2566 28.8706 47.9505 28.9124 47.6307 28.9959C48.2566 29.7893 48.7293 30.7358 48.9657 31.7519H52.5534H52.5673ZM43.7372 32.4619C45.0443 32.4619 46.0596 33.4918 46.0596 34.7863C46.0596 34.9116 46.0596 35.0648 46.0178 35.176C46.2958 34.6192 46.4489 33.9929 46.4489 33.3247C46.4489 32.1416 45.976 31.1116 45.2251 30.3321C44.474 29.5804 43.4174 29.1073 42.2631 29.1073C41.1091 29.1073 40.0521 29.5804 39.3014 30.3321C38.5087 31.1255 38.0358 32.1416 38.0358 33.3247C38.0358 34.508 38.5087 35.5379 39.3014 36.2896C40.0521 37.0414 41.0812 37.5145 42.2631 37.5145C42.9307 37.5145 43.5285 37.3613 44.1124 37.0828C43.9596 37.1246 43.8344 37.1246 43.7231 37.1246C42.4162 37.1246 41.3592 36.0947 41.3592 34.8004C41.3592 33.5057 42.4301 32.4757 43.7231 32.4757L43.7372 32.4619ZM54.9312 23.3028C53.5128 22.746 52.0528 22.4677 50.5926 22.4398C49.1326 22.3981 47.7142 22.593 46.421 23.0661L45.9065 23.2193L45.4336 23.0245C44.1683 22.4259 42.7917 22.1615 41.3733 22.1197C39.9133 22.0778 38.4113 22.3145 36.9931 22.7878L36.1307 20.2267C37.8691 19.6281 39.6768 19.3915 41.4566 19.4332C43.0281 19.475 44.5715 19.7951 46.0315 20.3379C47.5334 19.9065 49.1049 19.7116 50.676 19.7395C52.4562 19.7812 54.1805 20.1292 55.8768 20.7694L54.9312 23.2889V23.3028ZM68.2112 46.3394C67.3767 46.3394 66.7094 47.0074 66.7094 47.8427C66.7094 48.6778 67.3767 49.3459 68.2112 49.3459C69.0454 49.3459 69.7132 48.6778 69.7132 47.8427C69.7132 47.0074 69.0454 46.3394 68.2112 46.3394ZM59.7009 46.3394C58.8665 46.3394 58.1991 47.0074 58.1991 47.8427C58.1991 48.6778 58.8665 49.3459 59.7009 49.3459C60.5352 49.3459 61.2027 48.6778 61.2027 47.8427C61.2027 47.0074 60.5352 46.3394 59.7009 46.3394Z" fill="black"/>
<path d="M310.259 61.1924C309.94 61.1924 309.705 61.1091 309.468 60.8729C309.275 60.6784 309.148 60.4005 309.148 60.1226V32.0432C309.148 31.7237 309.275 31.4458 309.468 31.2514C309.663 31.0567 309.94 30.9316 310.259 30.9316H322.143C325.92 30.9316 328.917 31.7931 331.042 33.53C333.208 35.2667 334.262 37.6703 334.262 40.8102C334.262 42.8248 333.792 44.5478 332.888 45.9648C331.944 47.382 330.641 48.4797 328.987 49.2299L334.847 59.789C334.927 59.9837 334.969 60.1504 334.969 60.2616C334.969 60.4978 334.889 60.7341 334.692 60.8869C334.542 61.0812 334.305 61.1646 334.07 61.1646H327.975C327.141 61.1646 326.557 60.8035 326.195 60.0253L321.434 50.6193H317.298V60.1088C317.298 60.4281 317.174 60.7062 316.939 60.9006C316.742 61.0953 316.464 61.1785 316.147 61.1785H310.245L310.259 61.1924ZM322.101 44.2975C323.323 44.2975 324.269 43.9781 324.934 43.3528C325.558 42.7554 325.878 41.8938 325.878 40.7963C325.878 39.6986 325.558 38.8233 324.934 38.1566C324.269 37.4898 323.323 37.1701 322.101 37.1701H317.298V44.2975H322.101Z" fill="white"/>
<path d="M290.105 61.1924C289.786 61.1924 289.507 61.1091 289.272 60.9147C289.075 60.7202 288.95 60.4423 288.95 60.123V38.0005H281.335C281.015 38.0005 280.738 37.8754 280.541 37.681C280.306 37.4866 280.18 37.2089 280.18 36.8894V32.0428C280.18 31.7233 280.306 31.4454 280.541 31.2512C280.738 31.0567 281.015 30.9316 281.335 30.9316H304.848C305.167 30.9316 305.446 31.0567 305.681 31.2512C305.878 31.4454 306.003 31.7233 306.003 32.0428V36.8894C306.003 37.2089 305.878 37.4866 305.681 37.681C305.446 37.8754 305.167 38.0005 304.848 38.0005H297.234V60.123C297.234 60.4423 297.108 60.7202 296.911 60.9147C296.676 61.1091 296.399 61.1924 296.077 61.1924H290.077H290.105Z" fill="white"/>
<path d="M256.081 61.1646C255.766 61.1646 255.533 61.0816 255.3 60.8455C255.109 60.6511 254.984 60.3736 254.984 60.0959V32.0422C254.984 31.7231 255.109 31.4452 255.3 31.2512C255.491 31.0567 255.766 30.9316 256.081 30.9316H276.217C276.533 30.9316 276.808 31.0567 276.999 31.2512C277.232 31.4452 277.314 31.7231 277.314 32.0422V36.3314C277.314 36.6507 277.232 36.9284 276.999 37.1226C276.808 37.3171 276.533 37.4003 276.217 37.4003H262.72V42.911H275.285C275.601 42.911 275.874 43.0359 276.065 43.2303C276.298 43.4664 276.382 43.7025 276.382 44.0216V47.95C276.382 48.2691 276.298 48.5468 276.065 48.7827C275.874 48.9771 275.601 49.102 275.285 49.102H262.72V54.7239H276.559C276.874 54.7239 277.109 54.8072 277.342 55.043C277.533 55.2375 277.658 55.5152 277.658 55.8343V60.1234C277.658 60.443 277.533 60.7204 277.342 60.9149C277.109 61.1091 276.874 61.1924 276.559 61.1924H256.067L256.081 61.1646Z" fill="white"/>
<path d="M191.835 61.1646C191.554 61.1646 191.271 61.0816 191.074 60.8455C190.835 60.6511 190.75 60.3736 190.75 60.0959V32.0422C190.75 31.7231 190.835 31.4452 191.032 31.2512C191.229 31.0567 191.511 30.9316 191.835 30.9316H212.531C212.855 30.9316 213.136 31.0567 213.377 31.2512C213.574 31.4452 213.701 31.7231 213.701 32.0422V36.3314C213.701 36.6507 213.574 36.9284 213.377 37.1226C213.136 37.3171 212.855 37.4003 212.531 37.4003H198.659V42.911H211.571C211.897 42.911 212.178 43.0359 212.417 43.2303C212.616 43.4664 212.742 43.7439 212.742 44.0216V47.95C212.742 48.2691 212.616 48.5468 212.417 48.7827C212.178 48.9771 211.897 49.102 211.571 49.102H198.659V54.7239H212.883C213.206 54.7239 213.49 54.8072 213.686 55.043C213.925 55.2375 214.052 55.5152 214.052 55.8343V60.1234C214.052 60.443 213.925 60.7204 213.686 60.9149C213.49 61.1091 213.206 61.1924 212.883 61.1924H191.821L191.835 61.1646Z" fill="white"/>
<path d="M165.987 61.1785C165.712 61.1785 165.438 61.0952 165.245 60.859C165.012 60.6645 164.93 60.3871 164.93 60.1092V32.0012C164.93 31.6817 165.053 31.4454 165.245 31.2095C165.438 31.0151 165.712 30.9316 165.987 30.9316H171.985C172.3 30.9316 172.575 31.0151 172.767 31.2095C172.959 31.4454 173.041 31.6817 173.041 32.0012V54.4014H185.875C186.191 54.4014 186.465 54.5265 186.657 54.7209C186.891 54.957 186.973 55.2346 186.973 55.5542V60.123C186.973 60.4423 186.891 60.7202 186.657 60.9147C186.465 61.1091 186.191 61.1924 185.875 61.1924H165.987V61.1785Z" fill="white"/>
<path d="M138.267 61.1646C137.993 61.1646 137.718 61.0816 137.527 60.8455C137.334 60.6511 137.211 60.3736 137.211 60.0959V32.0422C137.211 31.7231 137.293 31.4452 137.485 31.2512C137.718 31.0567 137.952 30.9316 138.267 30.9316H158.444C158.759 30.9316 158.993 31.0567 159.226 31.2512C159.418 31.4452 159.541 31.7231 159.541 32.0422V36.3314C159.541 36.6507 159.418 36.9284 159.226 37.1226C158.993 37.3171 158.759 37.4003 158.444 37.4003H144.947V42.911H157.47C157.785 42.911 158.06 43.0359 158.293 43.2303C158.485 43.4664 158.608 43.7439 158.608 44.0216V47.95C158.608 48.2691 158.485 48.5468 158.293 48.7827C158.06 48.9771 157.785 49.102 157.47 49.102H144.947V54.7239H158.746C159.061 54.7239 159.335 54.8072 159.569 55.043C159.76 55.2375 159.884 55.5152 159.884 55.8343V60.1234C159.884 60.443 159.76 60.7204 159.569 60.9149C159.335 61.1091 159.061 61.1924 158.746 61.1924H138.253L138.267 61.1646Z" fill="white"/>
<path d="M117.517 61.1924C117.196 61.1924 116.917 61.1091 116.722 60.9147C116.485 60.7202 116.401 60.4423 116.401 60.123V38.0005H108.733C108.412 38.0005 108.133 37.8754 107.938 37.681C107.701 37.4866 107.617 37.2089 107.617 36.8894V32.0428C107.617 31.7233 107.701 31.4454 107.938 31.2512C108.133 31.0567 108.412 30.9316 108.733 30.9316H132.324C132.645 30.9316 132.882 31.0567 133.119 31.2512C133.314 31.4454 133.44 31.7233 133.44 32.0428V36.8894C133.44 37.2089 133.314 37.4866 133.119 37.681C132.882 37.8754 132.645 38.0005 132.324 38.0005H124.655V60.123C124.655 60.4423 124.53 60.7202 124.335 60.9147C124.14 61.1091 123.861 61.1924 123.54 61.1924H117.489H117.517Z" fill="white"/>
<path d="M219.57 61.1924C219.249 61.1924 218.969 61.1091 218.775 60.9147C218.535 60.72 218.453 60.4422 218.453 60.1226V32.0432C218.453 31.7237 218.535 31.4458 218.775 31.2514C218.969 31.0567 219.249 30.9316 219.57 30.9316H224.473C225.227 30.9316 225.745 31.2514 226.052 31.8765L233.539 45.1868L241.068 31.8765C241.392 31.2514 241.908 30.9316 242.621 30.9316H247.522C247.846 30.9316 248.125 31.0567 248.362 31.2514C248.557 31.4458 248.684 31.7237 248.684 32.0432V60.1226C248.684 60.4422 248.557 60.72 248.362 60.9147C248.125 61.1091 247.846 61.1924 247.522 61.1924H243.402C243.123 61.1924 242.844 61.1091 242.649 60.9147C242.454 60.72 242.328 60.4422 242.328 60.1645V48.2713H238.848V60.1645C238.848 60.4422 238.724 60.72 238.527 60.9147C238.33 61.1091 238.053 61.1924 237.774 61.1924H236.5C236.181 61.1924 235.944 61.1091 235.705 60.9147C235.51 60.72 235.383 60.4422 235.383 60.1645V54.176H231.934V60.1645C231.934 60.4422 231.808 60.72 231.613 60.9147C231.374 61.1091 231.137 61.1924 230.815 61.1924H229.586C229.264 61.1924 228.985 61.1091 228.79 60.9147C228.594 60.72 228.469 60.4422 228.469 60.1645V50.2441H224.99V60.1645C224.99 60.4422 224.905 60.72 224.668 60.9147C224.473 61.1091 224.194 61.1924 223.915 61.1924H219.514H219.57Z" fill="white"/>
</g>
</g>
</svg>
