<svg width="245" height="56" viewBox="0 0 245 56" fill="none" xmlns="http://www.w3.org/2000/svg">
<g clip-path="url(#clip0_3728_9727)">
<path d="M52.5453 48.5092L40.9933 36.9572C42.8459 35.1046 44.2467 32.8923 45.2493 30.4718C46.2519 28.0514 46.8706 25.3904 46.8706 22.7705C46.8706 20.1506 46.2519 17.6924 45.2493 15.2718C44.2467 12.8513 42.8459 10.6391 40.9933 8.78651C39.1407 6.93394 36.9284 5.33046 34.508 4.32785C32.0875 3.32523 29.4265 2.90918 26.8066 2.90918C24.1868 2.90918 21.7284 3.32523 19.308 4.32785C16.8875 5.33046 14.6752 6.93394 12.8226 8.78651C9.0812 12.528 6.94531 17.4793 6.94531 22.7705" stroke="white" stroke-width="5.70845" stroke-linecap="round" stroke-linejoin="round"/>
<path d="M27.6268 20.6086C29.2139 19.8008 30.9603 21.0316 31.0359 22.8108L32.519 51.0473C32.6132 53.2734 29.8902 54.6351 28.3118 53.0649C28.3118 53.0649 18.7815 45.5447 18.8016 43.5957C18.8218 41.6468 25.4822 28.499 25.4299 28.467C25.3778 28.435 17.5067 40.4916 15.9192 41.6975C14.3317 42.9033 2.68679 38.2702 2.68679 38.2702C0.581136 37.5197 0.350813 34.6256 2.33043 33.618L27.6268 20.6086Z" fill="#5D87FF"/>
<path d="M222.609 34.3861H227.625C227.96 37.0613 229.899 39.0677 233.645 39.0677C237.055 39.0677 238.995 37.0613 238.995 34.7205C238.995 27.9656 223.278 33.1154 223.278 21.6788C223.278 17.0641 227.291 12.9844 233.31 12.9844C239.731 12.9844 243.342 16.6628 243.677 22.0132H238.661C238.326 19.338 236.721 17.666 233.31 17.666C230.301 17.666 228.294 19.6055 228.294 21.6788C228.294 28.4338 244.011 23.3508 244.011 34.7205C244.011 39.7365 239.998 43.7493 233.645 43.7493C226.957 43.7493 222.944 39.7365 222.609 34.3861Z" fill="white"/>
<path d="M206.921 39.0677C211.937 39.0677 216.284 34.7874 216.284 28.3669C216.284 21.9463 211.937 17.666 206.921 17.666C201.905 17.666 197.558 21.9463 197.558 28.3669C197.558 34.7874 201.905 39.0677 206.921 39.0677ZM193.211 54.1157V13.3188H196.889L198.227 16.6628C198.829 15.994 199.631 15.3921 200.501 14.857C202.039 13.8538 204.246 12.9844 207.256 12.9844C215.014 12.9844 221.3 19.338 221.3 28.3669C221.3 37.3957 215.014 43.7493 207.256 43.7493C204.246 43.7493 202.039 42.7461 200.501 41.7429C199.631 41.141 198.829 40.4722 198.227 39.7365V54.1157H193.211Z" fill="white"/>
<path d="M184.523 43.4149L183.186 40.0709C182.517 40.8066 181.781 41.4085 180.912 41.9435C179.374 42.9467 177.167 43.7493 174.157 43.7493C168.138 43.7493 164.125 39.7365 164.125 34.7205C164.125 29.0357 168.138 25.0229 183.186 25.0229V23.3508C183.186 20.3412 180.577 17.666 176.832 17.666C173.087 17.666 171.549 19.338 170.813 22.0132H165.463C166.198 16.9972 170.144 12.9844 176.832 12.9844C183.52 12.9844 188.202 17.7329 188.202 23.3508V43.4149H184.523ZM183.186 32.0453V29.7045C171.147 29.7045 169.141 31.7109 169.141 35.0549C169.141 37.1282 171.147 39.0677 174.157 39.0677C179.507 39.0677 183.186 35.3893 183.186 32.0453Z" fill="white"/>
<path d="M120.672 43.4149V13.3188H124.35L125.688 16.6628C126.156 15.994 126.758 15.3921 127.494 14.857C128.764 13.8538 130.436 12.9844 133.045 12.9844C136.054 12.9844 138.128 14.322 139.465 15.6596C140.268 16.4621 140.937 17.3316 141.405 18.3348C142.007 17.3316 142.675 16.4621 143.545 15.6596C145.083 14.322 147.223 12.9844 150.433 12.9844C155.784 12.9844 160.465 17.5991 160.465 25.3573V43.4149H155.449V25.3573C155.449 20.2743 152.841 17.666 149.43 17.666C146.019 17.666 143.077 20.6087 143.077 25.3573V43.4149H138.061V25.3573C138.061 20.2743 135.452 17.666 132.041 17.666C128.764 17.666 125.688 20.8762 125.688 25.3573V43.4149H120.672Z" fill="white"/>
<path d="M89.5939 45.7557H94.6099C95.6131 48.0965 97.6195 50.1029 101.967 50.1029C107.05 50.1029 110.327 46.7589 110.327 42.4117V38.3989C109.725 39.1346 109.056 39.8034 108.253 40.4053C106.849 41.4085 104.642 42.4117 101.632 42.4117C93.9411 42.4117 87.9219 36.4594 87.9219 27.6981C87.9219 18.9367 93.9411 12.9844 101.632 12.9844C104.642 12.9844 106.849 13.8538 108.253 14.857C109.056 15.3921 109.725 15.994 110.327 16.6628L111.664 13.3188H115.343V42.4117C115.343 49.4341 109.992 54.7845 101.967 54.7845C95.078 54.7845 90.8646 50.7717 89.5939 45.7557ZM101.967 37.7301C106.983 37.7301 110.995 33.7173 110.995 27.6981C110.995 21.6788 106.983 17.666 101.967 17.666C96.9507 17.666 92.9379 21.6788 92.9379 27.6981C92.9379 33.7173 96.9507 37.7301 101.967 37.7301Z" fill="white"/>
<path d="M74.8426 33.7176V18.0007H69.4922V13.3191H71.833C74.3075 13.3191 75.5114 12.1152 75.5114 9.64065V5.29346H79.8586V13.3191H86.5466V18.0007H79.8586V33.7176C79.8586 37.1284 81.865 39.0679 84.8746 39.0679C85.3427 39.0679 85.744 39.0011 86.0784 38.9342L86.5466 38.7336V43.0808C86.3459 43.2145 86.0784 43.3483 85.8109 43.4152C85.209 43.6158 84.4733 43.7496 83.537 43.7496C78.9223 43.7496 74.8426 39.7368 74.8426 33.7176Z" fill="white"/>
</g>
<defs>
<clipPath id="clip0_3728_9727">
<rect width="243.2" height="56" fill="white" transform="translate(0.96875)"/>
</clipPath>
</defs>
</svg>
