<svg width="122" height="32" viewBox="0 0 122 32" fill="none" xmlns="http://www.w3.org/2000/svg">
  <g clip-path="url(#clip0_682_117)">
    <rect width="30" height="30" transform="translate(0.5 1)" fill="url(#paint0_linear_682_117)" />
    <path opacity="0.65"
      d="M14.1143 8.10444C14.5309 6.93978 14.7392 6.35745 15.0581 6.18695C15.332 6.04055 15.6682 6.04055 15.942 6.18695C16.261 6.35745 16.4693 6.93978 16.8859 8.10444C17.634 10.1957 18.5366 12.7666 19.1969 14.7988C19.8527 16.8172 20.6275 19.4061 21.2494 21.5296C21.6024 22.7348 21.7788 23.3374 21.6215 23.6626C21.4858 23.943 21.2162 24.1394 20.9077 24.1826C20.5499 24.2328 20.0283 23.8786 18.9849 23.1704L16.3426 21.3766C16.0384 21.1701 15.8864 21.0669 15.7216 21.0268C15.576 20.9914 15.4241 20.9914 15.2785 21.0268C15.1138 21.0669 14.9617 21.1701 14.6576 21.3766L12.0152 23.1704C10.9719 23.8786 10.4502 24.2328 10.0925 24.1826C9.78397 24.1394 9.51439 23.943 9.37869 23.6626C9.22132 23.3374 9.3978 22.7348 9.75076 21.5296C10.3727 19.4061 11.1474 16.8172 11.8032 14.7988C12.4635 12.7666 13.3662 10.1957 14.1143 8.10444Z"
      fill="white" />
    <path
      d="M22.5565 12.262C23.7929 12.2983 24.4111 12.3165 24.6718 12.5672C24.8957 12.7824 24.9996 13.1021 24.945 13.4078C24.8814 13.7639 24.3919 14.1419 23.413 14.898C21.6552 16.2557 19.4891 17.9086 17.7604 19.1646C16.0435 20.412 13.8207 21.9489 11.9933 23.1966C10.9562 23.9047 10.4376 24.2587 10.0797 24.2095C9.77111 24.1671 9.501 23.9714 9.36456 23.6914C9.20632 23.3667 9.38192 22.7611 9.73311 21.55L10.6225 18.4826C10.7249 18.1295 10.7761 17.953 10.7633 17.784C10.752 17.6346 10.705 17.4901 10.6264 17.3626C10.5374 17.2183 10.3922 17.1056 10.1019 16.8801L7.57934 14.9214C6.58334 14.148 6.08534 13.7613 6.02247 13.4055C5.96826 13.0988 6.07175 12.7817 6.29648 12.566C6.55712 12.3158 7.18476 12.2974 8.44004 12.2607C10.6518 12.196 13.3534 12.1328 15.4757 12.1328C17.6124 12.1328 20.3364 12.1968 22.5565 12.262Z"
      fill="white" />
  </g>
  <path d="M42.5731 25.5002V9.90479H37.1265V6.65247H51.9774V9.90479H46.5177V25.5002H42.5731Z"
    fill="url(#paint1_linear_682_117)" />
  <path
    d="M51.9669 25.5002V11.4983H55.7809V13.9408H55.8592C56.0682 13.0787 56.447 12.4082 56.9956 11.9293C57.5442 11.4504 58.2277 11.2109 59.0463 11.2109C59.2552 11.2109 59.4555 11.224 59.6471 11.2501C59.8387 11.2762 60.0041 11.3111 60.1434 11.3546V14.7114C59.9867 14.6505 59.7864 14.6026 59.5426 14.5677C59.2988 14.5242 59.0375 14.5024 58.7589 14.5024C58.1319 14.5024 57.5964 14.6243 57.1523 14.8682C56.7082 15.112 56.3686 15.469 56.1335 15.9392C55.8984 16.4094 55.7809 16.9841 55.7809 17.6633V25.5002H51.9669Z"
    fill="url(#paint2_linear_682_117)" />
  <path
    d="M61.6742 25.5002V11.4983H65.4881V25.5002H61.6742ZM63.5812 9.6958C63.0064 9.6958 62.5232 9.49988 62.1313 9.10803C61.7395 8.71619 61.5436 8.25033 61.5436 7.71045C61.5436 7.16187 61.7395 6.696 62.1313 6.31287C62.5232 5.92102 63.0064 5.7251 63.5812 5.7251C64.1559 5.7251 64.6391 5.92102 65.031 6.31287C65.4228 6.696 65.6188 7.16187 65.6188 7.71045C65.6188 8.25033 65.4228 8.71619 65.031 9.10803C64.6391 9.49988 64.1559 9.6958 63.5812 9.6958Z"
    fill="url(#paint3_linear_682_117)" />
  <path
    d="M76.2273 25.7876C75.5568 25.7876 74.9429 25.6788 74.3856 25.4611C73.8283 25.2434 73.3407 24.9386 72.9227 24.5468C72.5047 24.1462 72.1695 23.6673 71.917 23.11H71.8386V25.5002H68.0246V6.65247H71.8386V13.9277H71.917C72.1782 13.3617 72.5178 12.8785 72.9358 12.4779C73.3537 12.0686 73.8414 11.7552 74.3986 11.5375C74.9646 11.3198 75.5785 11.2109 76.2403 11.2109C77.4159 11.2109 78.4259 11.5026 79.2706 12.0861C80.1239 12.6608 80.7814 13.4924 81.2429 14.5808C81.7044 15.6606 81.9351 16.9624 81.9351 18.4862V18.4993C81.9351 20.0144 81.7044 21.3162 81.2429 22.4047C80.7814 23.4931 80.1239 24.3291 79.2706 24.9125C78.4172 25.4959 77.4028 25.7876 76.2273 25.7876ZM74.9603 22.6267C75.596 22.6267 76.1445 22.4613 76.606 22.1304C77.0676 21.7908 77.4246 21.3118 77.6771 20.6936C77.9296 20.0754 78.0559 19.3439 78.0559 18.4993V18.4862C78.0559 17.6329 77.9296 16.9014 77.6771 16.2919C77.4246 15.6736 77.0632 15.1991 76.593 14.8682C76.1315 14.5373 75.5872 14.3718 74.9603 14.3718C74.342 14.3718 73.7978 14.5416 73.3276 14.8812C72.8661 15.2121 72.5004 15.6867 72.2304 16.3049C71.9692 16.9145 71.8386 17.6416 71.8386 18.4862V18.4993C71.8386 19.3439 71.9692 20.0754 72.2304 20.6936C72.4917 21.3118 72.8574 21.7908 73.3276 22.1304C73.7978 22.4613 74.342 22.6267 74.9603 22.6267Z"
    fill="url(#paint4_linear_682_117)" />
  <path
    d="M88.5468 25.7876C87.5193 25.7876 86.6442 25.5786 85.9215 25.1606C85.2074 24.734 84.6589 24.1288 84.2757 23.3451C83.9013 22.5614 83.7141 21.6253 83.7141 20.5369V11.4983H87.528V19.7401C87.528 20.6544 87.7414 21.3641 88.168 21.8691C88.6034 22.3742 89.2478 22.6267 90.1012 22.6267C90.5278 22.6267 90.911 22.5527 91.2506 22.4047C91.5989 22.2566 91.8949 22.0476 92.1387 21.7777C92.3826 21.4991 92.5698 21.1725 92.7004 20.7981C92.831 20.415 92.8963 19.997 92.8963 19.5442V11.4983H96.7103V25.5002H92.8963V23.1884H92.8179C92.5741 23.7195 92.2519 24.181 91.8514 24.5729C91.4595 24.9647 90.985 25.2651 90.4277 25.4741C89.8791 25.6831 89.2522 25.7876 88.5468 25.7876Z"
    fill="url(#paint5_linear_682_117)" />
  <path
    d="M104.641 25.7876C103.091 25.7876 101.942 25.4611 101.193 24.808C100.444 24.1549 100.07 23.0795 100.07 21.5818V14.3718H98.1235V11.4983H100.07V8.07617H103.923V11.4983H106.483V14.3718H103.923V21.1638C103.923 21.8169 104.066 22.274 104.354 22.5353C104.65 22.7878 105.085 22.9141 105.66 22.9141C105.834 22.9141 105.987 22.9097 106.117 22.901C106.248 22.8836 106.37 22.8662 106.483 22.8488V25.6439C106.274 25.6788 106.013 25.7092 105.699 25.7354C105.394 25.7702 105.042 25.7876 104.641 25.7876Z"
    fill="url(#paint6_linear_682_117)" />
  <path
    d="M114.662 25.7876C113.234 25.7876 112.006 25.4959 110.979 24.9125C109.951 24.3204 109.159 23.4801 108.601 22.3916C108.053 21.3031 107.778 20.0144 107.778 18.5254V18.5123C107.778 17.0233 108.053 15.7346 108.601 14.6461C109.159 13.549 109.938 12.7043 110.939 12.1122C111.949 11.5114 113.138 11.2109 114.505 11.2109C115.872 11.2109 117.052 11.5026 118.045 12.0861C119.046 12.6608 119.817 13.4749 120.357 14.5286C120.905 15.5822 121.18 16.8143 121.18 18.225V19.4005H109.646V16.9972H119.377L117.562 19.2438V17.7809C117.562 16.9624 117.435 16.2788 117.183 15.7302C116.93 15.1729 116.578 14.755 116.125 14.4763C115.681 14.1977 115.163 14.0583 114.57 14.0583C113.978 14.0583 113.452 14.202 112.99 14.4894C112.537 14.7767 112.18 15.1991 111.919 15.7563C111.666 16.3049 111.54 16.9798 111.54 17.7809V19.2568C111.54 20.0318 111.666 20.6936 111.919 21.2422C112.18 21.7908 112.55 22.2131 113.029 22.5092C113.508 22.7965 114.078 22.9402 114.74 22.9402C115.263 22.9402 115.716 22.8575 116.099 22.692C116.482 22.5266 116.795 22.3176 117.039 22.0651C117.283 21.8125 117.448 21.5557 117.535 21.2944L117.562 21.2161H121.062L121.023 21.3597C120.918 21.8735 120.714 22.3916 120.409 22.9141C120.104 23.4365 119.691 23.9154 119.168 24.3508C118.654 24.7862 118.023 25.1345 117.274 25.3958C116.534 25.657 115.663 25.7876 114.662 25.7876Z"
    fill="url(#paint7_linear_682_117)" />
  <defs>
    <linearGradient id="paint0_linear_682_117" x1="15" y1="0" x2="15" y2="30"
      gradientUnits="userSpaceOnUse">
      <stop stop-color="#79C9FF" />
      <stop offset="1" stop-color="#007AFF" />
    </linearGradient>
    <linearGradient id="paint1_linear_682_117" x1="79.2495" y1="0.625244" x2="79.2495" y2="30.8752"
      gradientUnits="userSpaceOnUse">
      <stop stop-color="#79C9FF" />
      <stop offset="1" stop-color="#007AFF" />
    </linearGradient>
    <linearGradient id="paint2_linear_682_117" x1="79.2495" y1="0.625244" x2="79.2495" y2="30.8752"
      gradientUnits="userSpaceOnUse">
      <stop stop-color="#79C9FF" />
      <stop offset="1" stop-color="#007AFF" />
    </linearGradient>
    <linearGradient id="paint3_linear_682_117" x1="79.2495" y1="0.625244" x2="79.2495" y2="30.8752"
      gradientUnits="userSpaceOnUse">
      <stop stop-color="#79C9FF" />
      <stop offset="1" stop-color="#007AFF" />
    </linearGradient>
    <linearGradient id="paint4_linear_682_117" x1="79.2495" y1="0.625244" x2="79.2495" y2="30.8752"
      gradientUnits="userSpaceOnUse">
      <stop stop-color="#79C9FF" />
      <stop offset="1" stop-color="#007AFF" />
    </linearGradient>
    <linearGradient id="paint5_linear_682_117" x1="79.2495" y1="0.625244" x2="79.2495" y2="30.8752"
      gradientUnits="userSpaceOnUse">
      <stop stop-color="#79C9FF" />
      <stop offset="1" stop-color="#007AFF" />
    </linearGradient>
    <linearGradient id="paint6_linear_682_117" x1="79.2495" y1="0.625244" x2="79.2495" y2="30.8752"
      gradientUnits="userSpaceOnUse">
      <stop stop-color="#79C9FF" />
      <stop offset="1" stop-color="#007AFF" />
    </linearGradient>
    <linearGradient id="paint7_linear_682_117" x1="79.2495" y1="0.625244" x2="79.2495" y2="30.8752"
      gradientUnits="userSpaceOnUse">
      <stop stop-color="#79C9FF" />
      <stop offset="1" stop-color="#007AFF" />
    </linearGradient>
    <clipPath id="clip0_682_117">
      <rect x="0.5" y="1" width="30" height="30" rx="15" fill="white" />
    </clipPath>
  </defs>
</svg>