<svg width="177" height="231" viewBox="0 0 177 231" fill="none" xmlns="http://www.w3.org/2000/svg">
<circle cx="84.7477" cy="84.7477" r="84.6958" transform="matrix(-1 0 0 1 175 60)" fill="#26252A" stroke="#26252A" stroke-width="0.103858"/>
<path d="M144.957 230.196C141.185 226.289 134.45 219.317 132.047 216.847C131.617 216.405 131.683 215.683 132.184 215.324L140.041 209.682C140.54 209.324 141.241 209.495 141.517 210.043L151.111 229.048C151.447 229.713 150.964 230.499 150.219 230.499H145.673C145.402 230.499 145.145 230.391 144.957 230.196Z" fill="#26252A" stroke="#26252A" stroke-width="0.103858"/>
<path d="M36.5943 230.196C40.3657 226.289 47.1006 219.317 49.5037 216.847C49.9339 216.405 49.8674 215.683 49.3663 215.324L41.5094 209.682C41.0108 209.324 40.3101 209.495 40.0335 210.043L30.4394 229.048C30.1036 229.713 30.587 230.499 31.3321 230.499H35.8774C36.1487 230.499 36.4058 230.391 36.5943 230.196Z" fill="#26252A" stroke="#26252A" stroke-width="0.103858"/>
<path d="M155.894 50.5722L133.938 39.5433C122.534 33.8147 108.645 38.4159 102.916 49.8202L102.473 50.7016L165.728 82.4759L166.171 81.5945C171.9 70.1901 167.299 56.3009 155.894 50.5722Z" fill="#26252A" stroke="#26252A" stroke-width="0.103858"/>
<path d="M20.7191 50.5722L42.675 39.5433C54.0794 33.8147 67.9686 38.4159 73.6973 49.8202L74.14 50.7016L10.8849 82.4759L10.4422 81.5945C4.71358 70.1901 9.31474 56.3009 20.7191 50.5722Z" fill="#26252A" stroke="#26252A" stroke-width="0.103858"/>
<path d="M151.428 46.5163C144.764 43.6602 131.477 37.7196 131.643 36.8056C131.739 36.2745 131.361 30.5856 130.902 24.3468C130.35 16.8547 124.896 10.6483 117.55 9.07805L92.616 3.74869C90.3062 3.25498 87.9188 3.24804 85.6061 3.72829L58.9654 9.26061C51.8662 10.7348 46.4834 16.5495 45.5603 23.7411L44.9235 28.7018C44.266 33.8239 41.3159 38.3695 36.9055 41.0559L27.9411 46.5163" stroke="#26252A" stroke-width="4.77745" stroke-linecap="round"/>
<rect x="130.5" y="62" width="7" height="11" transform="rotate(30 130.5 62)" fill="#26252A"/>
<rect width="7" height="11" transform="matrix(-0.866025 0.5 0.5 0.866025 44.0625 62)" fill="#26252A"/>
<circle cx="90.3521" cy="144.354" r="9.64703" fill="black"/>
<path d="M87.2066 100.402C86.9942 100.986 87.6405 132.329 87.7792 138.215C87.7918 138.747 88.2217 139.148 88.7545 139.151L90.5932 139.164C91.1229 139.167 91.5635 138.757 91.5978 138.228L94.0538 100.395C94.057 100.346 94.0565 100.296 94.0524 100.247L91.8011 73.4487C91.6988 72.2307 89.9122 72.2238 89.8009 73.4411C88.6673 85.8449 87.3448 100.021 87.2066 100.402Z" fill="black"/>
<path d="M89.8267 141.338L88.1513 142.725C87.738 143.068 87.1282 143.023 86.7696 142.623L66.6704 120.252C66.6147 120.19 66.5669 120.121 66.5283 120.048L57.7494 103.269C57.2265 102.27 58.4979 101.304 59.3186 102.077C65.4535 107.861 73.1117 115.089 73.4436 115.437C73.8496 115.862 84.3579 131.54 90.0212 140.013C90.3061 140.44 90.2215 141.011 89.8267 141.338Z" fill="black"/>
<path d="M82.2999 39.391C82.9417 38.3941 84.1103 37.8687 85.2819 38.0504L98.228 40.0573C99.3996 40.2389 100.354 41.0934 100.664 42.2378L101.093 43.8222C101.315 44.6416 101.179 45.5166 100.72 46.2303L99.8313 47.6104C99.1895 48.6073 98.0209 49.1327 96.8493 48.951L83.9032 46.9441C82.7316 46.7625 81.7769 45.908 81.467 44.7636L81.038 43.1792C80.8162 42.3598 80.9518 41.4848 81.4113 40.7711L82.2999 39.391Z" fill="#26252A"/>
<rect x="79" y="58" width="17" height="4" rx="2" fill="#26252A"/>
<rect x="88.3789" y="45.9297" width="3.51891" height="14" transform="rotate(7.7663 88.3789 45.9297)" fill="#26252A"/>
</svg>
