<svg width="41" height="10" viewBox="0 0 41 10" fill="none" xmlns="http://www.w3.org/2000/svg">
<g clip-path="url(#clip0_2341_3955)">
<path fill-rule="evenodd" clip-rule="evenodd" d="M36.5322 7.47061C36.1997 7.16801 36.0022 6.82255 35.9331 6.43003L40.9383 6.44264L40.9673 5.81045C40.9929 4.89322 40.6914 4.17374 40.0863 3.583C39.4817 2.98883 38.7255 2.69141 37.8314 2.69141C36.9601 2.69141 36.2013 3.01319 35.5635 3.64284C34.9275 4.27081 34.6094 5.03682 34.6094 5.9295C34.6094 6.82299 34.9324 7.59103 35.5766 8.22261L35.577 8.22305C36.2205 8.84976 36.9962 9.1676 37.8942 9.1676C38.2242 9.1676 38.5461 9.12104 38.8588 9.02788L38.8597 9.02764L38.8605 9.02738C39.166 8.93357 39.4218 8.83123 39.6231 8.71849L39.6242 8.71783C39.8232 8.60467 40.0073 8.47654 40.1761 8.33336L40.1763 8.33317C40.337 8.19649 40.4547 8.08889 40.5136 8.01819C40.5639 7.9585 40.603 7.9112 40.63 7.87712L40.7346 7.74496L39.8816 6.93657L39.5176 7.33083L39.515 7.33388C39.4024 7.46651 39.1964 7.61454 38.8756 7.77234C38.5743 7.92049 38.2482 7.99498 37.8942 7.99498C37.3739 7.99498 36.923 7.8225 36.5322 7.47061ZM36.5565 4.35941C36.2466 4.63783 36.0464 4.95592 35.9513 5.31641H39.6542C39.5649 4.92641 39.3715 4.60153 39.075 4.33576L39.0742 4.33504C38.7316 4.02461 38.3212 3.86998 37.8314 3.86998C37.3441 3.86998 36.9222 4.03089 36.5565 4.35941Z" fill="white"/>
<path fill-rule="evenodd" clip-rule="evenodd" d="M31.208 3.81553C31.1406 3.84923 31.0779 3.88922 31.02 3.93545C30.8065 4.10609 30.6998 4.3045 30.6998 4.53069C30.6998 4.76482 30.8149 4.95331 31.0452 5.09617C31.0812 5.11849 31.1183 5.14013 31.1567 5.1611C31.1183 5.14013 31.0812 5.11849 31.0453 5.09617C30.8149 4.95331 30.6998 4.76482 30.6998 4.53069C30.6998 4.3045 30.8066 4.10609 31.0201 3.93545C31.0779 3.88922 31.1406 3.84923 31.208 3.81553ZM31.1553 4.9368C31.3647 5.06674 31.6232 5.1746 31.9339 5.25777C32.2652 5.34232 32.5962 5.44088 32.927 5.55342C33.2865 5.6715 33.5938 5.86879 33.8464 6.14283C34.1144 6.42945 34.2421 6.79234 34.2421 7.21522C34.2421 7.77503 34.0132 8.24755 33.5644 8.62038L33.5635 8.62111C33.1115 8.992 32.5138 9.1676 31.7926 9.1676C31.4821 9.1676 31.1869 9.12974 30.9075 9.0529L30.9067 9.05267C30.6395 8.97793 30.41 8.88646 30.2228 8.77555C30.049 8.67266 29.8948 8.56847 29.7609 8.46273L29.7581 8.46053L29.7554 8.45823C29.6304 8.35198 29.5302 8.25594 29.4608 8.17144L29.4571 8.16685L29.2773 7.91785L30.2167 7.03624L30.352 7.22861C30.367 7.24984 30.388 7.27882 30.4153 7.3159C30.4387 7.34372 30.4947 7.40233 30.5907 7.49713C30.6869 7.58445 30.7887 7.66452 30.8961 7.73739C30.994 7.79999 31.1266 7.86032 31.2985 7.91588C31.4625 7.96888 31.627 7.99498 31.7926 7.99498C32.2017 7.99498 32.4814 7.90893 32.6623 7.76553L32.663 7.765L32.6637 7.76445C32.8528 7.61723 32.942 7.43861 32.942 7.21522C32.942 7.04398 32.8648 6.90343 32.6784 6.78355L32.6766 6.78244L32.675 6.78131C32.4668 6.64139 32.2101 6.52871 31.9013 6.44616L31.8998 6.44576L31.8984 6.44534C31.5731 6.35327 31.2459 6.25323 30.9166 6.14522L30.9156 6.14485L30.9145 6.14449C30.5589 6.02352 30.2516 5.83463 29.995 5.57849L29.9938 5.57729L29.9926 5.57606C29.7231 5.29743 29.5944 4.94347 29.5944 4.53069C29.5944 4.02893 29.8194 3.59438 30.2457 3.23382L30.2465 3.23315C30.6814 2.86919 31.2225 2.69141 31.8554 2.69141C32.11 2.69141 32.3587 2.72098 32.601 2.78032C32.8412 2.83429 33.0479 2.90473 33.2156 2.99521C33.3681 3.07379 33.5057 3.15759 33.6274 3.24697C33.7448 3.32665 33.8386 3.39683 33.9006 3.45553L34.1376 3.68016L33.1739 4.58466L33.0385 4.3923C33.0153 4.35926 32.9752 4.31368 32.9129 4.25466L32.9085 4.25046L32.9043 4.246C32.892 4.23273 32.8583 4.20503 32.7889 4.1633C32.7222 4.12332 32.633 4.07642 32.5193 4.02249L32.518 4.02188L32.5166 4.02126C32.3112 3.92042 32.0918 3.86998 31.8554 3.86998C31.5482 3.86998 31.3192 3.94562 31.1497 4.08107C30.9728 4.22236 30.9008 4.37045 30.9008 4.53069C30.9008 4.69237 30.9741 4.8244 31.1553 4.9368Z" fill="white"/>
<path fill-rule="evenodd" clip-rule="evenodd" d="M27.9878 0.316406C28.2019 0.316406 28.3901 0.388518 28.5382 0.53287C28.6905 0.673174 28.7666 0.851523 28.7666 1.0545C28.7666 1.25857 28.6898 1.43833 28.5382 1.58204C28.3891 1.72327 28.2008 1.7926 27.9878 1.7926C27.7748 1.7926 27.586 1.72342 27.4339 1.58456L27.4312 1.58207L27.4286 1.57948C27.282 1.43528 27.209 1.25633 27.209 1.0545C27.209 0.852623 27.2821 0.674141 27.4312 0.53291C27.5828 0.389199 27.7725 0.316406 27.9878 0.316406ZM27.3409 2.81641V9.04855H28.641V2.81641H27.3409Z" fill="white"/>
<path fill-rule="evenodd" clip-rule="evenodd" d="M26.9082 9.04948L24.1386 5.39964L26.7267 2.81734H25.079L22.2766 5.63516V0.132812H20.9766V9.04948H22.2766V7.29227L23.2793 6.29326L25.3834 9.04948H26.9082Z" fill="white"/>
<path fill-rule="evenodd" clip-rule="evenodd" d="M17.5113 2.69141C18.0227 2.69141 18.5015 2.79694 18.9449 3.00894C19.3714 3.20711 19.6974 3.41422 19.9032 3.63564L20.3023 4.04911L19.3447 4.94776L19.2095 4.7554C19.195 4.73486 19.1718 4.70363 19.1387 4.66058C19.1148 4.62942 19.0494 4.55936 18.9306 4.44276L18.9294 4.44151L18.9281 4.44024C18.8257 4.33596 18.7145 4.24674 18.5944 4.17208L18.5926 4.17096L18.5908 4.1698C18.477 4.09564 18.3218 4.02521 18.1198 3.9614C17.9276 3.90067 17.7251 3.86998 17.5113 3.86998C16.9806 3.86998 16.5192 4.06353 16.1187 4.46508C15.7252 4.85975 15.5266 5.34561 15.5266 5.93545C15.5266 6.52066 15.7248 7.0068 16.1186 7.40581C16.5189 7.80311 16.9802 7.99498 17.5113 7.99498C17.838 7.99498 18.1469 7.92152 18.4406 7.77328C18.7519 7.61616 18.9613 7.46724 19.0847 7.33077L19.4244 6.94044L20.3574 7.73793L20.2471 7.87712C20.2177 7.91438 20.1742 7.96404 20.1192 8.02423C20.0579 8.09182 19.9383 8.19747 19.7728 8.33475L19.7717 8.33565L19.7706 8.33654C19.5955 8.47769 19.4112 8.6045 19.218 8.71684L19.2166 8.71768L19.2151 8.71849C19.0143 8.83098 18.761 8.93327 18.4596 9.02713L18.4588 9.02739L18.4579 9.02764C18.1494 9.12087 17.8337 9.1676 17.5113 9.1676C16.6134 9.1676 15.8377 8.84976 15.1942 8.22305L15.1937 8.22261C14.5495 7.59103 14.2266 6.82299 14.2266 5.9295C14.2266 5.036 14.5495 4.26967 15.1942 3.64188C15.8413 3.01173 16.6169 2.69141 17.5113 2.69141Z" fill="white"/>
<path fill-rule="evenodd" clip-rule="evenodd" d="M12.7475 0.316406C12.9617 0.316406 13.1498 0.388518 13.2978 0.532871C13.4502 0.673174 13.5263 0.851522 13.5263 1.0545C13.5263 1.25857 13.4495 1.43833 13.2978 1.58204C13.1488 1.72327 12.9605 1.7926 12.7475 1.7926C12.5345 1.7926 12.3457 1.72342 12.1935 1.58456L12.1908 1.58207L12.1882 1.57948C12.0417 1.43528 11.9688 1.25633 11.9688 1.0545C11.9688 0.852623 12.0418 0.674141 12.1908 0.53291C12.3425 0.389199 12.5322 0.316406 12.7475 0.316406ZM12.1006 2.81641V9.04855H13.4007V2.81641H12.1006Z" fill="white"/>
<path fill-rule="evenodd" clip-rule="evenodd" d="M10.7591 9.04948V0.132812H9.45898V9.04948H10.7591Z" fill="white"/>
<path fill-rule="evenodd" clip-rule="evenodd" d="M4.85626 7.93414C3.89709 7.92511 3.09397 7.60531 2.43465 6.97306C1.76616 6.33201 1.43126 5.54165 1.43126 4.5891C1.43126 3.63655 1.76616 2.84619 2.43465 2.20514C3.10355 1.5637 3.92046 1.24386 4.89817 1.24386C5.2634 1.24386 5.61106 1.2946 5.94206 1.39544C6.28382 1.49955 6.54859 1.61239 6.74226 1.73116L6.74417 1.73233L6.74611 1.73346C6.95187 1.85346 7.14163 1.99211 7.31561 2.1495C7.50199 2.31811 7.60475 2.42286 7.64191 2.47276L7.64358 2.475L7.64532 2.4772C7.6939 2.53858 7.72688 2.58418 7.74682 2.61567L7.87183 2.81313L8.83682 1.99624L8.58423 1.67359C8.4789 1.53339 8.3154 1.37399 8.10291 1.19672C7.88906 1.0148 7.64024 0.836668 7.35743 0.662012C7.06468 0.478573 6.70036 0.327107 6.26945 0.204525C5.83096 0.0757906 5.37359 0.0117188 4.89817 0.0117188C3.56001 0.0117188 2.41589 0.457987 1.47756 1.34727C0.539238 2.23656 0.0683594 3.32088 0.0683594 4.5891C0.0683594 5.85732 0.539238 6.94164 1.47756 7.83093C2.41589 8.72021 3.56001 9.16648 4.89817 9.16648C5.37392 9.16648 5.83537 9.10232 6.28183 8.97373L6.28301 8.97339C6.41821 8.93358 6.54629 8.89199 6.66708 8.84854L6.17817 8.37332C6.17711 8.37227 6.1758 8.37149 6.17435 8.37101L4.85626 7.93414Z" fill="white"/>
<path d="M8.14002 4.96323C8.36615 4.86536 8.62336 5.02184 8.62362 5.25745L8.62768 9.02022C8.628 9.31499 8.24638 9.45682 8.03519 9.24042L6.66768 7.83916C6.62867 7.79918 6.57966 7.76917 6.52517 7.75192L4.55953 7.12917C4.26545 7.036 4.24385 6.6496 4.52592 6.52752L8.14002 4.96323Z" fill="#52CA01"/>
</g>
<defs>
<clipPath id="clip0_2341_3955">
<rect width="41" height="10" fill="white"/>
</clipPath>
</defs>
</svg>
