<svg width="292" height="75" viewBox="0 0 292 75" fill="none" xmlns="http://www.w3.org/2000/svg">
<path fill-rule="evenodd" clip-rule="evenodd" d="M260.174 56.0237C257.807 53.7542 256.4 51.1633 255.908 48.2194L291.555 48.314L291.761 43.5725C291.944 36.6933 289.797 31.2972 285.487 26.8666C281.181 22.4104 275.795 20.1797 269.428 20.1797C263.223 20.1797 257.818 22.593 253.276 27.3155C248.746 32.0252 246.48 37.7703 246.48 44.4654C246.48 51.1665 248.781 56.9268 253.369 61.6637L253.372 61.667C257.955 66.3673 263.479 68.7511 269.875 68.7511C272.225 68.7511 274.517 68.402 276.745 67.7033L276.751 67.7014L276.757 67.6995C278.933 66.9959 280.754 66.2283 282.188 65.3828L282.196 65.3779C283.613 64.5292 284.924 63.5682 286.127 62.4943L286.128 62.4929C287.272 61.4678 288.111 60.6608 288.53 60.1305C288.888 59.6829 289.167 59.3281 289.359 59.0725L290.104 58.0813L284.029 52.0184L281.437 54.9753L281.418 54.9983C280.616 55.993 279.149 57.1032 276.864 58.2867C274.719 59.3978 272.396 59.9565 269.875 59.9565C266.169 59.9565 262.958 58.6629 260.174 56.0237ZM260.348 32.6897C258.14 34.7779 256.715 37.1635 256.038 39.8672H282.409C281.774 36.9422 280.396 34.5056 278.284 32.5123L278.278 32.507C275.839 30.1787 272.916 29.019 269.428 29.019C265.957 29.019 262.952 30.2258 260.348 32.6897Z" fill="white"/>
<path fill-rule="evenodd" clip-rule="evenodd" d="M222.258 28.6106C221.778 28.8634 221.331 29.1633 220.919 29.51C219.398 30.7898 218.638 32.2779 218.638 33.9743C218.638 35.7303 219.459 37.144 221.098 38.2154C221.355 38.3828 221.619 38.5451 221.893 38.7024C221.619 38.5451 221.355 38.3828 221.099 38.2154C219.459 37.144 218.638 35.7303 218.638 33.9743C218.638 32.2779 219.399 30.7898 220.92 29.51C221.331 29.1633 221.778 28.8634 222.258 28.6106ZM221.883 37.0201C223.374 37.9947 225.215 38.8036 227.428 39.4274C229.787 40.0615 232.145 40.8008 234.501 41.6448C237.061 42.5304 239.249 44.01 241.049 46.0654C242.957 48.215 243.866 50.9367 243.866 54.1083C243.866 58.3069 242.237 61.8508 239.04 64.647L239.033 64.6525C235.815 67.4341 231.558 68.7511 226.421 68.7511C224.21 68.7511 222.107 68.4672 220.118 67.8909L220.112 67.8892C218.209 67.3286 216.574 66.6426 215.241 65.8108C214.004 65.0391 212.905 64.2577 211.952 63.4646L211.932 63.4481L211.912 63.4308C211.022 62.634 210.308 61.9137 209.815 61.28L209.788 61.2455L208.508 59.378L215.198 52.766L216.161 54.2087C216.268 54.368 216.418 54.5853 216.612 54.8634C216.779 55.072 217.178 55.5116 217.861 56.2226C218.547 56.8775 219.272 57.478 220.037 58.0245C220.734 58.494 221.678 58.9465 222.902 59.3633C224.07 59.7608 225.242 59.9565 226.421 59.9565C229.335 59.9565 231.327 59.3111 232.615 58.2356L232.62 58.2316L232.625 58.2275C233.972 57.1234 234.607 55.7837 234.607 54.1083C234.607 52.824 234.058 51.7699 232.73 50.8708L232.717 50.8625L232.706 50.854C231.223 49.8045 229.395 48.9595 227.196 48.3403L227.185 48.3373L227.175 48.3342C224.858 47.6437 222.528 46.8933 220.183 46.0833L220.176 46.0805L220.168 46.0778C217.635 45.1705 215.446 43.7538 213.619 41.8328L213.611 41.8238L213.602 41.8146C211.683 39.7249 210.766 37.0702 210.766 33.9743C210.766 30.2111 212.368 26.952 215.404 24.2478L215.41 24.2428C218.507 21.513 222.361 20.1797 226.869 20.1797C228.682 20.1797 230.453 20.4015 232.178 20.8465C233.89 21.2513 235.362 21.7796 236.556 22.4582C237.642 23.0475 238.622 23.676 239.488 24.3464C240.325 24.944 240.993 25.4704 241.434 25.9106L243.122 27.5953L236.259 34.3791L235.295 32.9364C235.129 32.6886 234.844 32.3468 234.4 31.9041L234.368 31.8726L234.339 31.8391C234.251 31.7396 234.011 31.5319 233.517 31.2189C233.042 30.919 232.407 30.5673 231.597 30.1628L231.587 30.1583L231.578 30.1536C230.115 29.3973 228.552 29.019 226.869 29.019C224.681 29.019 223.05 29.5863 221.842 30.6022C220.583 31.6618 220.07 32.7725 220.07 33.9743C220.07 35.1869 220.592 36.1771 221.883 37.0201Z" fill="white"/>
<path fill-rule="evenodd" clip-rule="evenodd" d="M199.332 2.36719C200.857 2.36719 202.197 2.90802 203.252 3.99067C204.337 5.04294 204.878 6.38057 204.878 7.9029C204.878 9.4334 204.332 10.7816 203.252 11.8595C202.19 12.9187 200.849 13.4386 199.332 13.4386C197.815 13.4386 196.47 12.9198 195.387 11.8783L195.368 11.8597L195.349 11.8403C194.305 10.7588 193.785 9.41662 193.785 7.9029C193.785 6.38882 194.306 5.05019 195.368 3.99097C196.448 2.91313 197.799 2.36719 199.332 2.36719ZM194.725 21.1172V67.8583H203.984V21.1172H194.725Z" fill="white"/>
<path fill-rule="evenodd" clip-rule="evenodd" d="M191.635 67.8555L171.91 40.4817L190.343 21.1144H178.608L158.649 42.248V0.980469H149.391V67.8555H158.649V54.6764L165.791 47.1838L180.776 67.8555H191.635Z" fill="white"/>
<path fill-rule="evenodd" clip-rule="evenodd" d="M124.718 20.1797C128.36 20.1797 131.77 20.9712 134.928 22.5612C137.965 24.0475 140.288 25.6008 141.753 27.2615L144.595 30.3625L137.776 37.1023L136.812 35.6596C136.709 35.5056 136.544 35.2713 136.308 34.9485C136.138 34.7148 135.672 34.1893 134.826 33.3148L134.818 33.3055L134.808 33.296C134.079 32.5138 133.287 31.8447 132.432 31.2848L132.419 31.2763L132.406 31.2676C131.596 30.7115 130.491 30.1832 129.051 29.7046C127.683 29.2492 126.241 29.019 124.718 29.019C120.938 29.019 117.653 30.4706 114.8 33.4823C111.997 36.4423 110.583 40.0862 110.583 44.51C110.583 48.8991 111.994 52.5451 114.799 55.5377C117.65 58.5175 120.935 59.9565 124.718 59.9565C127.045 59.9565 129.245 59.4055 131.337 58.2938C133.554 57.1153 135.045 55.9985 135.923 54.9749L138.343 52.0475L144.988 58.0286L144.202 59.0725C143.993 59.352 143.683 59.7245 143.291 60.1759C142.855 60.6828 142.003 61.4752 140.824 62.5048L140.817 62.5115L140.809 62.5182C139.561 63.5768 138.249 64.5279 136.873 65.3705L136.863 65.3768L136.852 65.3828C135.422 66.2265 133.618 66.9937 131.472 67.6976L131.466 67.6995L131.46 67.7015C129.262 68.4007 127.014 68.7511 124.718 68.7511C118.323 68.7511 112.799 66.3673 108.216 61.667L108.212 61.6637C103.624 56.9268 101.324 51.1665 101.324 44.4654C101.324 37.7641 103.624 32.0167 108.216 27.3083C112.825 22.5821 118.348 20.1797 124.718 20.1797Z" fill="white"/>
<path fill-rule="evenodd" clip-rule="evenodd" d="M90.7848 2.36719C92.31 2.36719 93.6497 2.90802 94.7039 3.99067C95.7889 5.04294 96.3314 6.38056 96.3314 7.9029C96.3314 9.4334 95.7839 10.7816 94.7039 11.8595C93.6426 12.9187 92.3014 13.4386 90.7848 13.4386C89.2676 13.4386 87.9228 12.9198 86.8393 11.8783L86.82 11.8597L86.8013 11.8403C85.7579 10.7588 85.2383 9.41662 85.2383 7.9029C85.2383 6.38882 85.7586 5.05019 86.82 3.99097C87.8999 2.91313 89.2511 2.36719 90.7848 2.36719ZM86.1773 21.1172V67.8583H95.4368V21.1172H86.1773Z" fill="white"/>
<path fill-rule="evenodd" clip-rule="evenodd" d="M76.6267 67.8555V0.980469H67.3672V67.8555H76.6267Z" fill="white"/>
<path fill-rule="evenodd" clip-rule="evenodd" d="M34.5914 59.508C27.7602 59.4403 22.0404 57.0418 17.3448 52.2999C12.5839 47.4921 10.1987 41.5643 10.1987 34.4202C10.1987 27.2761 12.5839 21.3483 17.3448 16.5405C22.1086 11.7297 27.9267 9.33092 34.8899 9.33092C37.491 9.33092 39.967 9.71149 42.3244 10.4678C44.7584 11.2486 46.6441 12.0948 48.0234 12.9856L48.037 12.9944L48.0508 13.0029C49.5162 13.9029 50.8677 14.9428 52.1068 16.1232C53.4342 17.3878 54.166 18.1734 54.4307 18.5476L54.4426 18.5644L54.4549 18.5809C54.8009 19.0413 55.0358 19.3833 55.1778 19.6195L56.0681 21.1004L62.9408 14.9738L61.1418 12.5538C60.3916 11.5024 59.2272 10.3069 57.7139 8.97734C56.1908 7.61299 54.4187 6.27697 52.4046 4.96704C50.3196 3.59125 47.725 2.45526 44.656 1.53589C41.5331 0.570382 38.2758 0.0898438 34.8899 0.0898438C25.3596 0.0898438 17.2112 3.43686 10.5285 10.1065C3.84577 16.7761 0.492188 24.9086 0.492188 34.4202C0.492188 43.9319 3.84577 52.0643 10.5285 58.7339C17.2112 65.4036 25.3596 68.7506 34.8899 68.7506C38.2781 68.7506 41.5646 68.2693 44.7442 67.3049L44.7527 67.3024C45.7155 67.0038 46.6277 66.6918 47.4879 66.366L44.006 62.8018C43.9984 62.794 43.9891 62.7881 43.9788 62.7846L34.5914 59.508Z" fill="white"/>
<path d="M57.9784 37.2184C59.5889 36.4843 61.4208 37.658 61.4226 39.425L61.4515 67.6458C61.4538 69.8566 58.7359 70.9203 57.2318 69.2973L47.4925 58.7878C47.2147 58.488 46.8656 58.263 46.4776 58.1335L32.4784 53.463C30.3839 52.7642 30.2301 49.8662 32.239 48.9505L57.9784 37.2184Z" fill="#52CA01"/>
</svg>
