<svg width="28" height="28" viewBox="0 0 28 28" fill="none" xmlns="http://www.w3.org/2000/svg">
<path d="M28 0C25.1683 0.194688 5.27384 2.08907 3.88312 15.7287C3.71414 17.1867 3.61843 18.6513 3.55554 20.1169L13.3376 10.3447C13.6794 10.0029 14.2345 10.0029 14.5763 10.3447C14.9181 10.6865 14.9181 11.2405 14.5763 11.5823L0.38473 25.7596C-0.128243 26.272 -0.128243 27.1033 0.38473 27.6157C0.897704 28.1281 1.72951 28.1281 2.24303 27.6157L5.36736 24.4947C7.66918 24.487 9.96936 24.3563 12.2559 24.0921C15.1806 23.7946 17.5617 22.6446 19.5064 21.0001H13.9856L22.0133 18.327C22.6285 17.5127 23.182 16.6475 23.6786 15.7501H19.2412L25.0676 12.8401C27.3596 7.26582 27.901 1.4361 28 0Z" fill="white"/>
</svg>
