<svg width="21" height="22" viewBox="0 0 21 22" fill="none" xmlns="http://www.w3.org/2000/svg">
<path d="M7.60613 3.448C8.20413 1.698 10.6221 1.645 11.3311 3.289L11.3911 3.449L12.1981 5.809C12.3831 6.35023 12.6819 6.84551 13.0746 7.26142C13.4672 7.67734 13.9444 8.00421 14.4741 8.22L14.6911 8.301L17.0511 9.107C18.8011 9.705 18.8541 12.123 17.2111 12.832L17.0511 12.892L14.6911 13.699C14.1497 13.8838 13.6542 14.1826 13.2381 14.5753C12.8221 14.9679 12.495 15.4452 12.2791 15.975L12.1981 16.191L11.3921 18.552C10.7941 20.302 8.37613 20.355 7.66813 18.712L7.60613 18.552L6.80013 16.192C6.61531 15.6506 6.3165 15.1551 5.92387 14.739C5.53124 14.3229 5.05392 13.9959 4.52413 13.78L4.30813 13.699L1.94813 12.893C0.197128 12.295 0.144128 9.877 1.78813 9.169L1.94813 9.107L4.30813 8.301C4.84936 8.11606 5.34464 7.81719 5.76055 7.42457C6.17646 7.03195 6.50334 6.55469 6.71913 6.025L6.80013 5.809L7.60613 3.448ZM17.4991 1.80688e-07C17.6862 -2.35972e-07 17.8695 0.0524783 18.0283 0.151472C18.187 0.250465 18.3148 0.392003 18.3971 0.56L18.4451 0.677L18.7951 1.703L19.8221 2.053C20.0096 2.1167 20.174 2.23462 20.2944 2.39182C20.4148 2.54902 20.4858 2.73842 20.4984 2.93602C20.511 3.13362 20.4647 3.33053 20.3653 3.50179C20.266 3.67304 20.118 3.81094 19.9401 3.898L19.8221 3.946L18.7961 4.296L18.4461 5.323C18.3823 5.51043 18.2643 5.6747 18.1071 5.79499C17.9498 5.91529 17.7604 5.98619 17.5628 5.99872C17.3652 6.01125 17.1683 5.96484 16.9971 5.86538C16.8259 5.76591 16.6881 5.61787 16.6011 5.44L16.5531 5.323L16.2031 4.297L15.1761 3.947C14.9886 3.8833 14.8243 3.76538 14.7039 3.60819C14.5835 3.45099 14.5125 3.26158 14.4999 3.06398C14.4872 2.86638 14.5335 2.66947 14.6329 2.49821C14.7323 2.32696 14.8803 2.18906 15.0581 2.102L15.1761 2.054L16.2021 1.704L16.5521 0.677C16.6196 0.479426 16.7471 0.307909 16.917 0.186499C17.0868 0.065089 17.2904 -0.000125281 17.4991 1.80688e-07Z" fill="white"/>
</svg>
