<svg width="142" height="23" viewBox="0 0 142 23" fill="none" xmlns="http://www.w3.org/2000/svg">
<g clip-path="url(#clip0_405_1136)">
<mask id="mask0_405_1136" style="mask-type:luminance" maskUnits="userSpaceOnUse" x="0" y="0" width="142" height="23">
<path d="M142 0H0V23H142V0Z" fill="white"/>
</mask>
<g mask="url(#mask0_405_1136)">
<path d="M7.65646 20.8908V4.57548H0.570312V0.889535H18.6857V4.57548H11.6567V20.8908H7.65646ZM23.6878 10.9187C23.6878 14.8618 26.5737 17.6048 30.6025 17.6048C33.6598 17.6048 36.0314 15.8333 36.8314 13.0617H30.4025V9.71865H41.4603V20.8908H37.8601L37.5458 18.2049C35.6599 20.205 33.1169 21.3194 30.1167 21.3194C24.1449 21.3194 19.6875 16.8619 19.6875 10.9187C19.6875 4.88978 24.1735 0.460938 30.3739 0.460938C35.4885 0.460938 39.4887 3.3754 40.7745 7.97568H36.7743C35.6885 5.60411 33.3455 4.14688 30.3453 4.14688C26.4594 4.14688 23.6878 6.94705 23.6878 10.9187Z" fill="white"/>
<path d="M130.029 1.34293L129.83 3.5041H128.641L129.057 1.34293H130.029ZM133.255 1.22656C134.61 1.22656 135.499 1.99959 135.499 3.23811C135.499 5.31616 132.407 4.62624 132.158 6.00607H135.574V7.16978H130.911V6.39674C130.911 3.41266 134.335 4.70105 134.335 3.17992C134.335 2.65625 133.887 2.34039 133.247 2.34039C132.523 2.34039 132.075 2.78094 132.075 3.55397H130.911C130.911 2.14921 131.867 1.22656 133.255 1.22656ZM138.94 7.29446C137.536 7.29446 136.455 6.28868 136.455 5.00029H137.619C137.619 5.6902 138.159 6.18062 138.932 6.18062C139.597 6.18062 140.046 5.80658 140.046 5.2746C140.046 4.70937 139.589 4.37688 138.874 4.37688H137.236L136.688 3.76178L136.829 1.35124H140.794V2.51495H137.843L137.793 3.48747H138.857C140.328 3.48747 141.21 4.14414 141.21 5.25797C141.21 6.42999 140.237 7.29446 138.94 7.29446Z" fill="#A6A6A6"/>
<path d="M108.609 21.0012V1H125.125V4.68594H112.61V9.85768H124.667V13.6008H112.61V21.0012H108.609Z" fill="#13A1DD"/>
<path d="M96.2111 7.65755V21.0012H92.2109V1H95.4111L107.841 14.258V1H111.841V21.0012H108.612L96.2111 7.65755Z" fill="#13A1DD"/>
<path d="M67.5195 11.4617C67.5195 5.43276 72.2055 1.00391 78.4916 1.00391C84.7491 1.00391 89.4351 5.20417 89.4351 11.4617C89.4351 17.6335 84.7491 21.8623 78.4916 21.8623C72.2341 21.8623 67.5195 17.4049 67.5195 11.4617ZM71.5197 11.4617C71.5197 15.3191 74.4342 18.0335 78.4916 18.0335C82.6347 18.0335 85.4349 15.3191 85.4349 11.4617C85.4349 7.5186 82.6347 4.83272 78.4916 4.83272C74.4056 4.83272 71.5197 7.5186 71.5197 11.4617Z" fill="#13A1DD"/>
<path d="M48.6682 11.4617C48.6682 15.3191 51.5827 18.0336 55.6401 18.0336C58.526 18.0336 60.7832 16.6906 61.8976 14.5191H66.1264C64.8978 19.005 60.7832 21.8624 55.6401 21.8624C49.3825 21.8624 44.668 17.4049 44.668 11.4617C44.668 5.43275 49.354 1.00391 55.6401 1.00391C60.7832 1.00391 64.8692 3.86123 66.1264 8.34721H61.8976C60.8118 6.14708 58.5545 4.83272 55.6401 4.83272C51.5541 4.83272 48.6682 7.51859 48.6682 11.4617Z" fill="#13A1DD"/>
</g>
</g>
<defs>
<clipPath id="clip0_405_1136">
<rect width="142" height="23" fill="white"/>
</clipPath>
</defs>
</svg>
