<svg width="380" height="70" viewBox="0 0 380 70" fill="none" xmlns="http://www.w3.org/2000/svg">
<path d="M28.6216 37.8677C27.8771 37.8677 27.2734 38.4713 27.2734 39.2158V39.9091L27.275 39.9427C27.4154 42.7487 29.5322 45.5588 33.1343 45.8357L33.1861 45.8397H33.8973C34.6418 45.8397 35.2455 45.2361 35.2455 44.4916C35.2455 43.747 34.6418 43.1434 33.8973 43.1434H33.2929C31.2224 42.9618 30.0623 41.4054 29.9698 39.8388V39.2158C29.9698 38.4713 29.3661 37.8677 28.6216 37.8677Z" fill="white"/>
<path fill-rule="evenodd" clip-rule="evenodd" d="M32.3166 16.083C25.348 16.3897 19.9609 22.11 19.6111 29.0765C19.4356 32.5705 19.2988 35.6948 19.2988 38.599C19.2988 41.3077 19.4178 44.0199 19.5762 47.1372C19.9284 54.0691 25.3067 59.7376 32.2407 60.0485C33.2908 60.0957 34.3084 60.1236 35.2431 60.1236C36.2069 60.1236 37.2591 60.0939 38.3441 60.044C45.233 59.7282 50.5911 54.1262 50.9308 47.2386C51.0786 44.2399 51.1873 41.5602 51.1873 38.599C51.1873 35.2915 51.0665 32.2402 50.9061 28.9445C50.5702 22.0357 45.2081 16.4023 38.2979 16.0887C37.2293 16.0402 36.1932 16.0112 35.2431 16.0112C34.331 16.0112 33.3399 16.0379 32.3166 16.083ZM23.4863 29.8755C23.7506 24.5655 27.7825 20.2285 32.9755 19.9892C33.7689 19.9527 34.5375 19.9309 35.2431 19.9309C35.9839 19.9309 36.7941 19.9549 37.6293 19.9948C42.7682 20.2403 46.7736 24.496 47.0223 29.7513C47.0459 30.2522 47.0682 30.679 47.0883 31.0659C47.1567 32.3779 47.2012 33.2375 47.2012 35.0195C47.2012 36.7773 47.1524 37.7778 47.0792 39.2824C47.0674 39.5241 47.0547 39.779 47.0419 40.0521C46.7929 45.2871 42.7918 49.5127 37.6728 49.7603C36.8223 49.8016 35.9968 49.8263 35.2431 49.8263C34.5169 49.8263 33.7238 49.8032 32.9058 49.7649C27.7446 49.5218 23.7213 45.2331 23.4589 39.9555C23.4418 39.611 23.4254 39.2958 23.4104 39.0001C23.3352 37.5473 23.2851 36.5761 23.2851 35.0195C23.2851 33.524 23.3312 32.703 23.4012 31.456C23.427 31.0031 23.4554 30.4936 23.4863 29.8755Z" fill="white"/>
<path fill-rule="evenodd" clip-rule="evenodd" d="M18.1397 0H52.3508C59.8595 0 61.8004 0.779123 63.6754 1.78197C65.6997 2.86462 67.2588 4.42356 68.3413 6.44791C69.3442 8.32311 70.1233 10.2637 70.1233 17.7725V18.9551C70.1233 19.4988 69.6874 19.9415 69.1441 19.9645C68.9769 19.9716 68.8079 19.9797 68.6375 19.9887C64.0934 20.228 60.5657 24.5649 60.3344 29.8749C60.3076 30.4891 60.2826 30.9967 60.2603 31.4477L60.2601 31.453C60.1986 32.7001 60.1581 33.5235 60.1581 35.0189C60.1581 36.5756 60.2021 37.5452 60.2676 38.9977C60.281 39.2939 60.2955 39.61 60.3105 39.955C60.5399 45.2326 64.0602 49.5212 68.5766 49.7643C68.7674 49.7745 68.9571 49.7836 69.1441 49.7917C69.6874 49.8147 70.1233 50.2574 70.1233 50.801V51.9836C70.1233 59.4923 69.3442 61.4332 68.3413 63.3083C67.2588 65.3325 65.6997 66.8916 63.6754 67.9741C61.8004 68.977 59.8595 69.7561 52.3508 69.7561H18.1397C10.6309 69.7561 8.6903 68.977 6.8151 67.9741C4.79075 66.8916 3.2318 65.3325 2.14916 63.3083C1.14631 61.4332 0.367188 59.4923 0.367188 51.9836V50.801C0.367188 50.2574 0.80311 49.8147 1.34638 49.7917C1.55994 49.7825 1.77642 49.7718 1.99476 49.7597C6.47394 49.5121 9.97502 45.2865 10.1927 40.0516C10.2039 39.7827 10.2146 39.5316 10.2248 39.2934L10.2253 39.2813C10.2896 37.7767 10.3324 36.7768 10.3324 35.0189C10.3324 33.2369 10.2932 32.3765 10.2334 31.0648C10.2158 30.6777 10.1964 30.2516 10.1756 29.7507C9.95812 24.4954 6.45341 20.2397 1.95682 19.9942C1.75134 19.983 1.54757 19.9731 1.34638 19.9645C0.803136 19.9415 0.367188 19.4988 0.367188 18.9551V17.7725C0.367188 10.2637 1.14631 8.32311 2.14916 6.44791C3.2318 4.42356 4.79075 2.86462 6.8151 1.78197C8.6903 0.779123 10.6309 0 18.1397 0ZM32.1669 12.631C23.2952 13.0216 16.596 20.2817 16.1631 28.9027C15.9877 32.3966 15.8465 35.5982 15.8465 38.5982C15.8465 41.4021 15.9698 44.1902 16.1284 47.3118C16.5653 55.9109 23.2673 63.1036 32.0883 63.499C33.1738 63.5476 34.2453 63.5776 35.2453 63.5776C36.2766 63.5776 37.3838 63.5457 38.5047 63.4945C47.2616 63.0926 53.9606 55.9839 54.3834 47.4079C54.532 44.3931 54.6442 41.646 54.6442 38.5982C54.6442 35.2062 54.52 32.0889 54.359 28.776C53.9412 20.1863 47.2452 13.0359 38.457 12.637C37.3527 12.5869 36.2621 12.556 35.2453 12.556C34.2692 12.556 33.2253 12.5845 32.1669 12.631Z" fill="white"/>
<path d="M307.7 12.8184C306.184 14.3014 303.914 14.9435 300.926 14.9435C297.947 14.9435 295.615 14.3014 294.143 12.8184C292.627 11.3896 291.936 9.19215 291.936 6.36171V6H296.785V6.36171C296.785 7.88092 297.122 8.85756 297.69 9.39111L297.708 9.4092C298.284 9.99697 299.348 10.2864 300.917 10.2864C302.487 10.2864 303.498 9.99697 304.074 9.4092L304.092 9.39111C304.677 8.85756 305.058 7.87188 305.058 6.36171V6H309.908V6.36171C309.908 9.20119 309.154 11.3986 307.7 12.8184Z" fill="white"/>
<path fill-rule="evenodd" clip-rule="evenodd" d="M276.019 41.3845C276.489 40.7422 276.808 39.9376 277.029 38.8703L277.1 38.572H282.74L282.678 38.9881C282.394 40.8146 281.871 42.3791 281.037 43.6451C280.221 44.9563 279.22 45.9873 277.978 46.7648C276.746 47.5426 275.345 48.0763 273.784 48.4288C272.162 48.7816 270.433 48.8991 268.544 48.8991C266.194 48.8991 264.12 48.6638 262.267 48.1305C260.405 47.6601 258.764 46.7648 257.47 45.5621C256.175 44.3505 255.182 42.7319 254.482 40.7242C253.781 38.7619 253.436 36.2931 253.436 33.3722C253.436 30.3882 253.773 27.8561 254.473 25.8396C255.164 23.832 256.158 22.1592 257.452 20.8931L257.461 20.884C258.747 19.6903 260.334 18.7951 262.196 18.2616H262.205C264.049 17.7913 266.124 17.502 268.42 17.502C272.791 17.502 276.285 18.6233 278.865 20.8931C281.401 23.19 282.669 26.6533 282.669 31.2382V35.4794H259.119C259.154 37.1433 259.42 38.5269 259.828 39.5577C260.263 40.6609 260.91 41.5382 261.708 42.1891C262.506 42.8494 263.472 43.2835 264.616 43.5094C265.787 43.7356 267.072 43.8531 268.526 43.8531C269.653 43.8531 270.654 43.7989 271.648 43.6269H271.665C272.579 43.5094 273.394 43.2381 274.157 42.8494L274.165 42.8403H274.174C274.901 42.5237 275.478 42.0445 276.019 41.3845ZM261.93 24.1848C261.132 24.7815 260.484 25.6043 259.997 26.7075C259.545 27.7295 259.27 29.0135 259.181 30.6595H276.896C276.87 29.1222 276.648 27.8923 276.249 26.8704C275.815 25.758 275.274 24.9443 274.538 24.2932C273.793 23.6874 272.933 23.2533 271.905 22.9729C270.849 22.7467 269.679 22.575 268.411 22.575C267.072 22.575 265.902 22.6925 264.794 22.9187C263.712 23.1358 262.736 23.5787 261.93 24.1848Z" fill="white"/>
<path d="M322.642 38.2655C322.748 37.0628 322.863 35.5166 322.863 33.5632V18.3892H346.608V48.0499H340.907V23.4531H328.396V34.2596C328.396 38.9167 327.713 42.4072 326.419 44.6318C325.089 46.9649 322.917 48.0499 319.982 48.0499H318.723V42.6967H319.077C319.787 42.6967 320.345 42.5791 320.78 42.335L320.797 42.3259L320.806 42.3168C321.214 42.1359 321.622 41.6927 321.941 41.0418C322.252 40.3998 322.473 39.5225 322.642 38.2655Z" fill="white"/>
<path d="M244.279 38.1839C244.058 39.3596 243.677 40.2908 243.207 40.9962C242.666 41.7648 242.081 42.3076 241.389 42.7414C240.636 43.1755 239.829 43.4559 238.898 43.6187C237.905 43.7904 236.903 43.8449 235.776 43.8449C234.26 43.8449 232.93 43.7271 231.769 43.4467C230.572 43.1666 229.614 42.6783 228.878 41.9277L228.87 41.9185C228.071 41.159 227.477 40.1191 227.034 38.7717C226.6 37.4332 226.369 35.6247 226.369 33.3911C226.369 31.1031 226.591 29.2857 227.034 27.8297C227.477 26.419 228.071 25.3249 228.87 24.5742L228.878 24.5651C229.614 23.8147 230.572 23.3173 231.769 23.046C232.93 22.7657 234.269 22.5939 235.776 22.5939C236.823 22.5939 237.825 22.7023 238.729 22.8199C239.598 22.9918 240.405 23.2631 241.158 23.6972C241.85 24.1313 242.444 24.6829 242.985 25.3971C243.464 26.1024 243.845 26.9797 244.058 28.0921L244.111 28.3813H249.821L249.741 27.9563C249.396 26.0211 248.872 24.348 248.048 23.0189C247.232 21.7075 246.23 20.6314 245.06 19.7906L245.051 19.7814C243.881 19.0038 242.471 18.4069 240.91 18.0543C239.296 17.7016 237.621 17.5298 235.785 17.5298C233.427 17.5298 231.361 17.8192 229.517 18.2894H229.508C227.646 18.8229 226.006 19.7181 224.711 20.9117L224.702 20.9209C223.408 22.1869 222.415 23.8598 221.723 25.8674C221.023 27.8839 220.686 30.416 220.686 33.4002C220.686 36.3212 221.031 38.7897 221.723 40.752C222.415 42.7596 223.417 44.3783 224.711 45.5901C226.006 46.7929 227.646 47.6879 229.508 48.1582C231.361 48.6919 233.436 48.9269 235.785 48.9269C237.683 48.9269 239.412 48.7552 241.026 48.4024C242.595 48.0498 243.996 47.4529 245.228 46.6118C246.47 45.771 247.463 44.6948 248.287 43.3204C249.112 41.991 249.635 40.3179 249.928 38.3194L249.99 37.9035H244.351L244.279 38.1839Z" fill="white"/>
<path d="M374.292 38.1839L374.346 37.8856V37.9035H380.001L379.94 38.3194C379.647 40.3179 379.124 41.991 378.298 43.3204C377.474 44.6948 376.481 45.771 375.239 46.6118C374.008 47.4529 372.607 48.0498 371.038 48.4024C369.422 48.7552 367.695 48.9269 365.798 48.9269C363.448 48.9269 361.374 48.6919 359.52 48.1582C357.658 47.6879 356.017 46.7929 354.723 45.5901C353.428 44.3783 352.435 42.7596 351.735 40.752C351.043 38.7897 350.697 36.3212 350.697 33.4002C350.697 30.416 351.034 27.8839 351.735 25.8674C352.426 23.8598 353.419 22.1869 354.714 20.9209L354.723 20.9117C356.017 19.7181 357.658 18.8229 359.52 18.2894H359.528C361.374 17.8192 363.44 17.5298 365.798 17.5298C367.633 17.5298 369.307 17.7016 370.922 18.0543C372.492 18.4069 373.892 19.0038 375.062 19.7814L375.073 19.7906C376.243 20.6314 377.243 21.7075 378.059 23.0189C378.885 24.348 379.408 26.0211 379.752 27.9563L379.832 28.3813H374.123L374.069 28.0921C373.857 26.9797 373.476 26.1024 372.996 25.3971C372.457 24.6829 371.861 24.1313 371.169 23.6972C370.415 23.2631 369.61 22.9918 368.741 22.8199C367.837 22.7023 366.833 22.5939 365.787 22.5939C364.282 22.5939 362.943 22.7657 361.782 23.046C360.584 23.3173 359.626 23.8147 358.89 24.5651L358.881 24.5742C358.083 25.3249 357.489 26.419 357.046 27.8297C356.602 29.2857 356.381 31.1031 356.381 33.3911C356.381 35.6247 356.611 37.4332 357.046 38.7717C357.489 40.1191 358.083 41.159 358.881 41.9185L358.89 41.9277C359.626 42.6783 360.584 43.1666 361.782 43.4467C362.943 43.7271 364.271 43.8449 365.787 43.8449C366.914 43.8449 367.917 43.7904 368.91 43.6187C369.841 43.4559 370.646 43.1755 371.4 42.7414C372.092 42.3076 372.677 41.7648 373.219 40.9962C373.688 40.2908 374.069 39.3596 374.292 38.1839Z" fill="white"/>
<path fill-rule="evenodd" clip-rule="evenodd" d="M212.235 20.0162C209.885 18.3344 206.622 17.5205 202.552 17.5205C200.602 17.5205 198.82 17.6923 197.312 18.054C195.743 18.4067 194.395 19.0035 193.278 19.7903L193.269 19.7994C192.143 20.6494 191.256 21.7255 190.556 23.0458C189.846 24.3752 189.386 26.0389 189.155 27.9832L189.111 28.3902H194.643L194.688 28.0827C194.856 26.9524 195.122 26.0751 195.548 25.3789L195.565 25.3606C195.938 24.6553 196.408 24.1219 197.037 23.6969C197.667 23.2717 198.412 22.9916 199.334 22.8287C200.229 22.7112 201.347 22.6026 202.57 22.6026C205.381 22.6026 207.269 23.118 208.431 23.977C209.557 24.809 210.16 26.2379 210.16 28.3719V30.4158C209.5 30.4077 208.896 30.3643 208.323 30.323L208.103 30.3071H208.067C207.349 30.3071 206.622 30.2529 205.886 30.1896H205.851C205.469 30.1896 205.097 30.1805 204.698 30.1625H204.663C204.255 30.1445 203.82 30.1354 203.359 30.1354C202.934 30.1354 202.499 30.1263 202.029 30.1083H201.949C201.453 30.0901 200.921 30.0812 200.353 30.0812C197.889 30.0812 195.858 30.3704 194.28 30.9132H194.271C192.71 31.5008 191.469 32.2152 190.574 33.1376C189.625 34.0509 189.022 35.0819 188.667 36.176C188.313 37.2613 188.197 38.3465 188.197 39.3593C188.197 41.0592 188.428 42.5695 189.022 43.7993C189.554 45.0021 190.325 46.0328 191.345 46.7653C192.303 47.5522 193.482 48.0947 194.821 48.4475C196.169 48.8091 197.622 48.9267 199.218 48.9267C201.639 48.9267 203.856 48.5108 205.842 47.561C207.766 46.6386 209.211 45.2009 210.16 43.2748V48.0585H215.861V28.354C215.852 24.5649 214.629 21.7164 212.235 20.0162ZM210.151 37.5416C210.045 38.889 209.708 39.9743 209.193 40.77C208.652 41.5929 207.961 42.244 207.119 42.669C206.241 43.1119 205.257 43.4465 204.157 43.6185C203.04 43.7902 201.985 43.8444 200.859 43.8444C198.376 43.8444 196.585 43.501 195.477 42.8498C194.439 42.244 193.898 41.1225 193.898 39.2869C193.898 38.672 193.952 38.0841 194.156 37.5687L194.173 37.5325C194.315 37.0351 194.661 36.5197 195.238 36.1039L195.255 36.0856C195.76 35.6786 196.594 35.3441 197.72 35.0548C198.828 34.8287 200.389 34.657 202.295 34.657C202.836 34.657 203.395 34.6658 203.989 34.6841H204.068C204.689 34.702 205.345 34.7112 206.028 34.7112C207.296 34.7654 208.697 34.8195 210.16 34.874V37.5416H210.151Z" fill="white"/>
<path fill-rule="evenodd" clip-rule="evenodd" d="M145.755 33.0657C147.803 33.3281 149.47 33.9068 150.685 34.9105C151.917 36.0408 152.565 37.7139 152.556 39.9928C152.556 41.1502 152.316 42.1721 151.961 43.1308C151.598 44.1165 150.995 44.9755 150.162 45.708C149.337 46.4313 148.335 47.0371 147.156 47.4532H147.147C145.906 47.8782 144.505 48.0499 142.891 48.0499H126.311V18.3892H141.65C143.494 18.3892 145.072 18.6243 146.358 19.0403H146.376C147.652 19.5105 148.663 20.053 149.497 20.7854C150.321 21.5179 150.933 22.3139 151.297 23.2452C151.651 24.1496 151.829 25.0628 151.829 26.0394C151.829 28.1825 151.243 29.9098 150.135 31.0401L150.126 31.0493C149.044 32.0983 147.59 32.7494 145.755 32.9665V33.0657ZM141.26 23.4531H132.021V30.6514H142.288C143.831 30.6514 144.833 30.2626 145.356 29.5844C145.879 28.8337 146.189 27.9837 146.189 26.9076C146.189 26.374 146.092 25.8948 145.977 25.4336C145.888 25.0808 145.666 24.7916 145.338 24.457C145.001 24.1675 144.505 23.9505 143.831 23.7246C143.184 23.5617 142.306 23.4531 141.26 23.4531ZM141.765 42.9859C143.379 42.9859 144.62 42.7055 145.569 42.163C146.446 41.6656 146.917 40.7615 146.917 39.3508C146.917 38.2113 146.597 37.316 145.977 36.5745C145.4 35.8962 144.186 35.4892 142.217 35.4892H132.021V42.9859H141.765Z" fill="white"/>
<path d="M162.724 38.3468V18.3892H157.014V48.0499H160.365L177.903 28.3092V48.0499H183.605V18.3892H180.253L162.724 38.3468Z" fill="white"/>
<path fill-rule="evenodd" clip-rule="evenodd" d="M107.299 17.5205C111.368 17.5205 114.631 18.3344 116.981 20.0162C119.366 21.7164 120.589 24.5649 120.589 28.354V48.0496H114.888V43.2657C113.94 45.192 112.503 46.6298 110.57 47.5522C108.584 48.5017 106.368 48.9175 103.947 48.9175C102.351 48.9175 100.897 48.8 99.5491 48.4384C98.2103 48.0856 97.031 47.5431 96.0734 46.7564C95.0538 46.0237 94.2824 44.9929 93.7504 43.7902C93.1563 42.5603 92.9258 41.0501 92.9258 39.3502C92.9258 38.3374 93.041 37.2522 93.3957 36.1672C93.7504 35.0728 94.3533 34.042 95.302 33.1285C96.2064 32.2152 97.4477 31.5008 98.9905 30.9132H98.9994C100.578 30.3704 102.608 30.0812 105.073 30.0812C105.64 30.0812 106.172 30.0901 106.669 30.1083H106.749C107.219 30.1263 107.653 30.1354 108.079 30.1354C108.54 30.1354 108.974 30.1445 109.382 30.1625H109.418C109.817 30.1805 110.189 30.1896 110.57 30.1896H110.606C111.351 30.2529 112.078 30.3071 112.796 30.3071H112.831L113.052 30.323C113.625 30.3643 114.229 30.4077 114.888 30.4158V28.354C114.888 26.2197 114.285 24.791 113.159 23.9591C111.998 23.1 110.109 22.5846 107.299 22.5846C106.075 22.5846 104.958 22.693 104.062 22.8105C103.131 22.9733 102.395 23.2537 101.766 23.6787C101.136 24.1037 100.666 24.6373 100.294 25.3426L100.285 25.3518V25.3697C99.8683 26.066 99.5934 26.9433 99.425 28.0736L99.3807 28.3811H93.8479L93.8922 27.9741C94.1228 26.03 94.5838 24.3661 95.2932 23.0367C95.9936 21.7164 96.8803 20.6403 98.0063 19.7903L98.0152 19.7812C99.1324 18.9945 100.48 18.4067 102.058 18.054C103.566 17.6923 105.348 17.5205 107.299 17.5205ZM113.931 40.77C114.445 39.9743 114.773 38.889 114.888 37.5416H114.897V34.874C113.434 34.8195 112.024 34.7654 110.765 34.7112C110.083 34.7112 109.426 34.702 108.806 34.6841H108.726C108.132 34.6658 107.573 34.657 107.033 34.657C105.126 34.657 103.566 34.8287 102.457 35.0548C101.331 35.3441 100.498 35.6786 99.9925 36.0856L99.9747 36.1039C99.3984 36.5197 99.0526 37.0351 98.9107 37.5325L98.893 37.5687C98.6891 38.0841 98.6359 38.672 98.6359 39.2869C98.6359 41.1225 99.1767 42.244 100.214 42.8498C101.322 43.501 103.113 43.8444 105.596 43.8444C106.722 43.8444 107.777 43.7902 108.894 43.6185C109.994 43.4465 110.978 43.1119 111.856 42.669C112.698 42.244 113.399 41.5929 113.931 40.77Z" fill="white"/>
<path d="M293.34 38.3468V18.3892H287.639V48.0499H290.981L308.519 28.3092V48.0499H314.221V18.3892H310.869L293.34 38.3468Z" fill="white"/>
</svg>
