<svg width="329" height="112" viewBox="0 0 329 112" fill="none" xmlns="http://www.w3.org/2000/svg">
<path d="M180.8 35V68.3C180.8 76.5 184.8 81.5 190.6 81.5C193.9 81.5 196.5 79.1 195.5 76.2C194.4 72.8 189.3 75.1 189.3 66.1V35C189.3 32.2 187.8 30.5 185 30.5C182.2 30.5 180.8 32.2 180.8 35ZM142 63.8C142 73.7 149.2 81.5 161 81.5C168.5 81.5 175 78.9 175 74.9C175 72.7 173.6 71.5 171.8 71.5C169.4 71.5 166.2 74 160.8 74C156 74 152.2 71.9 150.8 67.7H163.1C170.1 67.7 175.8 64.4 175.8 57.7C175.8 51.6 170.9 44.9 160.5 44.9C149.7 44.9 142 52.4 142 63.8ZM150.4 61.4C151.3 55.2 155.9 52.4 161.1 52.4C165 52.4 167.5 54.3 167.5 56.8C167.5 59.8 165.4 61.4 160.7 61.4H150.4ZM198.3 69.7C198.3 76.4 202.9 81.5 210.5 81.5C215.8 81.5 220.7 79 223.5 74.3C224.2 77.6 226.2 81.5 230.8 81.5C233.4 81.5 235.3 80 235.3 77.9C235.3 74.2 230.5 75.1 230.5 71.1V60.1C230.5 50.7 225 44.8 214.2 44.8C205.9 44.8 199.8 47.1 199.8 50.9C199.8 53.1 201.3 54.3 203.2 54.3C206 54.3 209.2 52.3 214.4 52.3C218.6 52.3 221.4 54.1 221.9 58.8H210.6C202.8 58.9 198.3 64 198.3 69.7ZM206.7 70.1C206.6 67.7 208.5 65.2 212.3 65.2H221.8C221.1 71.2 215.9 74.7 211.7 74.7C208.8 74.7 206.8 72.9 206.7 70.1ZM239.5 77.1C239.5 79.6 241 81.5 243.8 81.5C246.5 81.5 248.1 79.6 248.1 77.1V60.2C248.1 54.3 251.1 52.3 254.2 52.3C257 52.3 258.8 54.3 258.8 58.3V77.1C258.8 79.6 260.3 81.5 263 81.5C265.7 81.5 267.3 79.6 267.3 77.1L267.4 60.2C267.4 54.3 270.4 52.3 273.4 52.3C276.2 52.3 278 54.3 278 58.2V77C278 79.5 279.5 81.4 282.2 81.4C284.9 81.4 286.5 79.5 286.5 77V56.8C286.5 49.2 282.9 45 277.2 45C273.1 45 268.9 47.4 266.6 51.5C265.2 47.3 261.9 45 257.8 45C254.1 45 250.5 47.2 248.2 50.7V49C248.2 46.9 246.7 45 243.9 45C241.2 45 239.6 46.9 239.6 49.4V77.1H239.5ZM292 69.7C292 76.4 296.6 81.5 304.2 81.5C309.5 81.5 314.4 79 317.2 74.3C317.9 77.6 319.9 81.5 324.5 81.5C327.1 81.5 329 80 329 77.9C329 74.2 324.2 75.1 324.2 71.1V60.1C324.2 50.7 318.7 44.8 307.9 44.8C299.6 44.8 293.5 47.1 293.5 50.9C293.5 53.1 295 54.3 296.9 54.3C299.7 54.3 302.9 52.3 308.1 52.3C312.3 52.3 315.1 54.1 315.6 58.8H304.3C296.5 58.9 292 64 292 69.7ZM300.4 70.1C300.4 67.7 302.2 65.2 306 65.2H315.5C314.8 71.2 309.6 74.7 305.4 74.7C302.5 74.7 300.5 72.9 300.4 70.1Z" fill="white"/>
<circle cx="56" cy="56" r="56" fill="white"/>
<path d="M52.69 53.03C51.09 53.03 49.8 51.73 49.8 50.13C49.8 48.53 51.09 47.23 52.69 47.23C54.29 47.23 55.58 48.53 55.58 50.13C55.57 51.73 54.28 53.03 52.69 53.03ZM112 56.15C112 85.18 89.96 109.11 61.76 112C60.25 112.12 61.68 108.22 62.25 101.98C62.99 95.88 63.4 90.97 63.4 85.6C63.34 80.35 62.88 71.7 62.28 66.63C62.12 64.61 64.43 65.41 69.66 63.05C75.12 61.06 78.45 57.59 79.36 52.06C79.85 49.05 78.63 46.6 76.91 46.02C74.78 45.27 71.19 46.32 71.44 43.52C71.82 41.17 75.37 43.18 75.57 42.82C75.99 41.94 74.72 40.84 73.14 40.15C71.57 39.47 65.26 39.18 58.4 39.96C48.45 41.09 45.12 43.65 43.27 47.85C41.73 51.35 41.68 54.3 43.18 60.99C44.17 65.47 43.52 78.12 42.57 85.02C41.91 89.84 40.75 95.57 39.6 101.64C38.55 107.22 37.96 109.2 36.51 108.79C15.21 100.86 0 80.27 0 56.15C0 25.17 25.1 0 56 0C86.9 0 112 25.17 112 56.15ZM41.43 32.51C40.94 28.8 41.76 20.67 37.81 20.73C34.11 20.8 32.62 29.24 33.3 35.56C33.76 39.74 35.25 46.44 40.19 44.33C44.25 42.6 41.92 36.25 41.43 32.51ZM54.2 19.25C50.72 18.28 48.2 25.19 47.31 28.84C46.61 31.37 45.49 37.8 50.54 37.8C55.09 37.8 54.37 32.01 54.85 29.81C55.3 27.78 57.78 20.25 54.2 19.25Z" fill="#3A64F8"/>
</svg>
