<svg width="141" height="49" viewBox="0 0 141 49" fill="none" xmlns="http://www.w3.org/2000/svg">
<g clip-path="url(#clip0_3360_2014)">
<mask id="mask0_3360_2014" style="mask-type:luminance" maskUnits="userSpaceOnUse" x="0" y="0" width="141" height="49">
<path d="M0 0.259766H141V48.2598H0V0.259766Z" fill="white"/>
</mask>
<g mask="url(#mask0_3360_2014)">
<path d="M19.3524 23.3813L30.0923 38.9267H24.0796L14.8325 25.6675H10.3956V38.9267H5.12927V14.3617H1.14844L3.80233 9.41553H10.3956V21.0953H14.8325L23.6235 9.41553H29.5948L19.3524 23.3813ZM28.4752 28.286C28.4752 25.9861 29.0004 23.9771 30.051 22.2591C31.0737 20.6519 32.4698 19.4188 34.2391 18.5599C36.0083 17.7008 37.9158 17.2713 39.9615 17.2713C42.0626 17.2713 43.9562 17.6869 45.6425 18.5183C47.4118 19.3772 48.8078 20.6519 49.8306 22.3423C50.8535 24.0048 51.365 25.9861 51.365 28.286C51.365 30.6137 50.8535 32.6227 49.8306 34.3129C48.8078 35.9756 47.4118 37.2641 45.6425 38.1785C43.9009 39.0652 42.0072 39.5085 39.9615 39.5085C37.9435 39.5085 36.0498 39.0652 34.2806 38.1785C32.4836 37.2917 31.0599 36.0032 30.0095 34.3129C28.9865 32.5949 28.4752 30.586 28.4752 28.286ZM117.919 17.9364H122.605V20.8043C123.324 19.6959 124.278 18.8508 125.466 18.2688C126.683 17.6592 128.245 17.3544 130.152 17.3544C132.115 17.3544 133.857 17.7977 135.377 18.6845C136.842 19.5989 137.975 20.9013 138.777 22.5916C139.607 24.2543 140.021 26.1663 140.021 28.3276C140.021 30.5167 139.607 32.4564 138.777 34.1467C137.975 35.8093 136.842 37.0979 135.377 38.0123C134.686 38.4833 133.87 38.8297 132.93 39.0513C132.018 39.3008 131.092 39.4255 130.152 39.4255C128.521 39.4255 127.305 39.3008 126.503 39.0513C124.844 38.5525 123.669 37.7213 122.978 36.5575V46.3668H117.919V17.9364ZM54.0603 17.9364H59.0778V25.9168H67.6615V17.9364H72.6375V38.9267H67.6615V30.0733H59.0778V38.9267H54.0603V17.9364ZM74.8352 17.9364H94.1174V21.9265H86.985V38.9267H81.8847V21.9265H74.8352V17.9364ZM101.042 17.9364C102.922 23.0904 104.636 28.1891 106.184 33.2323C107.649 28.2444 109.308 23.1459 111.16 17.9364H116.219L108.506 39.3423C107.871 41.088 107.262 42.432 106.682 43.3741C106.046 44.3163 105.258 45.0228 104.318 45.494C103.406 45.9927 102.19 46.2421 100.669 46.2421C99.8122 46.2421 99.3422 46.2283 99.2593 46.2005L97.5591 42.2103C98.0844 42.3212 98.7341 42.3765 99.5081 42.3765C100.448 42.3765 101.208 42.238 101.789 41.9609C102.314 41.7392 102.715 41.4344 102.991 41.0465C103.268 40.6863 103.503 40.2291 103.696 39.6748L95.7346 17.9364H101.042ZM33.5756 28.2444C33.5756 30.5444 34.1285 32.304 35.2343 33.5232C36.3401 34.7148 37.8743 35.3105 39.8372 35.3105C41.8275 35.3105 43.3756 34.7148 44.4814 33.5232C45.6148 32.304 46.1816 30.5444 46.1816 28.2444C46.1816 26 45.6287 24.3096 44.5229 23.1735C43.4171 22.0097 41.8552 21.4279 39.8372 21.4279C37.8467 21.4279 36.2986 22.0097 35.1928 23.1735C34.1147 24.3096 33.5756 26 33.5756 28.2444ZM122.854 28.286C122.909 30.3643 123.462 32.0269 124.513 33.2739C125.563 34.5208 127.042 35.1443 128.95 35.1443C130.857 35.1443 132.322 34.5208 133.345 33.2739C134.396 32.0269 134.934 30.3643 134.962 28.286C134.934 26.2355 134.396 24.6005 133.345 23.3813C132.322 22.1344 130.857 21.5109 128.95 21.5109C127.042 21.5109 125.563 22.1205 124.513 23.3397C123.462 24.5591 122.909 26.2077 122.854 28.286Z" fill="white"/>
</g>
</g>
<defs>
<clipPath id="clip0_3360_2014">
<rect width="141" height="48" fill="white" transform="translate(0 0.259766)"/>
</clipPath>
</defs>
</svg>
