<svg width="829" height="191" viewBox="0 0 829 191" fill="none" xmlns="http://www.w3.org/2000/svg">
<path d="M282.506 3.09033H243.516V187.173H282.506V3.09033Z" fill="#262626"/>
<path d="M338.449 0H337.751C324.688 0 317.009 7.87786 317.009 20.7417C317.009 33.5058 325.386 41.4834 337.751 41.4834H338.449C351.213 41.4834 359.191 33.2067 359.191 20.7417C359.191 8.0773 351.213 0 338.449 0Z" fill="#262626"/>
<path d="M357.595 52.4521H318.605V187.174H357.595V52.4521Z" fill="#262626"/>
<path d="M609.387 76.2856L606.495 52.4526H571.394V187.174H610.284V120.96C610.284 83.1663 652.067 78.28 672.41 87.1551L672.509 49.7602C648.178 45.9708 625.741 55.6437 609.387 76.2856Z" fill="#262626"/>
<path d="M482.942 49.0616C453.425 49.0616 436.872 68.0084 429.991 81.2711V3.09082H391.399V187.074H427.099L429.891 165.634C437.869 175.905 454.821 190.564 480.748 190.564C521.733 190.564 547.66 163.839 547.66 117.569C547.76 71.5983 519.739 49.0616 482.942 49.0616ZM469.779 161.546C444.65 161.546 432.484 143.995 432.484 117.569C432.484 90.5451 447.542 73.5927 469.779 73.5927C493.014 73.5927 505.878 88.9496 505.878 117.569C505.878 144.992 491.618 161.546 469.779 161.546Z" fill="#262626"/>
<path d="M754.978 49.063C705.716 49.063 678.792 80.7739 678.792 119.764C678.792 158.755 707.611 190.466 754.978 190.466C795.065 190.466 817.502 170.522 825.181 145.193H784.794C781.404 152.472 776.019 157.957 767.842 160.649C763.554 162.046 759.066 162.943 752.485 162.644C737.028 161.946 721.472 148.484 721.073 127.343H828.571C832.56 85.2613 808.727 49.063 754.978 49.063ZM721.372 106.402C723.267 89.7487 738.424 77.0843 754.778 77.0843C772.329 77.0843 786.888 91.045 788.284 106.402H721.372Z" fill="#262626"/>
<path d="M179.097 94.9332L51.4554 130.733V106.501L176.105 71.0005L173.114 47.5663L51.4554 81.4711V57.3389L170.122 23.4342L167.13 0L51.4554 32.3092V57.3389L0 71.3994L3.09131 95.731L51.4554 81.4711V106.501L5.98319 118.966L8.97478 142.998L51.4554 130.733V155.663L11.8667 166.532L14.958 190.465L51.4554 179.894V155.663L181.989 118.467L179.097 94.9332Z" fill="#5734E7"/>
</svg>
