<svg width="1977" height="584" viewBox="0 0 1977 584" fill="none" xmlns="http://www.w3.org/2000/svg">
<g clip-path="url(#clip0_1_9)">
<path fill-rule="evenodd" clip-rule="evenodd" d="M1775.96 170.873H1977V198.549H1891.33V413.067H1861.62V198.549H1775.96V170.873Z" fill="#17AEB4"/>
<path fill-rule="evenodd" clip-rule="evenodd" d="M1531.14 413.066V170.871H1560.85V364.623L1709.44 170.871H1735.67V413.066H1705.95V219.314L1557.35 413.066H1531.14Z" fill="#17AEB4"/>
<path fill-rule="evenodd" clip-rule="evenodd" d="M1260.1 170.873H1289.81V385.385H1420.94V170.873H1450.65V385.385H1483.86V458.045H1455.89V413.067H1260.1V170.873Z" fill="#17AEB4"/>
<path fill-rule="evenodd" clip-rule="evenodd" d="M1081 167.415C1151.98 167.415 1205.82 218.277 1205.82 291.973C1205.82 363.936 1151.98 416.525 1081 416.525C1010.03 416.525 956.182 365.664 956.182 291.973C956.182 221.732 1008.28 167.415 1081 167.415ZM1081 388.849C1136.94 388.849 1174.36 346.64 1174.36 291.973C1174.36 235.573 1133.44 195.092 1081 195.092C1027.86 195.092 987.657 235.573 987.657 291.973C987.657 346.986 1028.55 388.849 1081 388.849Z" fill="#17AEB4"/>
<path fill-rule="evenodd" clip-rule="evenodd" d="M727.851 413.066V170.871C741.483 170.871 808.539 170.185 823.922 170.185C893.845 170.185 914.476 207.551 914.476 245.263C914.476 284.707 886.153 321.378 826.366 321.378C816.58 321.378 772.781 321.728 757.57 321.728V413.066H727.851ZM757.57 198.553V294.187C773.784 294.187 807.634 293.701 825.324 293.701C861.333 293.701 883.011 275.363 883.011 244.912C883.011 216.199 865.523 197.862 826.716 197.862C816.924 197.862 769.102 198.212 757.57 198.553Z" fill="#17AEB4"/>
<path fill-rule="evenodd" clip-rule="evenodd" d="M295.075 29.2C441.51 29.2 560.642 147.09 560.642 292C560.642 436.91 441.51 554.8 295.075 554.8C148.639 554.8 29.5075 436.91 29.5075 292C29.5075 147.09 148.639 29.2 295.075 29.2ZM295.075 0C132.11 0 0 130.733 0 292C0 453.267 132.11 584 295.075 584C458.039 584 590.149 453.267 590.149 292C590.149 130.733 458.039 0 295.075 0Z" fill="#17AEB4"/>
<path fill-rule="evenodd" clip-rule="evenodd" d="M295.075 138.7C380.494 138.7 449.989 207.471 449.989 292C449.989 376.529 380.494 445.3 295.075 445.3C209.655 445.3 140.16 376.529 140.16 292C140.16 207.471 209.655 138.7 295.075 138.7ZM295.075 109.5C193.22 109.5 110.653 191.206 110.653 292C110.653 392.794 193.22 474.5 295.075 474.5C396.929 474.5 479.496 392.794 479.496 292C479.496 191.206 396.929 109.5 295.075 109.5Z" fill="#17AEB4"/>
<path fill-rule="evenodd" clip-rule="evenodd" d="M295.075 248.2C319.482 248.2 339.336 267.847 339.336 292C339.336 316.153 319.482 335.8 295.075 335.8C270.667 335.8 250.813 316.153 250.813 292C250.813 267.847 270.667 248.2 295.075 248.2ZM295.075 219C254.335 219 221.306 251.685 221.306 292C221.306 332.315 254.335 365 295.075 365C335.815 365 368.843 332.315 368.843 292C368.843 251.685 335.815 219 295.075 219Z" fill="#17AEB4"/>
</g>
<defs>
<clipPath id="clip0_1_9">
<rect width="1977" height="584" fill="white"/>
</clipPath>
</defs>
</svg>
