<svg width="288" height="54" viewBox="0 0 288 54" fill="none" xmlns="http://www.w3.org/2000/svg">
<path d="M9.79718 11.103L0 42.9998L11.4524 33.4263L23.039 42.9998L34.6704 33.4263L46.3912 42.9998L36.3703 11.103L23.039 18.7976L9.79718 11.103Z" fill="#E46669"/>
<path d="M269.305 27.103V11.8687H271.854V16.7319H274.71C276.458 16.7319 277.85 17.2007 278.885 18.1382C279.92 19.0659 280.438 20.3208 280.438 21.9028V21.9321C280.438 23.5142 279.92 24.7739 278.885 25.7114C277.85 26.6392 276.458 27.103 274.71 27.103H269.305ZM274.666 18.8413H271.854V24.9937H274.666C275.643 24.9937 276.414 24.7153 276.98 24.1587C277.547 23.5923 277.83 22.8501 277.83 21.9321V21.9028C277.83 20.9751 277.542 20.2329 276.966 19.6763C276.399 19.1196 275.633 18.8413 274.666 18.8413ZM282.371 27.103V11.8687H284.92V27.103H282.371Z" fill="white"/>
<path d="M254.598 27.103V11.8687H261.116C262.542 11.8687 263.665 12.2202 264.485 12.9233C265.306 13.6265 265.716 14.5835 265.716 15.7944V15.8237C265.716 16.605 265.472 17.313 264.983 17.9478C264.505 18.5825 263.914 18.9731 263.211 19.1196V19.2368C263.855 19.3247 264.412 19.5249 264.881 19.8374C265.359 20.1499 265.73 20.5503 265.994 21.0386C266.258 21.5269 266.39 22.0835 266.39 22.7085V22.7378C266.39 23.6265 266.18 24.3979 265.76 25.0522C265.34 25.7065 264.739 26.2144 263.958 26.5757C263.177 26.9272 262.244 27.103 261.16 27.103H254.598ZM257.146 24.9937H260.94C261.868 24.9937 262.571 24.7983 263.05 24.4077C263.538 24.0171 263.782 23.4409 263.782 22.6792V22.6499C263.782 21.8687 263.509 21.2925 262.962 20.9214C262.425 20.5405 261.6 20.3501 260.486 20.3501H257.146V24.9937ZM257.146 18.2407H260.354C261.312 18.2407 262.02 18.0649 262.479 17.7134C262.947 17.3618 263.182 16.8198 263.182 16.0874V16.0581C263.182 15.3745 262.972 14.8569 262.552 14.5054C262.142 14.1538 261.536 13.978 260.735 13.978H257.146V18.2407Z" fill="white"/>
<path d="M243.172 20.0718H242.586V27.103H240.037V11.8687H242.586V18.314H243.172L249.178 11.8687H252.269L245.369 19.1929V18.9585L252.474 27.103H249.251L243.172 20.0718Z" fill="white"/>
<path d="M231.043 27.396C229.607 27.396 228.357 27.0737 227.293 26.4292C226.238 25.7749 225.423 24.8569 224.847 23.6753C224.271 22.4839 223.982 21.0825 223.982 19.4712V19.4565C223.982 17.855 224.275 16.4634 224.861 15.2817C225.447 14.1001 226.268 13.187 227.322 12.5425C228.377 11.8979 229.607 11.5757 231.014 11.5757C232.283 11.5757 233.372 11.8247 234.28 12.3228C235.188 12.811 235.901 13.4458 236.419 14.2271C236.946 15.0083 237.264 15.8335 237.371 16.7026L237.386 16.8198H234.896L234.866 16.7026C234.681 15.9409 234.271 15.272 233.636 14.6958C233.011 14.1196 232.137 13.8315 231.014 13.8315C230.135 13.8315 229.363 14.0659 228.699 14.5347C228.035 14.9937 227.518 15.6479 227.146 16.4976C226.775 17.3374 226.59 18.3335 226.59 19.4858V19.5005C226.59 20.6821 226.775 21.6929 227.146 22.5327C227.527 23.3726 228.05 24.0171 228.714 24.4663C229.388 24.9155 230.164 25.1401 231.043 25.1401C232.088 25.1401 232.933 24.8765 233.577 24.3491C234.231 23.812 234.666 23.1187 234.881 22.269L234.91 22.1519H237.415L237.4 22.2544C237.264 23.2212 236.907 24.0952 236.331 24.8765C235.765 25.6479 235.027 26.2632 234.119 26.7222C233.221 27.1714 232.195 27.396 231.043 27.396Z" fill="white"/>
<path d="M214.812 27.396C213.406 27.396 212.171 27.0737 211.106 26.4292C210.052 25.7847 209.227 24.8716 208.631 23.6899C208.045 22.4985 207.752 21.0972 207.752 19.4858V19.4565C207.752 17.8354 208.045 16.439 208.631 15.2671C209.227 14.0854 210.052 13.1772 211.106 12.5425C212.171 11.8979 213.401 11.5757 214.798 11.5757C216.204 11.5757 217.435 11.8979 218.489 12.5425C219.554 13.1772 220.379 14.0854 220.965 15.2671C221.561 16.439 221.858 17.8354 221.858 19.4565V19.4858C221.858 21.1069 221.561 22.5083 220.965 23.6899C220.379 24.8716 219.559 25.7847 218.504 26.4292C217.449 27.0737 216.219 27.396 214.812 27.396ZM214.827 25.1401C215.726 25.1401 216.502 24.9204 217.156 24.481C217.82 24.0317 218.333 23.3872 218.694 22.5474C219.065 21.6978 219.251 20.6772 219.251 19.4858V19.4565C219.251 18.2651 219.065 17.2495 218.694 16.4097C218.333 15.5698 217.815 14.9302 217.142 14.4907C216.478 14.0513 215.696 13.8315 214.798 13.8315C213.919 13.8315 213.143 14.0562 212.469 14.5054C211.805 14.9448 211.287 15.5845 210.916 16.4243C210.545 17.2544 210.359 18.2651 210.359 19.4565V19.4858C210.359 20.6772 210.545 21.6978 210.916 22.5474C211.287 23.3872 211.805 24.0317 212.469 24.481C213.143 24.9204 213.929 25.1401 214.827 25.1401Z" fill="white"/>
<path d="M183.67 27.103V5.96533H186.717L194.041 23.7778H194.129L201.453 5.96533H204.5V27.103H202.039V10.77H200.838L203.694 6.55127L195.198 27.103H192.972L184.476 6.55127L187.332 10.77H186.131V27.103H183.67Z" fill="white"/>
<path d="M160.76 27.103V11.8687H163.309V23.1919H164.539L162.796 24.1294L171.014 11.8687H173.533V27.103H170.984V15.7798H169.754L171.497 14.8423L163.279 27.103H160.76Z" fill="white"/>
<path d="M158.402 11.8687V13.978H153.495V27.103H150.946V13.978H146.039V11.8687H158.402Z" fill="white"/>
<path d="M138.553 27.396C137.117 27.396 135.867 27.0737 134.803 26.4292C133.748 25.7749 132.933 24.8569 132.356 23.6753C131.78 22.4839 131.492 21.0825 131.492 19.4712V19.4565C131.492 17.855 131.785 16.4634 132.371 15.2817C132.957 14.1001 133.777 13.187 134.832 12.5425C135.887 11.8979 137.117 11.5757 138.523 11.5757C139.793 11.5757 140.882 11.8247 141.79 12.3228C142.698 12.811 143.411 13.4458 143.929 14.2271C144.456 15.0083 144.773 15.8335 144.881 16.7026L144.896 16.8198H142.405L142.376 16.7026C142.19 15.9409 141.78 15.272 141.146 14.6958C140.521 14.1196 139.646 13.8315 138.523 13.8315C137.645 13.8315 136.873 14.0659 136.209 14.5347C135.545 14.9937 135.027 15.6479 134.656 16.4976C134.285 17.3374 134.1 18.3335 134.1 19.4858V19.5005C134.1 20.6821 134.285 21.6929 134.656 22.5327C135.037 23.3726 135.56 24.0171 136.224 24.4663C136.897 24.9155 137.674 25.1401 138.553 25.1401C139.598 25.1401 140.442 24.8765 141.087 24.3491C141.741 23.812 142.176 23.1187 142.391 22.269L142.42 22.1519H144.925L144.91 22.2544C144.773 23.2212 144.417 24.0952 143.841 24.8765C143.274 25.6479 142.537 26.2632 141.629 26.7222C140.73 27.1714 139.705 27.396 138.553 27.396Z" fill="white"/>
<path d="M122.322 27.396C120.916 27.396 119.681 27.0737 118.616 26.4292C117.562 25.7847 116.736 24.8716 116.141 23.6899C115.555 22.4985 115.262 21.0972 115.262 19.4858V19.4565C115.262 17.8354 115.555 16.439 116.141 15.2671C116.736 14.0854 117.562 13.1772 118.616 12.5425C119.681 11.8979 120.911 11.5757 122.308 11.5757C123.714 11.5757 124.944 11.8979 125.999 12.5425C127.063 13.1772 127.889 14.0854 128.475 15.2671C129.07 16.439 129.368 17.8354 129.368 19.4565V19.4858C129.368 21.1069 129.07 22.5083 128.475 23.6899C127.889 24.8716 127.068 25.7847 126.014 26.4292C124.959 27.0737 123.729 27.396 122.322 27.396ZM122.337 25.1401C123.235 25.1401 124.012 24.9204 124.666 24.481C125.33 24.0317 125.843 23.3872 126.204 22.5474C126.575 21.6978 126.761 20.6772 126.761 19.4858V19.4565C126.761 18.2651 126.575 17.2495 126.204 16.4097C125.843 15.5698 125.325 14.9302 124.651 14.4907C123.987 14.0513 123.206 13.8315 122.308 13.8315C121.429 13.8315 120.652 14.0562 119.979 14.5054C119.314 14.9448 118.797 15.5845 118.426 16.4243C118.055 17.2544 117.869 18.2651 117.869 19.4565V19.4858C117.869 20.6772 118.055 21.6978 118.426 22.5474C118.797 23.3872 119.314 24.0317 119.979 24.481C120.652 24.9204 121.438 25.1401 122.337 25.1401Z" fill="white"/>
<path d="M101.287 27.103V11.8687H107.806C109.231 11.8687 110.354 12.2202 111.175 12.9233C111.995 13.6265 112.405 14.5835 112.405 15.7944V15.8237C112.405 16.605 112.161 17.313 111.673 17.9478C111.194 18.5825 110.604 18.9731 109.9 19.1196V19.2368C110.545 19.3247 111.102 19.5249 111.57 19.8374C112.049 20.1499 112.42 20.5503 112.684 21.0386C112.947 21.5269 113.079 22.0835 113.079 22.7085V22.7378C113.079 23.6265 112.869 24.3979 112.449 25.0522C112.029 25.7065 111.429 26.2144 110.647 26.5757C109.866 26.9272 108.934 27.103 107.85 27.103H101.287ZM103.836 24.9937H107.63C108.558 24.9937 109.261 24.7983 109.739 24.4077C110.228 24.0171 110.472 23.4409 110.472 22.6792V22.6499C110.472 21.8687 110.198 21.2925 109.651 20.9214C109.114 20.5405 108.289 20.3501 107.176 20.3501H103.836V24.9937ZM103.836 18.2407H107.044C108.001 18.2407 108.709 18.0649 109.168 17.7134C109.637 17.3618 109.871 16.8198 109.871 16.0874V16.0581C109.871 15.3745 109.661 14.8569 109.241 14.5054C108.831 14.1538 108.226 13.978 107.425 13.978H103.836V18.2407Z" fill="white"/>
<path d="M91.3848 27.396C89.9785 27.396 88.7432 27.0737 87.6787 26.4292C86.624 25.7847 85.7988 24.8716 85.2031 23.6899C84.6172 22.4985 84.3242 21.0972 84.3242 19.4858V19.4565C84.3242 17.8354 84.6172 16.439 85.2031 15.2671C85.7988 14.0854 86.624 13.1772 87.6787 12.5425C88.7432 11.8979 89.9736 11.5757 91.3701 11.5757C92.7764 11.5757 94.0068 11.8979 95.0615 12.5425C96.126 13.1772 96.9512 14.0854 97.5371 15.2671C98.1328 16.439 98.4307 17.8354 98.4307 19.4565V19.4858C98.4307 21.1069 98.1328 22.5083 97.5371 23.6899C96.9512 24.8716 96.1309 25.7847 95.0762 26.4292C94.0215 27.0737 92.791 27.396 91.3848 27.396ZM91.3994 25.1401C92.2979 25.1401 93.0742 24.9204 93.7285 24.481C94.3926 24.0317 94.9053 23.3872 95.2666 22.5474C95.6377 21.6978 95.8232 20.6772 95.8232 19.4858V19.4565C95.8232 18.2651 95.6377 17.2495 95.2666 16.4097C94.9053 15.5698 94.3877 14.9302 93.7139 14.4907C93.0498 14.0513 92.2686 13.8315 91.3701 13.8315C90.4912 13.8315 89.7148 14.0562 89.041 14.5054C88.377 14.9448 87.8594 15.5845 87.4883 16.4243C87.1172 17.2544 86.9316 18.2651 86.9316 19.4565V19.4858C86.9316 20.6772 87.1172 21.6978 87.4883 22.5474C87.8594 23.3872 88.377 24.0317 89.041 24.481C89.7148 24.9204 90.501 25.1401 91.3994 25.1401Z" fill="white"/>
<path d="M64.1973 27.103V5.96533H66.834V15.106H78.4355V5.96533H81.0723V27.103H78.4355V17.479H66.834V27.103H64.1973Z" fill="white"/>
<path d="M278.787 49.103V38.6636H283.23C284.214 38.6636 284.979 38.911 285.525 39.4058C286.079 39.894 286.355 40.5483 286.355 41.3687V41.3882C286.355 41.909 286.193 42.3843 285.867 42.814C285.548 43.2437 285.145 43.5106 284.656 43.6147V43.7515C285.099 43.8101 285.48 43.95 285.799 44.1714C286.124 44.3862 286.375 44.6564 286.551 44.9819C286.733 45.3075 286.824 45.6785 286.824 46.0952V46.1147C286.824 46.7137 286.681 47.2378 286.395 47.687C286.108 48.1362 285.698 48.4845 285.164 48.7319C284.637 48.9793 283.999 49.103 283.25 49.103H278.787ZM280.486 47.6968H283.162C283.8 47.6968 284.282 47.5601 284.607 47.2866C284.933 47.0067 285.096 46.603 285.096 46.0757V46.0562C285.096 45.5093 284.907 45.1089 284.529 44.855C284.158 44.6011 283.595 44.4741 282.84 44.4741H280.486V47.6968ZM280.486 43.0679H282.713C283.383 43.0679 283.875 42.9409 284.188 42.687C284.507 42.4331 284.666 42.0588 284.666 41.564V41.5444C284.666 41.0952 284.529 40.7371 284.256 40.4702C283.982 40.2033 283.556 40.0698 282.977 40.0698H280.486V43.0679Z" fill="#868686"/>
<path d="M271.365 49.2886C270.382 49.2886 269.529 49.0705 268.807 48.6343C268.084 48.1981 267.524 47.5763 267.127 46.769C266.736 45.9618 266.541 45.0015 266.541 43.8882V43.8687C266.541 42.7554 266.736 41.7951 267.127 40.9878C267.524 40.1805 268.084 39.562 268.807 39.1323C269.529 38.6961 270.379 38.478 271.355 38.478C272.345 38.478 273.198 38.6961 273.914 39.1323C274.637 39.562 275.193 40.1805 275.584 40.9878C275.981 41.7951 276.18 42.7554 276.18 43.8687V43.8882C276.18 45.0015 275.981 45.9618 275.584 46.769C275.193 47.5763 274.637 48.1981 273.914 48.6343C273.198 49.0705 272.348 49.2886 271.365 49.2886ZM271.365 47.7847C272.01 47.7847 272.56 47.6317 273.016 47.3257C273.478 47.0132 273.829 46.5672 274.07 45.9878C274.318 45.4084 274.441 44.7085 274.441 43.8882V43.8687C274.441 43.0483 274.318 42.3485 274.07 41.769C273.829 41.1896 273.478 40.7469 273.016 40.4409C272.56 40.1349 272.007 39.9819 271.355 39.9819C270.711 39.9819 270.158 40.1349 269.695 40.4409C269.24 40.7469 268.888 41.1896 268.641 41.769C268.4 42.3485 268.279 43.0483 268.279 43.8687V43.8882C268.279 44.7085 268.4 45.4084 268.641 45.9878C268.888 46.5672 269.24 47.0132 269.695 47.3257C270.158 47.6317 270.714 47.7847 271.365 47.7847Z" fill="#868686"/>
<path d="M259.061 44.3374H258.553V49.103H256.854V38.6636H258.553V43.0386H259.061L263.113 38.6636H265.164L260.35 43.7222V43.4487L265.34 49.103H263.162L259.061 44.3374Z" fill="#868686"/>
<path d="M245.037 49.103V38.6636H246.736V46.4468H247.625L246.463 47.0718L252.049 38.6636H253.748V49.103H252.049V41.3198H251.16L252.322 40.6948L246.736 49.103H245.037Z" fill="#868686"/>
<path d="M241.932 49.103H240.232V44.7085H240.096C239.809 44.9233 239.454 45.0926 239.031 45.2163C238.608 45.3335 238.123 45.3921 237.576 45.3921C236.32 45.3921 235.369 45.0503 234.725 44.3667C234.08 43.6831 233.758 42.7847 233.758 41.6714V38.6636H235.457V41.6421C235.457 42.3452 235.639 42.8953 236.004 43.2925C236.375 43.6896 236.925 43.8882 237.654 43.8882C238.064 43.8882 238.436 43.8524 238.768 43.7808C239.1 43.7091 239.389 43.6147 239.637 43.4976C239.884 43.3739 240.083 43.2306 240.232 43.0679V38.6636H241.932V49.103Z" fill="#868686"/>
<path d="M227.361 49.2886C226.385 49.2886 225.535 49.0672 224.812 48.6245C224.096 48.1753 223.54 47.547 223.143 46.7397C222.752 45.9259 222.557 44.9657 222.557 43.8589V43.8394C222.557 42.7521 222.752 41.8081 223.143 41.0073C223.54 40.2065 224.096 39.5848 224.812 39.1421C225.529 38.6994 226.375 38.478 227.352 38.478C228.204 38.478 228.937 38.631 229.549 38.937C230.167 39.243 230.659 39.6499 231.023 40.1577C231.388 40.6655 231.619 41.2254 231.717 41.8374L231.727 41.9058H230.047L230.027 41.8667C229.904 41.3459 229.614 40.9032 229.158 40.5386C228.709 40.1675 228.107 39.9819 227.352 39.9819C226.727 39.9819 226.186 40.1414 225.73 40.4604C225.275 40.7729 224.92 41.2189 224.666 41.7983C224.419 42.3778 224.295 43.0614 224.295 43.8491V43.8589C224.295 44.6662 224.422 45.3628 224.676 45.9487C224.93 46.5347 225.285 46.9871 225.74 47.3062C226.202 47.6252 226.74 47.7847 227.352 47.7847C228.061 47.7847 228.637 47.6284 229.08 47.3159C229.529 46.9969 229.845 46.5444 230.027 45.9585L230.047 45.8999L231.727 45.8901L231.707 45.9878C231.577 46.6258 231.326 47.1955 230.955 47.6968C230.584 48.1916 230.099 48.5822 229.5 48.8687C228.901 49.1486 228.188 49.2886 227.361 49.2886Z" fill="#868686"/>
<path d="M211.248 49.103V38.6636H212.947V46.4468H213.836L212.674 47.0718L218.26 38.6636H219.959V49.103H218.26V41.3198H217.371L218.533 40.6948L212.947 49.103H211.248Z" fill="#868686"/>
<path d="M199.666 49.103V38.6636H208.133V49.103H206.434V40.0698H201.365V49.103H199.666Z" fill="#868686"/>
<path d="M187.879 51.8862H186.297V47.6968H187.176C187.553 47.4429 187.843 47.0197 188.045 46.4272C188.247 45.8283 188.37 45.1772 188.416 44.4741L188.816 38.6636H195.955V47.6968H197.615V51.8862H196.033V49.103H187.879V51.8862ZM194.256 47.6968V40.0698H190.32L189.988 44.5132C189.943 45.1512 189.848 45.7404 189.705 46.2808C189.568 46.8146 189.376 47.2443 189.129 47.5698V47.6968H194.256Z" fill="#868686"/>
<path d="M180.252 49.2886C179.269 49.2886 178.416 49.0705 177.693 48.6343C176.971 48.1981 176.411 47.5763 176.014 46.769C175.623 45.9618 175.428 45.0015 175.428 43.8882V43.8687C175.428 42.7554 175.623 41.7951 176.014 40.9878C176.411 40.1805 176.971 39.562 177.693 39.1323C178.416 38.6961 179.266 38.478 180.242 38.478C181.232 38.478 182.085 38.6961 182.801 39.1323C183.523 39.562 184.08 40.1805 184.471 40.9878C184.868 41.7951 185.066 42.7554 185.066 43.8687V43.8882C185.066 45.0015 184.868 45.9618 184.471 46.769C184.08 47.5763 183.523 48.1981 182.801 48.6343C182.085 49.0705 181.235 49.2886 180.252 49.2886ZM180.252 47.7847C180.896 47.7847 181.447 47.6317 181.902 47.3257C182.365 47.0132 182.716 46.5672 182.957 45.9878C183.204 45.4084 183.328 44.7085 183.328 43.8882V43.8687C183.328 43.0483 183.204 42.3485 182.957 41.769C182.716 41.1896 182.365 40.7469 181.902 40.4409C181.447 40.1349 180.893 39.9819 180.242 39.9819C179.598 39.9819 179.044 40.1349 178.582 40.4409C178.126 40.7469 177.775 41.1896 177.527 41.769C177.286 42.3485 177.166 43.0483 177.166 43.8687V43.8882C177.166 44.7085 177.286 45.4084 177.527 45.9878C177.775 46.5672 178.126 47.0132 178.582 47.3257C179.044 47.6317 179.601 47.7847 180.252 47.7847Z" fill="#868686"/>
<path d="M164.354 49.103V38.6636H172.82V49.103H171.121V40.0698H166.053V49.103H164.354Z" fill="#868686"/>
<path d="M151.258 49.4155C150.21 49.4155 149.311 49.116 148.562 48.5171C147.82 47.9181 147.247 47.0685 146.844 45.9683C146.447 44.868 146.248 43.5659 146.248 42.062V42.0425C146.248 40.5386 146.447 39.2397 146.844 38.146C147.247 37.0457 147.82 36.1961 148.562 35.5972C149.311 34.9982 150.21 34.6987 151.258 34.6987C152.312 34.6987 153.214 34.9982 153.963 35.5972C154.712 36.1961 155.288 37.0457 155.691 38.146C156.095 39.2397 156.297 40.5386 156.297 42.0425V42.062C156.297 43.5659 156.095 44.868 155.691 45.9683C155.288 47.0685 154.712 47.9181 153.963 48.5171C153.214 49.116 152.312 49.4155 151.258 49.4155ZM151.258 47.8823C151.948 47.8823 152.534 47.6447 153.016 47.1694C153.504 46.6942 153.878 46.0236 154.139 45.1577C154.399 44.2853 154.529 43.2534 154.529 42.062V42.0425C154.529 40.8511 154.399 39.8224 154.139 38.9565C153.878 38.0907 153.504 37.4233 153.016 36.9546C152.534 36.4793 151.948 36.2417 151.258 36.2417C150.581 36.2417 149.998 36.4793 149.51 36.9546C149.028 37.4233 148.657 38.0907 148.396 38.9565C148.143 39.8224 148.016 40.8511 148.016 42.0425V42.062C148.016 43.2534 148.143 44.2853 148.396 45.1577C148.657 46.0236 149.028 46.6942 149.51 47.1694C149.998 47.6447 150.581 47.8823 151.258 47.8823Z" fill="#868686"/>
<path d="M140.301 49.103V46.1831H133.387V44.5815C133.777 43.9435 134.171 43.299 134.568 42.6479C134.972 41.9969 135.376 41.3459 135.779 40.6948C136.189 40.0438 136.6 39.3993 137.01 38.7612C137.42 38.1167 137.83 37.4819 138.24 36.8569C138.65 36.2254 139.054 35.6102 139.451 35.0112H142.02V44.6108H144.012V46.1831H142.02V49.103H140.301ZM135.164 44.6206H140.311V36.6128H140.203C139.878 37.1011 139.546 37.6056 139.207 38.1265C138.875 38.6408 138.536 39.1649 138.191 39.6987C137.846 40.2326 137.501 40.7697 137.156 41.3101C136.818 41.8504 136.479 42.3908 136.141 42.9312C135.809 43.465 135.483 43.9956 135.164 44.5229V44.6206Z" fill="#868686"/>
<path d="M126.277 49.4155C125.398 49.4155 124.614 49.243 123.924 48.8979C123.24 48.5529 122.69 48.0809 122.273 47.4819C121.857 46.883 121.613 46.2091 121.541 45.4604L121.531 45.353H123.23L123.24 45.4312C123.299 45.8804 123.465 46.2905 123.738 46.6616C124.012 47.0327 124.367 47.3257 124.803 47.5405C125.245 47.7554 125.743 47.8628 126.297 47.8628C126.922 47.8628 127.472 47.7261 127.947 47.4526C128.429 47.1727 128.803 46.7886 129.07 46.3003C129.344 45.812 129.48 45.2521 129.48 44.6206V44.6011C129.48 43.9826 129.344 43.4325 129.07 42.9507C128.797 42.4624 128.423 42.0815 127.947 41.8081C127.479 41.5347 126.938 41.3979 126.326 41.3979C125.857 41.3979 125.424 41.4696 125.027 41.6128C124.63 41.756 124.275 41.9709 123.963 42.2573C123.839 42.3745 123.722 42.5015 123.611 42.6382C123.507 42.7749 123.41 42.9279 123.318 43.0972H121.785L122.527 35.0112H130.418V36.5835H123.924L123.445 41.3394H123.572C123.787 41.0203 124.048 40.7534 124.354 40.5386C124.666 40.3237 125.014 40.161 125.398 40.0503C125.789 39.9331 126.199 39.8745 126.629 39.8745C127.521 39.8745 128.309 40.0796 128.992 40.4897C129.682 40.8934 130.223 41.45 130.613 42.1597C131.01 42.8628 131.209 43.6668 131.209 44.5718V44.5913C131.209 45.5353 130.997 46.3719 130.574 47.1011C130.151 47.8237 129.568 48.3901 128.826 48.8003C128.09 49.2104 127.241 49.4155 126.277 49.4155Z" fill="#868686"/>
<path d="M108.582 49.4155C107.534 49.4155 106.635 49.116 105.887 48.5171C105.145 47.9181 104.572 47.0685 104.168 45.9683C103.771 44.868 103.572 43.5659 103.572 42.062V42.0425C103.572 40.5386 103.771 39.2397 104.168 38.146C104.572 37.0457 105.145 36.1961 105.887 35.5972C106.635 34.9982 107.534 34.6987 108.582 34.6987C109.637 34.6987 110.538 34.9982 111.287 35.5972C112.036 36.1961 112.612 37.0457 113.016 38.146C113.419 39.2397 113.621 40.5386 113.621 42.0425V42.062C113.621 43.5659 113.419 44.868 113.016 45.9683C112.612 47.0685 112.036 47.9181 111.287 48.5171C110.538 49.116 109.637 49.4155 108.582 49.4155ZM108.582 47.8823C109.272 47.8823 109.858 47.6447 110.34 47.1694C110.828 46.6942 111.202 46.0236 111.463 45.1577C111.723 44.2853 111.854 43.2534 111.854 42.062V42.0425C111.854 40.8511 111.723 39.8224 111.463 38.9565C111.202 38.0907 110.828 37.4233 110.34 36.9546C109.858 36.4793 109.272 36.2417 108.582 36.2417C107.905 36.2417 107.322 36.4793 106.834 36.9546C106.352 37.4233 105.981 38.0907 105.721 38.9565C105.467 39.8224 105.34 40.8511 105.34 42.0425V42.062C105.34 43.2534 105.467 44.2853 105.721 45.1577C105.981 46.0236 106.352 46.6942 106.834 47.1694C107.322 47.6447 107.905 47.8823 108.582 47.8823Z" fill="#868686"/>
<path d="M91.9316 49.103V47.8921L96.7363 42.7358C97.3483 42.0783 97.8236 41.5379 98.1621 41.1147C98.5007 40.6851 98.735 40.2977 98.8652 39.9526C99.002 39.6076 99.0703 39.23 99.0703 38.8198V38.8003C99.0703 38.312 98.9596 37.8758 98.7383 37.4917C98.5234 37.1011 98.2174 36.7951 97.8203 36.5737C97.4232 36.3459 96.9544 36.2319 96.4141 36.2319C95.8477 36.2319 95.3464 36.3491 94.9102 36.5835C94.4805 36.8179 94.1452 37.1434 93.9043 37.5601C93.6634 37.9702 93.543 38.4455 93.543 38.9858L93.5332 39.0151L91.8438 39.0054L91.834 38.9858C91.8405 38.159 92.0423 37.4233 92.4395 36.7788C92.8431 36.1278 93.3965 35.62 94.0996 35.2554C94.8027 34.8843 95.6003 34.6987 96.4922 34.6987C97.319 34.6987 98.0612 34.8713 98.7188 35.2163C99.3828 35.5614 99.9036 36.0301 100.281 36.6226C100.665 37.215 100.857 37.8888 100.857 38.644V38.6636C100.857 39.1909 100.763 39.702 100.574 40.1968C100.385 40.6851 100.057 41.2319 99.5879 41.8374C99.1191 42.4364 98.4551 43.1753 97.5957 44.0542L93.9043 47.8628L94.3633 46.9937V47.8628L93.9141 47.521H101.092V49.103H91.9316Z" fill="#868686"/>
<path d="M81.2773 49.103L87.6152 36.6909V36.5835H80.0664V35.0112H89.3926V36.6421L83.123 49.103H81.2773Z" fill="#868686"/>
<path d="M63.4746 49.103V47.8921L68.2793 42.7358C68.8913 42.0783 69.3665 41.5379 69.7051 41.1147C70.0436 40.6851 70.278 40.2977 70.4082 39.9526C70.5449 39.6076 70.6133 39.23 70.6133 38.8198V38.8003C70.6133 38.312 70.5026 37.8758 70.2812 37.4917C70.0664 37.1011 69.7604 36.7951 69.3633 36.5737C68.9661 36.3459 68.4974 36.2319 67.957 36.2319C67.3906 36.2319 66.8893 36.3491 66.4531 36.5835C66.0234 36.8179 65.6882 37.1434 65.4473 37.5601C65.2064 37.9702 65.0859 38.4455 65.0859 38.9858L65.0762 39.0151L63.3867 39.0054L63.377 38.9858C63.3835 38.159 63.5853 37.4233 63.9824 36.7788C64.3861 36.1278 64.9395 35.62 65.6426 35.2554C66.3457 34.8843 67.1432 34.6987 68.0352 34.6987C68.862 34.6987 69.6042 34.8713 70.2617 35.2163C70.9258 35.5614 71.4466 36.0301 71.8242 36.6226C72.2083 37.215 72.4004 37.8888 72.4004 38.644V38.6636C72.4004 39.1909 72.306 39.702 72.1172 40.1968C71.9284 40.6851 71.5996 41.2319 71.1309 41.8374C70.6621 42.4364 69.998 43.1753 69.1387 44.0542L65.4473 47.8628L65.9062 46.9937V47.8628L65.457 47.521H72.6348V49.103H63.4746Z" fill="#868686"/>
</svg>
