<svg width="82" height="24" viewBox="0 0 82 24" fill="none" xmlns="http://www.w3.org/2000/svg">
  <g clip-path="url(#clip0_3055_24064)">
    <path d="M9.608 24C15.158 24 19.183 20.321 19.183 15.139C19.183 9.95598 15.159 6.27698 9.608 6.27698C4.058 6.27698 0 9.95598 0 15.138C0 20.322 4.057 24 9.608 24ZM9.608 19.905C7.076 19.905 5.128 18.114 5.128 15.138C5.128 12.163 7.076 10.372 9.608 10.372C12.14 10.372 14.055 12.163 14.055 15.139C14.055 18.114 12.14 19.905 9.608 19.905ZM29.245 14.986C29.245 15.331 29.576 15.462 29.715 15.502C29.7554 15.5127 29.7972 15.5178 29.839 15.517H34.044C34.044 15.517 34.684 15.517 34.7 14.986V5.42398C34.7 5.42398 36.063 5.42398 39.472 3.40398C41.138 2.41498 41.99 1.42798 42.425 0.675985C42.709 0.185985 42.178 -0.171015 41.669 0.0859847C40.086 0.883985 36.919 2.05598 31.973 2.05598C27.026 2.05598 23.859 0.883985 22.276 0.0859847C21.766 -0.171015 21.236 0.185985 21.52 0.675985C21.955 1.42798 22.807 2.41598 24.473 3.40298C27.883 5.42298 29.246 5.42298 29.246 5.42298L29.245 14.986Z" fill="white"/>
    <path d="M27.0587 9.82598C27.0587 10.954 26.1147 11.868 24.9517 11.868C23.7887 11.868 22.8457 10.954 22.8457 9.82598C22.8457 8.69798 23.7887 7.78298 24.9517 7.78298C26.1147 7.78298 27.0587 8.69798 27.0587 9.82598ZM41.1007 9.82598C41.1007 10.954 40.1577 11.868 38.9947 11.868C37.8317 11.868 36.8887 10.954 36.8887 9.82598C36.8887 8.69798 37.8317 7.78298 38.9947 7.78298C40.1577 7.78298 41.1007 8.69798 41.1007 9.82598ZM25.9367 23.172C25.9383 23.2825 25.9616 23.3916 26.0054 23.493C26.0492 23.5944 26.1126 23.6863 26.1919 23.7632C26.2712 23.8401 26.365 23.9006 26.4677 23.9412C26.5705 23.9819 26.6802 24.0018 26.7907 24C26.9011 24.0017 27.0108 23.9816 27.1134 23.9409C27.216 23.9002 27.3096 23.8397 27.3889 23.7628C27.4681 23.6859 27.5314 23.5941 27.5751 23.4928C27.6188 23.3914 27.6421 23.2824 27.6437 23.172C27.6437 22.7 27.4867 22.345 28.0707 22.345C28.6537 22.345 28.4967 22.7 28.4967 23.172C28.4983 23.2825 28.5216 23.3916 28.5654 23.493C28.6092 23.5944 28.6726 23.6863 28.7519 23.7632C28.8312 23.8401 28.925 23.9006 29.0277 23.9412C29.1305 23.9819 29.2402 24.0018 29.3507 24C29.4611 24.0017 29.5708 23.9816 29.6734 23.9409C29.776 23.9002 29.8696 23.8397 29.9489 23.7628C30.0281 23.6859 30.0914 23.5941 30.1351 23.4928C30.1788 23.3914 30.2021 23.2824 30.2037 23.172C30.2037 22.587 30.2057 22.362 30.2027 22.294C30.1985 22.1993 30.1838 22.1054 30.1587 22.014C30.1038 21.8032 30.0065 21.6059 29.8727 21.434C29.5187 20.976 28.9187 20.69 28.0707 20.69C27.5507 20.69 27.1237 20.797 26.7907 20.986C26.4567 20.797 26.0297 20.69 25.5107 20.69C24.6617 20.69 24.0607 20.976 23.7067 21.434C23.5152 21.6823 23.4008 21.9813 23.3777 22.294C23.3777 22.298 23.3767 22.256 23.3767 23.172C23.3783 23.2824 23.4016 23.3914 23.4453 23.4928C23.489 23.5941 23.5523 23.6859 23.6315 23.7628C23.7108 23.8397 23.8044 23.9002 23.907 23.9409C24.0097 23.9816 24.1193 24.0017 24.2297 24C24.3402 24.0018 24.4499 23.9819 24.5527 23.9412C24.6554 23.9006 24.7492 23.8401 24.8285 23.7632C24.9078 23.6863 24.9712 23.5944 25.015 23.493C25.0588 23.3916 25.0821 23.2825 25.0837 23.172C25.0837 22.7 24.9267 22.345 25.5097 22.345C26.0937 22.345 25.9367 22.7 25.9367 23.172ZM36.6047 23.172C36.6063 23.2824 36.6296 23.3914 36.6733 23.4928C36.717 23.5941 36.7803 23.6859 36.8595 23.7628C36.9388 23.8397 37.0324 23.9002 37.135 23.9409C37.2377 23.9816 37.3473 24.0017 37.4577 24C37.5682 24.0018 37.6779 23.9819 37.7807 23.9412C37.8835 23.9006 37.9772 23.8401 38.0565 23.7632C38.1358 23.6863 38.1992 23.5944 38.243 23.493C38.2868 23.3916 38.3101 23.2825 38.3117 23.172C38.3117 22.7 38.1547 22.345 38.7377 22.345C39.3217 22.345 39.1647 22.7 39.1647 23.172C39.1663 23.2824 39.1896 23.3914 39.2333 23.4928C39.277 23.5941 39.3403 23.6859 39.4195 23.7628C39.4988 23.8397 39.5924 23.9002 39.695 23.9409C39.7977 23.9816 39.9073 24.0017 40.0177 24C40.1282 24.0018 40.2379 23.9819 40.3407 23.9412C40.4434 23.9006 40.5372 23.8401 40.6165 23.7632C40.6958 23.6863 40.7592 23.5944 40.803 23.493C40.8468 23.3916 40.8701 23.2825 40.8717 23.172C40.8717 22.587 40.8737 22.362 40.8697 22.294C40.8655 22.1993 40.8508 22.1054 40.8257 22.014C40.771 21.8033 40.674 21.606 40.5407 21.434C40.1867 20.976 39.5867 20.69 38.7377 20.69C38.2177 20.69 37.7917 20.797 37.4577 20.986C37.1237 20.797 36.6977 20.69 36.1777 20.69C35.3297 20.69 34.7287 20.976 34.3747 21.434C34.1829 21.6822 34.0681 21.9812 34.0447 22.294V23.172C34.0463 23.2824 34.0696 23.3914 34.1133 23.4928C34.157 23.5941 34.2203 23.6859 34.2995 23.7628C34.3788 23.8397 34.4724 23.9002 34.575 23.9409C34.6777 23.9816 34.7873 24.0017 34.8977 24C35.0081 24.0017 35.1178 23.9816 35.2204 23.9409C35.323 23.9002 35.4166 23.8397 35.4959 23.7628C35.5751 23.6859 35.6384 23.5941 35.6821 23.4928C35.7258 23.3914 35.7491 23.2824 35.7507 23.172C35.7507 22.7 35.5947 22.345 36.1777 22.345C36.7607 22.345 36.6047 22.7 36.6047 23.172ZM58.5537 6.64598C58.4433 6.64518 58.337 6.68821 58.2583 6.76564C58.1796 6.84306 58.1348 6.94856 58.1337 7.05898V15.101C58.1337 18.247 56.4457 19.709 54.1107 19.709C51.8727 19.709 50.5747 18.438 50.5747 15.577V7.05998C50.5736 6.94956 50.5288 6.84406 50.4501 6.76664C50.3714 6.68921 50.2651 6.64618 50.1547 6.64698H45.9347C45.8243 6.64618 45.718 6.68921 45.6393 6.76664C45.5606 6.84406 45.5158 6.94956 45.5147 7.05998V16.31C45.5147 21.585 48.5957 24.001 52.9747 24.001C55.1157 24.001 57.0627 23.206 58.3927 21.713V23.333C58.3927 23.562 58.5807 23.747 58.8127 23.747H62.7727C62.8831 23.7478 62.9894 23.7047 63.0681 23.6273C63.1468 23.5499 63.1916 23.4444 63.1927 23.334V7.05798C63.1916 6.94756 63.1468 6.84206 63.0681 6.76464C62.9894 6.68721 62.8831 6.64418 62.7727 6.64498L58.5537 6.64598ZM73.7007 24C78.9617 24 82.0007 21.729 82.0007 18.53C82.0007 11.747 71.3807 14.595 71.3807 11.651C71.3807 10.756 72.3607 10.051 74.6487 10.051C76.1257 10.051 77.7137 10.324 79.3107 11.12C79.5307 11.23 79.8027 11.145 79.9077 10.925L81.2477 8.12498C81.2937 8.03178 81.3012 7.92419 81.2684 7.82554C81.2357 7.72688 81.1653 7.64512 81.0727 7.59798C79.3967 6.75198 76.9087 6.27698 74.6487 6.27698C69.5187 6.27698 66.5127 8.57998 66.5127 11.843C66.5127 18.721 77.1327 15.843 77.1327 18.657C77.1327 19.617 76.2497 20.225 73.8967 20.225C71.9237 20.225 69.7587 19.662 68.2037 18.807C68.1508 18.7769 68.0923 18.7578 68.0319 18.751C67.9714 18.7442 67.9101 18.7498 67.8519 18.7673C67.7936 18.7849 67.7395 18.8142 67.6929 18.8533C67.6463 18.8924 67.6081 18.9406 67.5807 18.995L66.2427 21.818C66.1986 21.9079 66.1903 22.0112 66.2194 22.1069C66.2486 22.2027 66.313 22.2839 66.3997 22.334C68.0857 23.294 70.9077 24 73.7007 24Z" fill="white"/>
  </g>
  <defs>
    <clipPath id="clip0_3055_24064">
      <rect width="82" height="24" fill="white"/>
    </clipPath>
  </defs>
</svg>
