<svg width="159" height="36" viewBox="0 0 159 36" fill="none" xmlns="http://www.w3.org/2000/svg">
  <g clip-path="url(#clip0_3064_30778)">
    <path d="M5.5 8H14H27.5L29.5 14.5L27 22L27.5 26L23 30L20 26.5H16.5L13 30L12 29.5L8.5 26V25L10 22L8 19L5.5 8Z" fill="white" stroke="white"/>
    <path d="M13.687 1.43727C13.8623 1.02824 14.3286 0.829793 14.7449 0.98706L16.1821 1.53C16.4604 1.63513 16.7747 1.55139 16.9638 1.32176V1.32176C17.2319 0.996249 17.7258 0.982706 18.0113 1.29304L18.2856 1.59118C18.6038 1.93713 19.1136 2.02865 19.5324 1.815L20.5054 1.31857C21.2545 0.936371 22.146 0.958804 22.875 1.37819L29.1422 4.984C29.9068 5.42391 30.6072 5.96695 31.2238 6.59784L33.6858 9.11707C34.7087 10.1638 35.0561 11.6967 34.5845 13.0821V13.0821C34.4702 13.4179 34.4024 13.7678 34.3831 14.1219L34.3366 14.9743C34.2721 16.1577 33.7374 17.2664 32.8516 18.0539L32.7757 18.1213C32.0111 18.801 31.0236 19.1764 30.0005 19.1764V19.1764L28.5299 14.1764C28.6475 8.41171 22.0593 7.99995 20.2946 11.8235C18.5299 15.647 25.2357 21.0588 28.5299 14.1764L30.0005 19.1764C29.5326 20.9027 28.8718 21.9603 27.7199 23.0082C26.5085 24.1101 24.949 24.7303 23.3588 25.1217L20.4075 25.8482C18.8943 26.2206 17.3252 26.3098 15.7796 26.111L15.6963 26.1003C14.5714 25.9557 13.4726 25.6528 12.4324 25.2006L10.548 24.3812C8.45029 23.4692 6.86907 21.6685 6.23575 19.4705V19.4705L8.41222 10.4705C5.94163 17.9999 12.1236 17.6416 14.0005 16.8235C14.8828 16.4389 16.6475 14.7647 16.1769 12.8235C14.824 7.47053 8.41222 10.4705 8.41222 10.4705L6.23575 19.4705L4.78618 19.0093C4.03875 18.7715 3.36199 18.352 2.81654 17.7883V17.7883C2.20605 17.1575 1.78268 16.3696 1.59358 15.5123L1.16314 13.561C1.05521 13.0717 1.01631 12.5698 1.04756 12.0697V12.0697C1.13081 10.7378 1.70711 9.48469 2.66411 8.55465L5.35339 5.94112L6.53584 5.0095C7.03856 4.61342 7.60021 4.29851 8.20037 4.07623L9.94197 3.43119C10.2819 3.30529 10.5612 3.05484 10.7234 2.73061V2.73061C10.9653 2.24676 11.4598 1.94112 12.0008 1.94112H12.9229C13.2554 1.94112 13.556 1.74294 13.687 1.43727V1.43727Z" fill="#E9CB9C"/>
    <path d="M15.7642 26.5883H20.2348L19.8819 29.4118L20.8231 32.8236L18.0584 35.4706L15.1172 32.8236L16.4113 29.5294L15.7642 26.5883Z" fill="#58C310"/>
    <path fill-rule="evenodd" clip-rule="evenodd" d="M17.4416 1.32532C17.4391 1.3625 17.4378 1.4028 17.4378 1.44599C17.4378 1.58601 17.4512 1.72606 17.4655 1.83402C17.4725 1.88714 17.4795 1.93053 17.4845 1.95982C17.4871 1.97442 17.4891 1.9854 17.4904 1.99221L17.4917 1.99918L17.4917 1.99939L17.4918 1.99959C17.4918 1.99958 17.4918 1.99957 17.4911 1.99969L16.5956 2.4336C16.3882 2.18825 15.9729 1.8353 15.4818 1.5902C14.994 1.34676 14.5167 1.25089 14.125 1.36465C14.1577 1.44694 14.2757 1.61793 14.5916 1.76432L14.187 2.70149C14.1845 2.70776 14.1845 2.70777 14.1846 2.70778L14.1843 2.70768L14.1816 2.70661L14.177 2.70486C14.1739 2.70364 14.1698 2.70209 14.1649 2.70022C14.1493 2.69432 14.1249 2.68529 14.0927 2.6739C14.0281 2.6511 13.9325 2.61901 13.8129 2.58378C13.5725 2.51295 13.2419 2.43135 12.8771 2.38547C12.1623 2.29558 11.4469 2.35807 10.9623 2.74223C10.9995 2.76937 11.0446 2.79833 11.0971 2.82836C11.2502 2.91587 11.4301 2.99165 11.5794 3.04718C11.6524 3.07433 11.7146 3.09537 11.758 3.10943C11.7796 3.11644 11.7964 3.12166 11.8072 3.12498C11.8126 3.12663 11.8166 3.12781 11.8189 3.1285L11.8208 3.12906L11.8209 3.12912C11.8209 3.12911 11.8209 3.12911 11.8209 3.12929C11.8208 3.12946 11.8207 3.12981 11.8205 3.13051L11.6374 4.13498C9.78979 3.99128 8.0758 4.38076 6.94945 5.3048C6.59693 5.594 6.34933 5.91563 6.04885 6.30596C5.99298 6.37854 5.93527 6.45351 5.87472 6.53108C5.49555 7.01683 5.04091 7.55005 4.29913 8.05259C3.26121 8.75577 2.29988 9.53028 1.81451 10.439L1.8145 10.439C1.26636 11.4652 1.33693 12.1828 1.4912 12.6195C1.49582 12.6326 1.50054 12.6455 1.50535 12.6582C1.73404 12.2374 1.97259 11.8827 2.34726 11.5196L3.06268 12.2576C2.63872 12.6686 2.45594 13.0369 2.06134 13.8321L2.0562 13.8424C2.05238 13.8592 2.04774 13.8804 2.04254 13.9054C2.0266 13.9821 2.00553 14.0948 1.98643 14.2332C1.94788 14.5123 1.91897 14.8839 1.95102 15.2697C1.99011 15.7401 2.11149 16.182 2.37992 16.5201C2.40579 16.319 2.45985 16.1176 2.54328 15.8886L3.50913 16.2403C3.41881 16.4883 3.3924 16.6391 3.39006 16.7815C3.38763 16.9297 3.41004 17.0908 3.45778 17.3711C3.91619 18.3896 4.54846 18.7317 5.03021 18.8497C5.17465 18.885 5.31138 18.9015 5.43331 18.9068C5.38419 18.5983 5.3498 18.1899 5.38599 17.7194C5.46264 16.7229 5.85595 15.4655 7.05248 14.3148C7.05076 14.3035 7.04903 14.2918 7.0473 14.2799C7.01778 14.0766 6.98745 13.7914 6.9833 13.4584C6.97933 13.1399 6.99917 12.7675 7.07134 12.3763L7.06466 12.3768C6.89094 12.3898 6.64574 12.3737 6.43212 12.2211C5.95417 11.8796 5.88037 11.3629 5.956 10.9271C6.02815 10.5113 6.24137 10.0903 6.4574 9.74152C6.61409 9.48854 6.78666 9.25095 6.94316 9.05052C6.8486 8.97965 6.76075 8.88611 6.6959 8.76231C6.47763 8.34561 6.66254 7.89954 6.93329 7.53074C7.22134 7.13837 7.72995 6.65442 8.54039 6.03979L9.16151 6.8588C8.37657 7.4541 7.96168 7.86688 7.76187 8.13903C7.72653 8.18717 7.70046 8.22711 7.68127 8.25966C7.71679 8.26496 7.75127 8.26773 7.77973 8.269C7.79744 8.26979 7.81124 8.26993 7.81948 8.26991C7.82305 8.2699 7.82549 8.26986 7.82665 8.26984L7.82706 8.26983L7.82708 8.26983L7.82741 8.26982L9.09087 8.22026L8.21677 9.13779L8.21676 9.1378L8.2167 9.13786L8.21658 9.13798L8.21616 9.13843L8.21273 9.14207C8.20947 9.14554 8.20428 9.15108 8.19734 9.15857C8.18344 9.17356 8.16253 9.19633 8.1359 9.22597C8.08257 9.28533 8.00668 9.3718 7.91844 9.47811C7.74054 9.69246 7.51903 9.97959 7.33126 10.2828C7.13779 10.5951 7.00706 10.8821 6.96876 11.1028C6.94346 11.2486 6.96253 11.3138 6.9927 11.3513C7.04267 11.3468 7.11734 11.3292 7.20569 11.2935C7.29523 11.2573 7.37915 11.2105 7.44267 11.1642C7.48735 11.1317 7.5078 11.1099 7.5141 11.1032C7.51552 11.1017 7.51622 11.1009 7.51631 11.101L7.51632 11.1011C8.07515 10.0904 9.1382 9.28961 10.9746 9.14903C12.8412 9.00613 14.1017 9.33897 14.9691 9.92089C15.7869 10.4695 16.1913 11.1976 16.4371 11.7843C17.0009 11.5545 17.521 11.4167 18.0591 11.4098C18.5876 11.403 19.0988 11.5225 19.6539 11.7528C19.9166 10.9408 20.4306 10.3504 21.043 9.94016C21.7966 9.43525 22.69 9.20674 23.4454 9.12883C25.6456 8.9019 27.1088 9.55764 27.9815 10.5902C28.1526 10.7456 28.4207 10.9638 28.688 11.1333C28.7913 11.1988 28.8867 11.252 28.9703 11.2909C28.9669 11.1693 28.9435 11.01 28.8843 10.8239C28.7394 10.3687 28.3917 9.79206 27.6931 9.29666C27.5739 9.2271 27.4488 9.14708 27.3178 9.05682L27.8662 8.18844C28 8.26566 28.1264 8.34596 28.2457 8.42878C28.3141 8.46762 28.3753 8.49928 28.4297 8.52475C28.333 8.25634 28.1292 7.91406 27.8598 7.61884C27.5771 7.309 27.2788 7.11244 27.0303 7.05871L27.2476 6.05403C27.7914 6.17162 28.2668 6.53986 28.6191 6.926C28.9768 7.31803 29.2654 7.79133 29.4106 8.21557C29.4817 8.42333 29.5329 8.66102 29.5099 8.88974C29.4928 9.05948 29.4279 9.25557 29.2794 9.40614C29.562 9.77731 29.7507 10.1571 29.8637 10.5121C29.9847 10.8922 30.0231 11.258 29.9838 11.5607C29.9643 11.7101 29.9227 11.8693 29.8411 12.0102C29.7609 12.1489 29.6089 12.3213 29.3598 12.3711C29.18 12.4071 29.0032 12.383 28.8523 12.3415C28.887 12.4872 28.9139 12.6319 28.9335 12.7739C29.0073 13.3061 28.9837 13.8292 28.8764 14.2658C30.0323 15.1993 30.454 16.4668 30.5851 17.4931C30.6512 18.0113 30.6452 18.4785 30.6201 18.8303C30.7925 18.8003 30.9857 18.7558 31.1805 18.6903C31.7849 18.4872 32.2808 18.1317 32.393 17.4954C32.4773 17.0169 32.4509 16.4606 32.3513 15.9224L33.362 15.7353C33.4153 16.0233 33.4526 16.326 33.466 16.6314C33.5762 16.5212 33.6622 16.4053 33.7299 16.2879C33.9126 15.9708 33.9826 15.605 33.9839 15.2354C33.9852 14.8659 33.9175 14.5154 33.8466 14.2527C33.8115 14.1226 33.7765 14.0175 33.751 13.9464C33.7382 13.9109 33.7279 13.8842 33.7212 13.8673C33.7179 13.8588 33.7154 13.8529 33.714 13.8496L33.7133 13.8477L33.7131 13.8473L33.713 13.847L33.7128 13.8466L33.7128 13.8466L33.7048 13.828L33.698 13.8077C33.4598 13.096 33.0975 12.4197 32.5345 11.7778L33.3073 11.1C33.7525 11.6076 34.0918 12.1359 34.3507 12.6807C34.5498 12.3408 34.7086 11.8467 34.5605 11.187C34.3662 10.3216 33.7094 9.63971 32.9568 9.07331C32.6381 8.8335 32.3209 8.6276 32.0306 8.43922C31.982 8.40766 31.9341 8.3766 31.8872 8.34594C31.7274 8.24171 31.5727 8.13895 31.4419 8.04132C31.3174 7.94846 31.1805 7.83584 31.08 7.7067C31.0612 7.68253 31.0408 7.65617 31.0188 7.6278C30.7744 7.31217 30.3366 6.74684 29.7752 6.16651C29.1572 5.52762 28.426 4.9099 27.6827 4.58589C27.1097 4.33612 26.241 4.23513 25.4622 4.20649C25.0832 4.19255 24.7436 4.19615 24.4989 4.20327C24.3768 4.20683 24.2788 4.21124 24.212 4.21472C24.1786 4.21646 24.1531 4.21797 24.1362 4.21901C24.1278 4.21953 24.1215 4.21994 24.1176 4.2202L24.1134 4.22049L24.1127 4.22054L24.1125 4.22054C24.1126 4.22054 24.1126 4.22054 24.1125 4.21953L23.9518 3.20922C24.3291 3.11508 24.6229 3.00949 24.796 2.90846C24.3645 2.46814 23.6813 2.41209 22.934 2.55581C22.5502 2.62963 22.1956 2.74893 21.9344 2.85155C21.8048 2.9025 21.7003 2.94847 21.6295 2.98112L21.6249 2.98322C21.5862 3.00275 21.5467 3.02175 21.5064 3.04019L21.057 2.11604L21.2924 2.57291C21.057 2.11604 21.0572 2.11596 21.0573 2.11588L21.0577 2.11569L21.0586 2.1152L21.0613 2.11385L21.0696 2.10964C21.0765 2.10618 21.086 2.10144 21.0981 2.09555C21.1177 2.08595 21.144 2.07329 21.1764 2.05818C21.5496 1.86717 21.7559 1.63886 21.8378 1.48349C21.8395 1.48014 21.8412 1.47687 21.8428 1.47369C21.2914 1.27145 20.7372 1.46177 20.2075 1.81106C19.9261 1.99664 19.681 2.209 19.4812 2.38769C19.4617 2.4051 19.4421 2.42275 19.4225 2.44035L19.4224 2.44042L19.4224 2.44048L19.4223 2.44057C19.3476 2.50765 19.2737 2.57402 19.2132 2.62416C19.1748 2.65592 19.1265 2.69423 19.0751 2.72681C19.0492 2.74325 19.012 2.76504 18.9669 2.78398C18.9266 2.80087 18.8465 2.83002 18.7434 2.82988C18.5937 2.82969 18.4881 2.76647 18.4492 2.74106C18.4013 2.70985 18.3664 2.6767 18.3463 2.6564C18.3053 2.615 18.2713 2.57031 18.248 2.53815C18.1989 2.47052 18.1439 2.38368 18.0911 2.29856C18.0632 2.25348 18.0344 2.20657 18.0048 2.15827L18.0039 2.15675L18.0036 2.1563L18.0036 2.15628L18.0035 2.15603C17.914 2.01012 17.817 1.85172 17.7115 1.69355C17.6161 1.55046 17.5249 1.42478 17.4416 1.32532ZM22.8947 1.51898C23.774 1.37678 24.9482 1.4201 25.702 2.38545C25.8676 2.5975 25.9615 2.87618 25.8691 3.17477C25.8668 3.18234 25.8643 3.18984 25.8618 3.19727C26.5904 3.24333 27.4418 3.35955 28.0934 3.64362C29.0205 4.0477 29.8632 4.77909 30.514 5.45184C31.1166 6.07473 31.5859 6.68108 31.8307 6.99729L31.8307 6.99731L31.8359 7.00406C31.8494 7.02146 31.8621 7.03795 31.8742 7.05349L31.8914 7.07564C31.9034 7.09105 31.9478 7.13636 32.0565 7.21741C32.1587 7.29369 32.289 7.38082 32.4488 7.48504C32.4677 7.4974 32.487 7.50995 32.5066 7.52271C32.5257 7.53512 32.5451 7.54771 32.5648 7.56049L32.5858 7.57411C32.8751 7.76179 33.2252 7.98889 33.5748 8.25201C34.3801 8.85805 35.2866 9.72868 35.5634 10.9619C35.7864 11.9554 35.5256 12.7338 35.2027 13.2585C35.0621 13.487 34.9106 13.6665 34.7844 13.7966C34.8021 13.8536 34.8205 13.9166 34.8389 13.9847C34.925 14.3035 35.0135 14.7494 35.0118 15.2391C35.0101 15.7288 34.9178 16.285 34.6205 16.8011C34.3541 17.2634 33.9392 17.6648 33.3396 17.9528C33.0437 18.947 32.1963 19.4334 31.5079 19.6647C31.1256 19.7932 30.7598 19.856 30.4926 19.8871C30.358 19.9028 30.2459 19.9108 30.166 19.9148C30.126 19.9168 30.0938 19.9179 30.0708 19.9184C30.0611 19.9187 30.053 19.9188 30.0465 19.9189L29.8673 19.9289C29.9538 20.9138 29.5919 21.7979 29.1166 22.4063C28.8312 22.7716 28.4819 23.0681 28.1211 23.2276C27.9954 23.2831 27.8491 23.3286 27.6954 23.3466L28.4753 25.3834C28.5669 25.6225 28.5252 25.891 28.3699 26.0908C26.7539 28.1693 25.6203 29.24 23.5251 30.845C23.2152 31.0823 22.7718 31.0334 22.5219 30.7317L20.7023 28.5352L20.1681 29.5772C20.791 30.6282 21.025 31.374 21.2984 32.5677C21.3508 32.7966 21.2891 33.0365 21.1344 33.2117C20.1785 34.2936 19.5609 34.8777 18.4675 35.7006C18.2208 35.8863 17.8831 35.8958 17.6262 35.7237C16.4469 34.9333 15.7815 34.3525 14.8206 33.2007C14.6737 33.0247 14.6182 32.7889 14.6718 32.5653C14.9488 31.4117 15.189 30.6861 15.8135 29.5702L15.3737 28.5841C14.5757 29.5436 13.7295 30.4389 13.4064 30.7758C13.1458 31.0474 12.7149 31.0809 12.417 30.8284C12.0406 30.5093 11.0121 29.629 9.99005 28.6799C9.47932 28.2056 8.96591 27.7102 8.5348 27.2565C8.11294 26.8126 7.73888 26.377 7.53525 26.0286C7.405 25.8057 7.41966 25.5565 7.51042 25.3651L8.39667 23.4961C8.37007 23.4884 8.34249 23.4801 8.31404 23.4711C8.04195 23.3845 7.6809 23.2272 7.32711 22.9429C6.65104 22.3996 6.08015 21.4567 6.09433 19.892L6.09239 19.8915C6.08605 19.8899 6.07997 19.8884 6.07416 19.887L6.07273 19.8873C5.99833 19.9014 5.89517 19.9173 5.76962 19.9272C5.51968 19.9468 5.17328 19.9429 4.78579 19.8481C4.02635 19.6622 3.17099 19.1403 2.58221 17.9252C1.36718 17.4056 1.00194 16.2609 0.926655 15.3548C0.886424 14.8706 0.923091 14.4191 0.968195 14.0926C0.982114 13.9918 0.996995 13.9018 1.01102 13.8251C0.994967 13.806 0.978433 13.7857 0.961534 13.7642C0.818546 13.5827 0.646784 13.3151 0.522 12.9619C0.265875 12.2368 0.232038 11.2199 0.907848 9.95469C1.52289 8.80323 2.67895 7.90866 3.7226 7.2016C4.33566 6.78626 4.71312 6.34868 5.06445 5.8986C5.1158 5.8328 5.16747 5.76543 5.21998 5.69697L5.21998 5.69696C5.51952 5.30637 5.84627 4.88029 6.2975 4.51011C7.28355 3.70117 8.57272 3.26001 9.94982 3.1242C9.87299 2.97379 9.82847 2.78599 9.86986 2.57905C9.91194 2.36863 10.0306 2.19995 10.1694 2.06984C11.0007 1.29045 12.1671 1.26019 13.0053 1.36561C13.0331 1.36909 13.0606 1.37275 13.0879 1.37656C13.0794 1.2065 13.1114 1.03141 13.1984 0.868371C13.3257 0.629774 13.5424 0.470157 13.7929 0.391295C14.5533 0.151899 15.3337 0.36752 15.9407 0.67047C16.1204 0.760104 16.2925 0.86114 16.4538 0.968107C16.4659 0.909246 16.4812 0.850485 16.5002 0.79294C16.5727 0.574018 16.7305 0.289708 17.0646 0.16439C17.2926 0.0788699 17.5068 0.12386 17.6611 0.192657C17.8094 0.258818 17.9346 0.35966 18.0329 0.453478C18.2304 0.641986 18.4153 0.896191 18.5667 1.12332C18.6691 1.27689 18.7674 1.43562 18.8513 1.57223C19.0531 1.39316 19.324 1.16246 19.6416 0.952963C20.3243 0.502751 21.3474 0.0736144 22.4408 0.613405C22.7132 0.747896 22.8661 0.997329 22.8978 1.26812C22.9077 1.35286 22.9058 1.43692 22.8947 1.51898ZM7.1343 19.581C7.03624 21.0831 7.53569 21.7919 7.97101 22.1417C7.98257 22.151 7.99416 22.1601 8.00575 22.169C7.95844 21.781 7.9864 21.3754 8.04064 20.909L9.06166 21.0277C9.00902 21.4804 8.99416 21.7859 9.02643 22.0474C9.05674 22.2929 9.13152 22.5205 9.2921 22.8031L9.29398 22.806C9.2989 22.8136 9.30763 22.8268 9.32025 22.8449C9.34552 22.8813 9.38633 22.9374 9.44347 23.0081C9.6001 23.202 9.87742 23.5034 10.2918 23.8104C10.4171 23.9032 10.7817 24.1467 11.1615 24.2921C11.2006 24.3071 11.2384 24.3205 11.2749 24.3323C11.167 24.1447 11.0692 23.9329 10.994 23.6902L11.9759 23.3859C12.0975 23.7784 12.307 24.0587 12.5554 24.354L12.5623 24.3614C12.5654 24.3646 12.5689 24.3683 12.5729 24.3725C12.5904 24.3908 12.6172 24.4183 12.6522 24.4527C12.7223 24.5219 12.8241 24.6178 12.9479 24.7223C13.2025 24.9371 13.5217 25.1637 13.8354 25.2867C14.1272 25.4011 14.4324 25.4571 14.7167 25.4788C14.6604 25.4032 14.6058 25.3216 14.5539 25.2334L15.44 24.7124C15.608 24.9981 15.7865 25.1432 16.0332 25.3438C16.0851 25.386 16.14 25.4306 16.1985 25.4795C16.2156 25.4873 16.2372 25.4968 16.2631 25.5077C16.3445 25.5419 16.4678 25.5894 16.6259 25.6382C17.1893 25.8119 18.1637 25.9913 19.266 25.6737C19.4539 25.6196 19.646 25.5509 19.8411 25.465C20.2079 25.2113 20.4268 25.0165 20.5845 24.727L21.4871 25.2187C21.4356 25.3133 21.3803 25.401 21.3218 25.4829C21.47 25.4731 21.6117 25.4531 21.7357 25.4193C22.2656 25.2748 22.6673 25.0636 22.9332 24.8918C23.066 24.806 23.1644 24.7304 23.2272 24.6785C23.2546 24.6559 23.2752 24.6379 23.2888 24.6256C23.6017 24.2234 23.7657 24.0075 23.8768 23.5462L24.8761 23.7869C24.8344 23.9604 24.7849 24.1133 24.7292 24.2517C25.5561 23.9325 26.2446 23.302 26.6175 22.7714C26.6818 22.6801 26.7325 22.5971 26.7705 22.5253C26.9291 22.034 26.9558 21.5491 26.8664 20.9597L27.8826 20.8056C27.9549 21.2822 27.9673 21.7285 27.9043 22.1703C28.0316 22.0782 28.1717 21.9462 28.3066 21.7735C28.7247 21.2384 29.0017 20.4349 28.7641 19.5865C28.741 19.504 28.719 19.4208 28.697 19.3375C28.6032 18.982 28.5089 18.6252 28.326 18.3207L29.2069 17.7912C29.3866 18.0901 29.5084 18.4302 29.5968 18.7287C29.6165 18.4318 29.6194 18.0459 29.5654 17.6233C29.4666 16.8494 29.1833 15.9853 28.4924 15.3001C28.0874 16.18 27.5518 16.7952 26.8885 17.1972C26.0786 17.6881 25.1441 17.8204 24.1834 17.8204C22.4617 17.8204 21.3156 17.0805 20.5941 16.1899C19.8888 15.3193 19.5985 14.3204 19.52 13.7585C19.4725 13.419 19.457 13.0979 19.471 12.7947C18.9056 12.5341 18.4776 12.4324 18.0723 12.4376C17.6665 12.4428 17.2386 12.5556 16.6721 12.8006C16.778 14.4823 15.8196 17.0244 12.8921 17.7414C10.7323 18.2704 9.26301 17.508 8.35475 16.594C7.94067 16.1773 7.64743 15.7349 7.45243 15.3832C6.70731 16.2367 6.46394 17.1082 6.41086 17.7983C6.39327 18.0269 6.39658 18.2372 6.41058 18.4216C6.52732 18.164 6.67544 17.9417 6.87082 17.7063L7.66173 18.3628C7.49932 18.5585 7.40338 18.7121 7.33068 18.8826C7.25735 19.0545 7.19938 19.2627 7.1343 19.581ZM8.10382 14.3588L8.10522 14.3625C8.11309 14.3836 8.12589 14.4167 8.14396 14.4598C8.18015 14.5463 8.23708 14.6722 8.31722 14.8221C8.47843 15.1234 8.72832 15.5117 9.08388 15.8695C9.77604 16.566 10.8872 17.1742 12.6475 16.743C15.177 16.1235 15.8393 13.8172 15.6122 12.5811C15.5899 12.4601 15.5601 12.3568 15.5263 12.2723C15.3183 11.7528 15.016 11.1901 14.3965 10.7745C13.7765 10.3586 12.7669 10.0427 11.053 10.1739C9.52321 10.291 8.78888 10.923 8.41515 11.5998C8.41377 11.6023 8.41238 11.6048 8.41098 11.6073C8.08782 12.1971 8.00408 12.881 8.01112 13.4456C8.01459 13.7247 8.04011 13.964 8.06453 14.1323C8.07671 14.2161 8.08851 14.2816 8.09694 14.3247C8.09961 14.3384 8.10193 14.3498 8.10382 14.3588ZM27.556 22.326C27.5562 22.3254 27.5598 22.3255 27.5657 22.3278C27.5587 22.3276 27.5557 22.3265 27.556 22.326ZM26.8652 24.053C26.158 24.7451 25.1014 25.4151 23.8692 25.4814C23.7793 25.5549 23.653 25.6505 23.4909 25.7552C23.1519 25.9742 22.6542 26.2342 22.0062 26.4109C21.5533 26.5344 21.0394 26.5293 20.6698 26.503C20.5415 26.4939 20.4246 26.4817 20.3258 26.4695L20.9964 27.279L23.1287 29.8529C24.9743 28.4248 26.0142 27.4301 27.4547 25.5926L26.8652 24.053ZM19.2198 26.7457C18.2387 26.9635 17.3645 26.8742 16.7352 26.7307C16.5588 27.0305 16.3359 27.3528 16.0942 27.6759L16.7224 29.0844H19.2656L19.9887 27.6738L19.2198 26.7457ZM19.2904 30.1123H16.6881C16.1607 31.0609 15.9471 31.681 15.7071 32.658C16.5009 33.5964 17.0687 34.0989 18.0206 34.7494C18.9094 34.069 19.4553 33.5517 20.2616 32.6466C20.0212 31.62 19.8134 30.9964 19.2904 30.1123ZM15.6835 26.4755C15.5541 26.4921 15.3937 26.5076 15.2115 26.5143C14.7403 26.5319 14.0954 26.4928 13.4602 26.2437C12.9938 26.0608 12.5742 25.752 12.285 25.5079C12.2176 25.451 12.1558 25.3963 12.1003 25.3457C11.9473 25.4026 11.7891 25.4257 11.6388 25.4269C11.3401 25.4293 11.0434 25.3476 10.7939 25.252C10.2929 25.0602 9.84381 24.7577 9.68 24.6363C9.4937 24.4983 9.32959 24.3606 9.18663 24.2292L8.51302 25.6498C8.67277 25.879 8.93597 26.1865 9.27989 26.5484C9.69037 26.9803 10.1866 27.4597 10.6895 27.9267C11.5372 28.714 12.3918 29.4551 12.8618 29.8571C13.3634 29.3266 14.3313 28.2768 15.0944 27.292C15.3197 27.0013 15.5201 26.725 15.6835 26.4755ZM6.95715 11.3519C6.95721 11.3519 6.95859 11.3519 6.96112 11.3524C6.95836 11.3522 6.9571 11.352 6.95715 11.3519ZM7.55936 8.22733C7.55938 8.22731 7.55988 8.22759 7.56078 8.22819C7.56024 8.22789 7.55986 8.22767 7.55963 8.22753C7.55944 8.2274 7.55935 8.22733 7.55936 8.22733ZM7.63031 8.36952C7.63015 8.37487 7.62946 8.37775 7.62916 8.37786C7.62886 8.37796 7.62894 8.37528 7.63031 8.36952ZM14.1144 1.32473C14.1144 1.3244 14.1144 1.32424 14.1144 1.32425L14.1144 1.32473ZM17.4895 1.08233C17.4904 1.08067 17.4909 1.07996 17.4909 1.08002C17.4909 1.08007 17.4905 1.0809 17.4895 1.08233ZM27.2138 11.2745C26.6043 10.5397 25.4996 9.95031 23.5509 10.1513C22.9003 10.2184 22.1853 10.4121 21.6151 10.7941C21.0603 11.1658 20.6351 11.718 20.5231 12.5562C20.4821 12.8636 20.482 13.2152 20.538 13.6163C20.5971 14.0395 20.8315 14.8501 21.3927 15.5428C21.9377 16.2154 22.8 16.7925 24.1834 16.7925C25.0644 16.7925 25.7789 16.6678 26.3557 16.3182C26.9206 15.9758 27.4192 15.3769 27.7869 14.2932L27.7935 14.2737L27.8016 14.2548C27.9221 13.9756 27.9943 13.4846 27.9154 12.915C27.8377 12.3544 27.6196 11.7638 27.2138 11.2745ZM18.5127 18.7053C19.6599 18.5433 20.5217 17.8539 20.5217 17.0281C20.5217 16.082 19.3903 15.315 17.9948 15.315C16.5992 15.315 15.4678 16.082 15.4678 17.0281C15.4678 17.8484 16.3182 18.5341 17.4539 18.702V20.0892C17.4016 20.1473 17.3319 20.2205 17.2473 20.3004C17.0356 20.5002 16.7482 20.7248 16.4197 20.8685C16.0967 21.0097 15.7538 21.0652 15.3983 20.9657C15.0412 20.8658 14.5993 20.5893 14.1184 19.9287C13.9463 19.6923 13.6152 19.6402 13.3788 19.8123C13.1424 19.9843 13.0903 20.3155 13.2624 20.5519C13.8415 21.3475 14.4662 21.8043 15.1128 21.9853C15.761 22.1668 16.3588 22.0508 16.844 21.8386C17.3238 21.6287 17.7121 21.3177 17.9741 21.0704C17.9797 21.0651 17.9852 21.0599 17.9907 21.0546C17.9998 21.063 18.0089 21.0715 18.0183 21.08C18.2896 21.3273 18.6888 21.6383 19.1733 21.8482C19.6619 22.0598 20.2638 22.1792 20.9068 21.9944C21.5511 21.8092 22.1568 21.3416 22.6963 20.5345C22.8588 20.2914 22.7935 19.9626 22.5504 19.8001C22.3073 19.6377 21.9785 19.703 21.8161 19.9461C21.3742 20.6071 20.9552 20.8788 20.6143 20.9767C20.2722 21.0751 19.9286 21.0215 19.5942 20.8766C19.2559 20.7301 18.9548 20.501 18.7317 20.2975C18.6424 20.2161 18.5684 20.1415 18.5127 20.0822V18.7053ZM12.8767 15.1865C13.74 15.1865 14.44 14.3619 14.44 13.3448C14.44 12.3277 13.74 11.5032 12.8767 11.5032C12.0133 11.5032 11.3134 12.3277 11.3134 13.3448C11.3134 14.3619 12.0133 15.1865 12.8767 15.1865ZM13.2836 13.1735C13.4728 13.1735 13.6262 13.0009 13.6262 12.788C13.6262 12.5752 13.4728 12.4026 13.2836 12.4026C13.0944 12.4026 12.9409 12.5752 12.9409 12.788C12.9409 13.0009 13.0944 13.1735 13.2836 13.1735ZM23.1557 15.1865C24.019 15.1865 24.7189 14.3619 24.7189 13.3448C24.7189 12.3277 24.019 11.5032 23.1557 11.5032C22.2923 11.5032 21.5924 12.3277 21.5924 13.3448C21.5924 14.3619 22.2923 15.1865 23.1557 15.1865ZM23.5625 13.1735C23.7517 13.1735 23.9052 13.0009 23.9052 12.788C23.9052 12.5752 23.7517 12.4026 23.5625 12.4026C23.3733 12.4026 23.2199 12.5752 23.2199 12.788C23.2199 13.0009 23.3733 13.1735 23.5625 13.1735Z" fill="#2F251F"/>
    <path d="M143.683 28.7059V6.68237H147.353V15.6753C147.863 14.8392 148.556 14.1765 149.433 13.6871C150.31 13.1773 151.299 12.9224 152.4 12.9224C153.665 12.9224 154.735 13.1875 155.612 13.7177C156.489 14.2275 157.152 14.9922 157.6 16.0118C158.069 17.011 158.304 18.2651 158.304 19.7741V28.7059H154.664V20.1106C154.664 18.7851 154.378 17.7757 153.807 17.0824C153.257 16.389 152.41 16.0424 151.269 16.0424C150.534 16.0424 149.872 16.2259 149.28 16.593C148.689 16.9396 148.22 17.4494 147.873 18.1224C147.527 18.7749 147.353 19.5804 147.353 20.5388V28.7059H143.683Z" fill="#F9F9F8"/>
    <path d="M135.89 29.073C134.524 29.073 133.331 28.8588 132.311 28.4306C131.312 27.982 130.517 27.3702 129.925 26.5953C129.354 25.8 129.018 24.8926 128.916 23.873H132.587C132.689 24.3012 132.872 24.6988 133.137 25.0659C133.402 25.4126 133.759 25.6879 134.208 25.8918C134.677 26.0957 135.227 26.1977 135.86 26.1977C136.471 26.1977 136.971 26.1161 137.358 25.953C137.746 25.7694 138.031 25.5349 138.215 25.2494C138.398 24.9639 138.49 24.658 138.49 24.3318C138.49 23.8424 138.358 23.4651 138.092 23.2C137.827 22.9349 137.44 22.731 136.93 22.5882C136.441 22.4251 135.849 22.2722 135.156 22.1294C134.422 21.9867 133.708 21.8133 133.015 21.6094C132.342 21.3851 131.73 21.1098 131.18 20.7835C130.649 20.4573 130.221 20.0392 129.895 19.5294C129.589 19.0196 129.436 18.3977 129.436 17.6635C129.436 16.7663 129.671 15.9608 130.14 15.2471C130.629 14.5333 131.322 13.9726 132.22 13.5647C133.137 13.1365 134.228 12.9224 135.492 12.9224C137.287 12.9224 138.714 13.3404 139.775 14.1765C140.856 14.9922 141.488 16.1443 141.671 17.633H138.184C138.082 17.062 137.797 16.6235 137.328 16.3177C136.859 15.9914 136.237 15.8282 135.462 15.8282C134.667 15.8282 134.055 15.9812 133.627 16.2871C133.219 16.5726 133.015 16.96 133.015 17.4494C133.015 17.7553 133.137 18.0408 133.382 18.3059C133.647 18.5506 134.024 18.7647 134.514 18.9482C135.003 19.1114 135.605 19.2745 136.318 19.4377C137.46 19.662 138.47 19.9271 139.347 20.233C140.223 20.5388 140.917 20.9875 141.427 21.5788C141.936 22.1702 142.191 23.0063 142.191 24.0871C142.212 25.0659 141.957 25.9326 141.427 26.6871C140.917 27.4416 140.193 28.033 139.255 28.4612C138.317 28.869 137.195 29.073 135.89 29.073Z" fill="#F9F9F8"/>
    <path d="M119.072 29.073C117.828 29.073 116.757 28.8283 115.86 28.3388C114.983 27.829 114.31 27.0745 113.841 26.0753C113.372 25.0557 113.138 23.8016 113.138 22.313V13.2894H116.808V21.9459C116.808 23.2714 117.084 24.2808 117.634 24.9741C118.205 25.6471 119.062 25.9835 120.204 25.9835C120.938 25.9835 121.59 25.8102 122.161 25.4635C122.753 25.1169 123.211 24.6173 123.538 23.9647C123.884 23.2918 124.058 22.4761 124.058 21.5177V13.2894H127.728V28.7059H124.486L124.211 26.1365C123.742 27.0337 123.058 27.7475 122.161 28.2777C121.284 28.8079 120.255 29.073 119.072 29.073Z" fill="#F9F9F8"/>
    <path d="M95.6484 35.4353V13.2894H98.9214L99.319 15.5224C99.6453 15.0737 100.033 14.6557 100.481 14.2682C100.95 13.8604 101.511 13.5341 102.164 13.2894C102.837 13.0447 103.601 12.9224 104.458 12.9224C105.906 12.9224 107.18 13.2792 108.281 13.993C109.403 14.7067 110.28 15.6753 110.912 16.8988C111.544 18.102 111.86 19.4784 111.86 21.0282C111.86 22.5781 111.534 23.9647 110.881 25.1882C110.249 26.3914 109.372 27.3396 108.251 28.033C107.15 28.7263 105.885 29.073 104.458 29.073C103.295 29.073 102.276 28.8588 101.399 28.4306C100.543 27.982 99.8492 27.3498 99.319 26.5341V35.4353H95.6484ZM103.693 25.8918C104.55 25.8918 105.314 25.6879 105.987 25.28C106.66 24.8722 107.18 24.3012 107.547 23.5671C107.935 22.833 108.128 21.9867 108.128 21.0282C108.128 20.0494 107.935 19.193 107.547 18.4588C107.18 17.7247 106.66 17.1537 105.987 16.7459C105.314 16.338 104.55 16.1341 103.693 16.1341C102.816 16.1341 102.041 16.338 101.368 16.7459C100.716 17.1537 100.196 17.7247 99.8084 18.4588C99.4414 19.193 99.2578 20.0392 99.2578 20.9977C99.2578 21.9765 99.4414 22.833 99.8084 23.5671C100.196 24.2808 100.716 24.8518 101.368 25.28C102.041 25.6879 102.816 25.8918 103.693 25.8918Z" fill="#F9F9F8"/>
    <path d="M86.6002 29.073C85.0707 29.073 83.7249 28.7467 82.5625 28.0941C81.4002 27.4212 80.4927 26.4831 79.8402 25.28C79.1876 24.0769 78.8613 22.6902 78.8613 21.12C78.8613 19.4886 79.1774 18.0612 79.8096 16.8377C80.4621 15.6141 81.3696 14.6557 82.5319 13.9624C83.7147 13.269 85.0809 12.9224 86.6307 12.9224C88.1398 12.9224 89.4551 13.2588 90.5766 13.9318C91.6982 14.6047 92.5649 15.5122 93.1766 16.6541C93.7884 17.7757 94.0943 19.04 94.0943 20.4471C94.0943 20.651 94.0943 20.8753 94.0943 21.12C94.0943 21.3647 94.0739 21.6196 94.0331 21.8847H81.4919V19.5294H90.3931C90.3523 18.4079 89.9751 17.531 89.2613 16.8988C88.5476 16.2463 87.6605 15.92 86.6002 15.92C85.8456 15.92 85.1523 16.0933 84.5202 16.44C83.888 16.7867 83.3884 17.3067 83.0213 18C82.6543 18.673 82.4707 19.5294 82.4707 20.5694V21.4565C82.4707 22.4149 82.6441 23.2408 82.9907 23.9341C83.3578 24.6275 83.8472 25.1577 84.459 25.5247C85.0911 25.8714 85.7947 26.0447 86.5696 26.0447C87.426 26.0447 88.1296 25.8612 88.6802 25.4941C89.2511 25.1271 89.6692 24.6377 89.9343 24.0259H93.666C93.3805 24.9843 92.9115 25.851 92.259 26.6259C91.6064 27.3804 90.8009 27.982 89.8425 28.4306C88.8841 28.8588 87.8033 29.073 86.6002 29.073Z" fill="#F9F9F8"/>
    <path d="M73.4502 28.7059V6.68237H77.1208V28.7059H73.4502Z" fill="#F9F9F8"/>
    <path d="M64.4019 29.073C62.8725 29.073 61.5266 28.7467 60.3643 28.0941C59.2019 27.4212 58.2945 26.4831 57.6419 25.28C56.9894 24.0769 56.6631 22.6902 56.6631 21.12C56.6631 19.4886 56.9792 18.0612 57.6113 16.8377C58.2639 15.6141 59.1713 14.6557 60.3337 13.9624C61.5164 13.269 62.8827 12.9224 64.4325 12.9224C65.9415 12.9224 67.2568 13.2588 68.3784 13.9318C69.5 14.6047 70.3666 15.5122 70.9784 16.6541C71.5901 17.7757 71.896 19.04 71.896 20.4471C71.896 20.651 71.896 20.8753 71.896 21.12C71.896 21.3647 71.8756 21.6196 71.8348 21.8847H59.2937V19.5294H68.1949C68.1541 18.4079 67.7768 17.531 67.0631 16.8988C66.3494 16.2463 65.4623 15.92 64.4019 15.92C63.6474 15.92 62.9541 16.0933 62.3219 16.44C61.6898 16.7867 61.1901 17.3067 60.8231 18C60.456 18.673 60.2725 19.5294 60.2725 20.5694V21.4565C60.2725 22.4149 60.4458 23.2408 60.7925 23.9341C61.1596 24.6275 61.649 25.1577 62.2607 25.5247C62.8929 25.8714 63.5964 26.0447 64.3713 26.0447C65.2278 26.0447 65.9313 25.8612 66.4819 25.4941C67.0529 25.1271 67.4709 24.6377 67.736 24.0259H71.4678C71.1823 24.9843 70.7133 25.851 70.0607 26.6259C69.4082 27.3804 68.6027 27.982 67.6443 28.4306C66.6858 28.8588 65.605 29.073 64.4019 29.073Z" fill="#F9F9F8"/>
    <path d="M48.9223 28.7058V10.2611H42.6211V7.29407H58.8634V10.2611H52.5623V28.7058H48.9223Z" fill="#F9F9F8"/>
  </g>
  <defs>
    <clipPath id="clip0_3064_30778">
      <rect width="159" height="36" fill="white"/>
    </clipPath>
  </defs>
</svg>
