<svg xmlns="http://www.w3.org/2000/svg" width="167" height="46" viewBox="0 0 167 46" fill="none" class="img-fluid">
  <g clip-path="url(#clip0_413_3194)">
      <g clip-path="url(#clip1_413_3194)">
          <path d="M33.6756 38.9184C33.3008 39.1751 32.9261 39.4111 32.5375 39.647C31.8296 40.0632 31.0801 40.431 30.3166 40.771C29.116 41.2845 27.86 41.6731 26.5621 41.9506C25.2644 42.2073 23.9667 42.3461 22.6689 42.3461C20.0526 42.3461 17.5334 41.8326 15.2363 40.8681C12.8559 39.8829 10.7115 38.4466 8.92096 36.6564C5.40243 33.1385 3.23718 28.2745 3.23718 22.9109C3.23718 20.295 3.75074 17.7762 4.71539 15.4934C5.70085 13.0927 7.13741 10.9486 8.9279 9.15846C10.7184 7.3891 12.8628 5.93198 15.2432 4.94669C17.5473 4.00302 20.0595 3.46875 22.6759 3.46875C25.2922 3.46875 27.8114 4.00302 30.0946 4.94669C32.4958 5.93198 34.6403 7.38216 36.4307 9.15846C39.9493 12.6763 42.1145 17.5403 42.1145 22.904C42.1145 24.1252 41.9966 25.3603 41.7606 26.5606C41.5247 27.7818 41.1707 28.9614 40.7196 30.1201C40.2893 31.2026 39.7549 32.2434 39.1443 33.2287C38.7487 33.8601 38.3184 34.4708 37.8673 35.0397L39.8313 40.8057L33.6964 38.9184H33.6756Z" fill="white"></path>
          <path d="M9.50763 35.027C9.86043 35.4588 10.234 35.8766 10.6283 36.2526C13.9835 39.6298 18.6113 41.7188 23.7305 41.7188C26.2831 41.7188 28.7735 41.2035 31.0425 40.2217C31.5752 39.9849 32.0802 39.7482 32.5921 39.4697L23.101 36.5102L28.4761 32.7988L33.5329 35.1245L31.3538 30.9605C29.9633 30.8212 28.6698 30.3686 27.5075 29.6793C26.0341 28.7879 24.8235 27.5276 24.0003 26.0096L25.7643 28.3562C26.4906 29.6375 30.0948 30.2085 31.3538 30.9605C32.5921 31.6917 31.257 29.6584 32.7651 29.6584H37.7251V21.9221H37.566C36.3276 21.9221 35.373 21.4278 34.7021 20.6409C33.9757 19.8122 33.6228 18.6494 33.6228 17.4238V17.2637H23.1494C23.0318 17.9948 22.679 18.6424 22.1878 19.1369C21.5583 19.7705 20.7005 19.8889 19.7597 19.8889C18.8189 19.8889 19.8012 19.7705 19.1924 19.1369C18.6806 18.6424 18.3485 17.9948 18.2309 17.2637H13.9004C12.6829 17.2637 11.5899 17.7581 10.8012 18.5658C9.99879 19.3526 9.50763 20.4598 9.50763 21.6645V28.3771C9.50763 29.6027 9.99879 30.7029 10.8012 31.4967C11.583 32.3044 12.6829 32.7988 13.9004 32.7988C15.1179 32.7988 16.1971 32.3044 16.9788 31.4967C17.7813 30.7099 18.2724 29.6027 18.2724 28.3771V21.6645H19.6075V28.3771C19.6075 29.9786 18.9781 31.4201 17.9404 32.4437C16.9027 33.4882 15.4707 34.1427 13.9004 34.1427C12.33 34.1427 10.8773 33.4882 9.86043 32.4437C9.74283 32.3253 9.62523 32.2069 9.50763 32.0885V35.027Z" fill="#FECC00"></path>

          <path d="M31.3499 25.4479C30.9346 25.4479 30.6023 25.7802 30.6023 26.1956C30.6023 26.6109 30.9346 26.9432 31.3499 26.9432C31.7653 26.9432 32.0976 26.6109 32.0976 26.1956C32.0976 25.7802 31.7653 25.4479 31.3499 25.4479ZM37.8085 33.6303C38.6531 32.4327 39.3591 31.1382 39.906 29.7813C40.7713 27.6216 41.2213 25.2887 41.2213 22.8936C41.2213 17.771 39.1445 13.1399 35.7872 9.78256C32.4298 6.42521 27.7988 4.34849 22.6761 4.34849C17.5536 4.34849 12.9225 6.42521 9.56515 9.78256C6.2078 13.1399 4.13107 17.771 4.13107 22.8936C4.13107 26.604 5.21097 30.0721 7.09386 32.9795V28.1754V21.5022C7.09386 19.9307 7.74456 18.4979 8.78292 17.4595C9.82127 16.4211 11.2542 15.7912 12.8256 15.7912H17.2214C17.3598 15.1612 17.6921 14.5936 18.1212 14.1437C18.7512 13.5137 19.6095 13.1399 20.551 13.1399C21.084 13.1399 21.5686 13.2576 22.0255 13.4722C22.2816 13.313 22.5377 13.2161 22.8077 13.1399C23.1054 13.0638 23.3961 13.0223 23.7076 13.0223C24.649 13.0223 25.5144 13.396 26.1235 14.0259C26.5942 14.4967 26.9266 15.1059 27.065 15.7912H35.5796C36.2441 15.7912 36.8532 16.0474 37.2894 16.4973C37.7393 16.9265 38.0162 17.5356 38.0162 18.2071V30.8059H36.8394L37.8016 33.6303H37.8085ZM8.45065 34.7863C8.80369 35.2154 9.17749 35.6308 9.57207 36.0046C12.9294 39.362 17.5606 41.4387 22.6831 41.4387C25.2374 41.4387 27.7087 40.9264 30.0001 39.9504C30.5331 39.715 31.0384 39.4797 31.5507 39.2028L22.0324 36.2607L28.6432 31.7265L32.1945 33.7479L30.3115 30.7436C28.9201 30.6051 27.6049 30.1551 26.4627 29.4699C24.9883 28.5837 23.7561 27.3309 22.9323 25.8217L24.1091 25.1918C24.8152 26.4655 25.8744 27.5662 27.1342 28.3138C28.3733 29.0406 29.7855 29.4491 31.3153 29.4491H36.6732V21.7583H36.5349C35.2818 21.7583 34.3197 21.2668 33.6482 20.4846C32.9421 19.6608 32.5683 18.5048 32.5683 17.2865C32.5683 17.2242 32.5683 17.1895 32.5891 17.1273H23.936C23.8184 17.8541 23.4861 18.4979 22.9946 18.9894C22.3647 19.6193 21.5063 20.007 20.5648 20.007C19.6234 20.007 18.7581 19.6124 18.1351 18.9894C17.6436 18.4979 17.2905 17.8541 17.1729 17.1273H12.8395C11.6419 17.1273 10.5412 17.6187 9.73821 18.4218C8.95599 19.2039 8.46449 20.3046 8.46449 21.5022V28.1754C8.46449 29.3937 8.95599 30.4875 9.73821 31.2766C10.5412 32.0796 11.6419 32.5711 12.8395 32.5711C14.0371 32.5711 15.1376 32.0796 15.9407 31.2766C16.7229 30.4943 17.2144 29.3937 17.2144 28.1754V21.5022H18.5712V28.1754C18.5712 29.7675 17.9204 31.2005 16.8822 32.2181C15.8438 33.2565 14.4108 33.9071 12.8395 33.9071C11.2681 33.9071 9.83513 33.2565 8.79677 32.2181C8.67909 32.1004 8.5614 31.9827 8.46449 31.8651V34.7863H8.45065ZM36.514 40.7326C35.0049 41.9095 33.3366 42.8924 31.5714 43.64C28.7817 44.8376 25.7636 45.4814 22.6831 45.4814C16.4461 45.4814 10.8112 42.9477 6.71312 38.8705C2.62891 34.7724 0.102234 29.1376 0.102234 22.9005C0.102234 16.6634 2.63583 11.0286 6.71312 6.94439C10.8112 2.84632 16.4461 0.333496 22.6831 0.333496C28.9201 0.333496 34.555 2.84632 38.6393 6.94439C42.7373 11.0286 45.2501 16.6565 45.2501 22.9005C45.2501 25.7871 44.7033 28.6322 43.6441 31.2766C42.6403 33.7895 41.1936 36.1016 39.3453 38.1229L40.6813 42.0064L36.5209 40.7326H36.514ZM31.9245 30.8059L36.161 37.576L28.7056 33.3187L25.0783 35.8108L38.5562 39.9504L35.4342 30.8059H31.9245ZM25.6874 15.7912C25.5905 15.4797 25.4105 15.2028 25.196 14.9882C24.8221 14.5936 24.296 14.3583 23.7215 14.3583C23.5415 14.3583 23.3891 14.3791 23.2299 14.4206C23.5415 14.8152 23.7768 15.2859 23.8945 15.7912H25.6805H25.6874ZM21.2917 16.1443C21.9424 16.1443 22.4478 16.6565 22.4478 17.3003C22.4478 17.3626 22.4478 17.4388 22.427 17.4941C22.5654 17.2172 22.6416 16.9057 22.6416 16.5734C22.6416 15.985 22.4062 15.4728 22.0324 15.0851C21.6585 14.7113 21.1325 14.476 20.5579 14.476C19.9834 14.476 19.4572 14.7113 19.0835 15.0851C18.6889 15.4797 18.4535 15.985 18.4535 16.5734C18.4535 17.1619 18.6889 17.6741 19.0835 18.0479C19.4572 18.4218 19.9695 18.6571 20.5579 18.6571C20.8902 18.6571 21.1878 18.5809 21.4785 18.4424C21.4024 18.4632 21.3401 18.4632 21.2847 18.4632C20.6341 18.4632 20.1079 17.951 20.1079 17.3073C20.1079 16.6634 20.641 16.1512 21.2847 16.1512L21.2917 16.1443ZM26.8642 11.5893C26.1581 11.3124
25.4313 11.174 24.7044 11.1601C23.9776 11.1394 23.2715 11.2363 22.6277 11.4716L22.3716 11.5478L22.1362 11.4509C21.5063 11.1532 20.821 11.0217 20.1149 11.0009C19.3881 10.9801 18.6404 11.0978 17.9344 11.3332L17.5051 10.0595C18.3705 9.7618 19.2704 9.64412 20.1564 9.66489C20.9387 9.68565 21.707 9.84487 22.4338 10.1148C23.1815 9.90025 23.9638 9.80333 24.7459 9.81718C25.6321 9.83795 26.4905 10.011 27.3349 10.3294L26.8642 11.5824V11.5893ZM33.4751 23.0459C33.0597 23.0459 32.7275 23.3781 32.7275 23.7935C32.7275 24.2088 33.0597 24.5411 33.4751 24.5411C33.8904 24.5411 34.2228 24.2088 34.2228 23.7935C34.2228 23.3781 33.8904 23.0459 33.4751 23.0459ZM29.2386 23.0459C28.8232 23.0459 28.491 23.3781 28.491 23.7935C28.491 24.2088 28.8232 24.5411 29.2386 24.5411C29.6539 24.5411 29.9862 24.2088 29.9862 23.7935C29.9862 23.3781 29.6539 23.0459 29.2386 23.0459Z" fill="black"></path>
          <path d="M153.97 30.4321C153.811 30.4321 153.694 30.3907 153.576 30.2732C153.48 30.1765 153.417 30.0383 153.417 29.9001V15.9356C153.417 15.7767 153.48 15.6385 153.576 15.5418C153.673 15.445 153.811 15.3828 153.97 15.3828H159.886C161.766 15.3828 163.258 15.8112 164.316 16.675C165.394 17.5387 165.919 18.7341 165.919 20.2956C165.919 21.2975 165.685 22.1544 165.235 22.8591C164.765 23.5639 164.116 24.1098 163.293 24.4829L166.21 29.7342C166.25 29.831 166.271 29.9139 166.271 29.9692C166.271 30.0867 166.231 30.2042 166.133 30.2802C166.058 30.3768 165.94 30.4183 165.823 30.4183H162.789C162.374 30.4183 162.083 30.2387 161.903 29.8517L159.533 25.1739H157.474V29.8932C157.474 30.052 157.412 30.1903 157.295 30.287C157.197 30.3838 157.059 30.4252 156.901 30.4252H153.963L153.97 30.4321ZM159.865 22.0299C160.473 22.0299 160.944 21.8711 161.275 21.5601C161.586 21.263 161.745 20.8345 161.745 20.2887C161.745 19.7428 161.586 19.3075 161.275 18.9759C160.944 18.6443 160.473 18.4853 159.865 18.4853H157.474V22.0299H159.865Z" fill="black" class="telemetr-logo__path"></path>
          <path d="M143.935 30.4321C143.776 30.4321 143.637 30.3907 143.52 30.294C143.422 30.1973 143.36 30.0591 143.36 29.9003V18.8983H139.569C139.41 18.8983 139.272 18.8361 139.174 18.7394C139.057 18.6427 138.994 18.5046 138.994 18.3457V15.9354C138.994 15.7765 139.057 15.6383 139.174 15.5417C139.272 15.445 139.41 15.3828 139.569 15.3828H151.274C151.433 15.3828 151.572 15.445 151.689 15.5417C151.787 15.6383 151.849 15.7765 151.849 15.9354V18.3457C151.849 18.5046 151.787 18.6427 151.689 18.7394C151.572 18.8361 151.433 18.8983 151.274 18.8983H147.484V29.9003C147.484 30.0591 147.421 30.1973 147.323 30.294C147.206 30.3907 147.068 30.4321 146.908 30.4321H143.921H143.935Z" fill="black" class="telemetr-logo__path"></path>
          <path d="M126.999 30.4183C126.842 30.4183 126.726 30.377 126.61 30.2596C126.515 30.1629 126.453 30.0249 126.453 29.8868V15.9351C126.453 15.7764 126.515 15.6382 126.61 15.5417C126.705 15.445 126.842 15.3828 126.999 15.3828H137.023C137.18 15.3828 137.317 15.445 137.412 15.5417C137.528 15.6382 137.569 15.7764 137.569 15.9351V18.0682C137.569 18.227 137.528 18.3651 137.412 18.4617C137.317 18.5584 137.18 18.5998 137.023 18.5998H130.304V21.3404H136.559C136.716 21.3404 136.852 21.4025 136.947 21.4992C137.063 21.6166 137.105 21.734 137.105 21.8927V23.8464C137.105 24.0051 137.063 24.1432 136.947 24.2605C136.852 24.3572 136.716 24.4193 136.559 24.4193H130.304V27.2152H137.193C137.35 27.2152 137.467 27.2566 137.583 27.3739C137.678 27.4706 137.74 27.6087 137.74 27.7674V29.9005C137.74 30.0594 137.678 30.1974 137.583 30.2941C137.467 30.3907 137.35 30.4321 137.193 30.4321H126.992L126.999 30.4183Z" fill="black" class="telemetr-logo__path"></path>

          <path d="M95.0143 30.4183C94.874 30.4183 94.7336 30.377 94.6354 30.2596C94.5161 30.1629 94.474 30.0249 94.474 29.8868V15.9351C94.474 15.7764 94.5161 15.6382 94.6144 15.5417C94.7126 15.445 94.8529 15.3828 95.0143 15.3828H105.317C105.478 15.3828 105.618 15.445 105.738 15.5417C105.836 15.6382 105.899 15.7764 105.899 15.9351V18.0682C105.899 18.227 105.836 18.3651 105.738 18.4617C105.618 18.5584 105.478 18.5998 105.317 18.5998H98.411V21.3404H104.839C105.001 21.3404 105.141 21.4025 105.26 21.4992C105.359 21.6166 105.422 21.7546 105.422 21.8927V23.8464C105.422 24.0051 105.359 24.1432 105.26 24.2605C105.141 24.3572 105.001 24.4193 104.839 24.4193H98.411V27.2152H105.492C105.653 27.2152 105.794 27.2566 105.892 27.3739C106.011 27.4706 106.074 27.6087 106.074 27.7674V29.9005C106.074 30.0594 106.011 30.1974 105.892 30.2941C105.794 30.3907 105.653 30.4321 105.492 30.4321H95.0074L95.0143 30.4183Z" fill="black" class="telemetr-logo__path"></path>
          <path d="M82.1449 30.4252C82.0082 30.4252 81.8716 30.3838 81.7759 30.2663C81.6598 30.1696 81.6188 30.0316 81.6188 29.8934V15.9147C81.6188 15.7558 81.6802 15.6383 81.7759 15.521C81.8716 15.4243 82.0082 15.3828 82.1449 15.3828H85.1309C85.288 15.3828 85.4246 15.4243 85.5203 15.521C85.6159 15.6383 85.6569 15.7558 85.6569 15.9147V27.0548H92.0456C92.2027 27.0548 92.3394 27.117 92.4351 27.2137C92.5512 27.3311 92.5922 27.4692 92.5922 27.6281V29.9003C92.5922 30.0591 92.5512 30.1973 92.4351 30.294C92.3394 30.3907 92.2027 30.4321 92.0456 30.4321H82.1449V30.4252Z" fill="black" class="telemetr-logo__path"></path>
          <path d="M68.35 30.4183C68.2133 30.4183 68.0768 30.377 67.9813 30.2596C67.8856 30.1629 67.8242 30.0249 67.8242 29.8868V15.9351C67.8242 15.7764 67.8652 15.6382 67.9607 15.5417C68.0768 15.445 68.1929 15.3828 68.35 15.3828H78.3941C78.5512 15.3828 78.6673 15.445 78.7834 15.5417C78.8789 15.6382 78.9404 15.7764 78.9404 15.9351V18.0682C78.9404 18.227 78.8789 18.3651 78.7834 18.4617C78.6673 18.5584 78.5512 18.5998 78.3941 18.5998H71.6752V21.3404H77.9093C78.0664 21.3404 78.203 21.4025 78.3191 21.4992C78.4147 21.6166 78.4761 21.7546 78.4761 21.8927V23.8464C78.4761 24.0051 78.4147 24.1432 78.3191 24.2605C78.203 24.3572 78.0664 24.4193 77.9093 24.4193H71.6752V27.2152H78.5444C78.7014 27.2152 78.838 27.2566 78.9541 27.3739C79.0496 27.4706 79.1111 27.6087 79.1111 27.7674V29.9005C79.1111 30.0594 79.0496 30.1974 78.9541 30.2941C78.838 30.3907 78.7014 30.4321 78.5444 30.4321H68.3431L68.35 30.4183Z" fill="black" class="telemetr-logo__path"></path>
          <path d="M58.0168 30.4321C57.8571 30.4321 57.7182 30.3907 57.6211 30.294C57.5031 30.1973 57.4614 30.0591 57.4614 29.9003V18.8983H53.644C53.4843 18.8983 53.3454 18.8361 53.2483 18.7394C53.1303 18.6427 53.0886 18.5046 53.0886 18.3457V15.9354C53.0886 15.7765 53.1303 15.6383 53.2483 15.5417C53.3454 15.445 53.4843 15.3828 53.644 15.3828H65.388C65.5477 15.3828 65.6656 15.445 65.7836 15.5417C65.8808 15.6383 65.9433 15.7765 65.9433 15.9354V18.3457C65.9433 18.5046 65.8808 18.6427 65.7836 18.7394C65.6656 18.8361 65.5477 18.8983 65.388 18.8983H61.5704V29.9003C61.5704 30.0591 61.508 30.1973 61.4109 30.294C61.3136 30.3907 61.1749 30.4321 61.0152 30.4321H58.0028H58.0168Z" fill="black" class="telemetr-logo__path"></path>

          <path d="M108.825 30.4321C108.665 30.4321 108.526 30.3907 108.429 30.294C108.31 30.1972 108.269 30.059 108.269 29.9001V15.9356C108.269 15.7767 108.31 15.6385 108.429 15.5418C108.526 15.445 108.665 15.3828 108.825 15.3828H111.266C111.641 15.3828 111.899 15.5418 112.052 15.8527L115.779 22.4722L119.527 15.8527C119.688 15.5418 119.945 15.3828 120.3 15.3828H122.74C122.901 15.3828 123.04 15.445 123.158 15.5418C123.255 15.6385 123.318 15.7767 123.318 15.9356V29.9001C123.318 30.059 123.255 30.1972 123.158 30.294C123.04 30.3907 122.901 30.4321 122.74 30.4321H120.689C120.55 30.4321 120.411 30.3907 120.314 30.294C120.217 30.1972 120.154 30.059 120.154 29.9209V24.0062H118.422V29.9209C118.422 30.059 118.36 30.1972 118.262 30.294C118.164 30.3907 118.026 30.4321 117.887 30.4321H117.253C117.094 30.4321 116.976 30.3907 116.857 30.294C116.76 30.1972 116.697 30.059 116.697 29.9209V26.9427H114.98V29.9209C114.98 30.059 114.917 30.1972 114.82 30.294C114.701 30.3907 114.583 30.4321 114.423 30.4321H113.811C113.651 30.4321 113.512 30.3907 113.415 30.294C113.317 30.1972 113.255 30.059 113.255 29.9209V24.9873H111.523V29.9209C111.523 30.059 111.481 30.1972 111.363 30.294C111.266 30.3907 111.127 30.4321 110.988 30.4321H108.797H108.825Z" fill="black" class="telemetr-logo__path"></path>
      </g>
  </g>
  <defs>
      <clipPath id="clip0_413_3194">
          <rect width="166.169" height="45.3188" fill="white" transform="translate(0.102234 0.333496)"></rect>
      </clipPath>
      <clipPath id="clip1_413_3194">
          <rect width="166.169" height="45.3188" fill="white" transform="translate(0.102234 0.333496)"></rect>
      </clipPath>
  </defs>
  <script xmlns=""></script>
</svg>