<svg width="745" height="215" viewBox="0 0 745 215" fill="none" xmlns="http://www.w3.org/2000/svg">
  <path fill-rule="evenodd" clip-rule="evenodd" d="M90.8 25.5H76.4C50 25.5 36.2 38.7 36.2 58.3C36.2 80.5 45.8 90.8 65.5 104.1L81.7 114.9L34.8 184.5H0L42.1 122.3C17.9 105.1 4.3 88.4 4.3 60.1C4.3 24.6 29.1 0.599976 76.2 0.599976H123V184.5H90.8V25.5Z" fill="#FC3F1D"/>
  <path fill-rule="evenodd" clip-rule="evenodd" d="M352.599 159.7H307.899C316.699 139.6 319.099 103.3 319.099 80.3V76.3H352.699V159.7H352.599ZM384.299 51.5H291.899V62.9C291.899 95.4 289.799 137.5 278.599 159.7H268.699V215H297.999V184.6H369.099V215H398.399V159.7H384.299V51.5Z" fill="white"/>
  <path fill-rule="evenodd" clip-rule="evenodd" d="M223.699 104.1H181.399V51.5H149.699V184.6H181.399V129H223.699V184.6H255.399V51.5H223.699V104.1Z" fill="white"/>
  <path fill-rule="evenodd" clip-rule="evenodd" d="M714.301 73.7C726.601 73.7 738.501 77.9 744.901 81.9V55.2C738.201 51.5 726.501 48.8 710.801 48.8C670.301 48.8 649.301 77.6 649.301 118.1C649.301 162.6 669.801 187.2 712.201 187.2C726.901 187.2 737.201 184.6 745.001 179V153.3C737.001 158.9 727.401 162.3 714.101 162.3C691.501 162.3 682.101 144.8 682.101 117.3C682.101 88.5 693.601 73.7 714.301 73.7Z" fill="white"/>
  <path fill-rule="evenodd" clip-rule="evenodd" d="M645.099 51.5H613.099L568.399 112.9V51.5H536.699V184.6H568.399V119.2L615.299 184.6H651.199L600.299 112.9L645.099 51.5Z" fill="white"/>
  <path fill-rule="evenodd" clip-rule="evenodd" d="M483.099 106H438.899C439.699 84.8 447.399 73.7 462.599 73.7C478.299 73.7 483.099 86.7 483.099 103.3V106ZM463.199 48.8C424.599 48.8 406.199 78.2 406.199 118.4C406.199 164.7 429.099 187.2 469.599 187.2C489.799 187.2 504.799 181.9 514.099 175.6V149.9C504.199 156.5 487.699 162.3 472.299 162.3C449.099 162.3 440.299 151.5 438.999 129.2H515.399V112.5C515.399 66.3 494.899 48.8 463.199 48.8Z" fill="white"/>
</svg>
