<svg width="34" height="28" viewBox="0 0 34 28" fill="none" xmlns="http://www.w3.org/2000/svg">
<path d="M19.9991 3.50164C19.9991 4.29664 19.6901 5.01964 19.1846 5.55664L23.1206 10.4766C23.1741 10.5438 23.249 10.5905 23.3328 10.6091C23.4166 10.6277 23.5043 10.6169 23.5811 10.5786L27.5561 8.58964C27.4702 8.15445 27.4817 7.70565 27.5898 7.27543C27.6978 6.84521 27.8998 6.44423 28.1811 6.10126C28.4624 5.75829 28.8161 5.48184 29.2169 5.29172C29.6177 5.1016 30.0555 5.00254 30.4991 5.00164C31.2366 5.00179 31.9483 5.27361 32.4981 5.76518C33.0479 6.25675 33.3974 6.93363 33.4797 7.66653C33.5621 8.39944 33.3716 9.13701 32.9447 9.73837C32.5177 10.3397 31.8842 10.7628 31.1651 10.9266L28.4591 25.3611C28.3461 25.9628 28.0264 26.506 27.5553 26.8969C27.0842 27.2877 26.4913 27.5017 25.8791 27.5016H8.11912C7.50697 27.5017 6.91406 27.2877 6.44293 26.8969C5.97181 26.506 5.65211 25.9628 5.53912 25.3611L2.83312 10.9266C2.25804 10.7955 1.73437 10.4978 1.32758 10.0707C0.920796 9.64353 0.648947 9.10596 0.546025 8.52517C0.443103 7.94438 0.513675 7.34613 0.748918 6.80523C0.98416 6.26433 1.37363 5.80477 1.86864 5.48403C2.36365 5.16328 2.94223 4.99557 3.53204 5.00187C4.12185 5.00817 4.69671 5.18819 5.18476 5.51944C5.6728 5.85069 6.05237 6.31845 6.27601 6.86426C6.49965 7.41006 6.55743 8.00968 6.44212 8.58814L10.4171 10.5771C10.494 10.6154 10.5816 10.6262 10.6654 10.6076C10.7492 10.589 10.8241 10.5423 10.8776 10.4751L14.8136 5.55514C14.4783 5.19852 14.2353 4.76526 14.1059 4.29315C13.9765 3.82105 13.9645 3.32445 14.0711 2.84667C14.1777 2.3689 14.3996 1.92447 14.7175 1.55217C15.0353 1.17986 15.4394 0.890984 15.8946 0.710748C16.3497 0.530511 16.842 0.464387 17.3286 0.518146C17.8151 0.571904 18.2812 0.743911 18.686 1.01916C19.0908 1.29441 19.4221 1.66454 19.651 2.09725C19.8799 2.52996 19.9994 3.01212 19.9991 3.50164ZM16.9991 21.5016C17.7948 21.5016 18.5578 21.1856 19.1204 20.623C19.6831 20.0603 19.9991 19.2973 19.9991 18.5016C19.9991 17.706 19.6831 16.9429 19.1204 16.3803C18.5578 15.8177 17.7948 15.5016 16.9991 15.5016C16.2035 15.5016 15.4404 15.8177 14.8778 16.3803C14.3152 16.9429 13.9991 17.706 13.9991 18.5016C13.9991 19.2973 14.3152 20.0603 14.8778 20.623C15.4404 21.1856 16.2035 21.5016 16.9991 21.5016Z" fill="white"/>
</svg>
