<svg width="72" height="72" viewBox="0 0 72 72" fill="none" xmlns="http://www.w3.org/2000/svg">
<g clip-path="url(#clip0_588_2468)">
<path d="M48.2269 26.9412L67.5814 7.70566L67.5184 18.6092C67.4981 19.5182 68.2192 20.309 69.1294 20.2888L70.2837 20.2877C71.1938 20.2663 71.9464 19.7252 71.9656 18.8162L72.0128 2.57341C72.0128 2.55773 71.9509 2.54536 71.9509 2.52961L72.0398 1.70611C72.0488 1.24936 71.942 0.842109 71.6472 0.550805C71.3559 0.25718 70.9475 0.0783047 70.4941 0.0906797L69.6717 0.109805C69.656 0.109805 69.6436 0.11543 69.6267 0.11775L53.4909 0.046875C52.5819 0.067125 51.8293 0.818625 51.8091 1.72875L51.8068 2.88307C51.9451 3.95519 52.7878 4.58182 53.6968 4.56157L64.3314 4.58969L45.0455 23.7586C44.1669 24.6372 44.1669 26.0614 45.0455 26.9412C45.9241 27.8187 47.3484 27.8187 48.2269 26.9412ZM23.8414 45.0557L4.487 64.2313L4.54888 53.3874C4.57025 52.4773 3.84793 51.6864 2.93893 51.7067L1.71388 51.7089C0.802628 51.7314 0.0510577 52.2714 0.0319327 53.1815L-0.0153173 69.4243C-0.0153173 69.44 0.0465577 69.4501 0.0465577 69.4681L-0.0423173 70.2893C-0.0524423 70.7461 0.0544327 71.1556 0.350308 71.4448C0.640558 71.7395 1.05006 71.9173 1.50231 71.906L2.32581 71.8858C2.34149 71.8858 2.35274 71.879 2.37081 71.879L18.5775 71.9499C19.4865 71.9274 20.2381 71.1758 20.2594 70.2669L20.2616 69.1115C20.1233 68.0417 19.2806 67.4128 18.3716 67.433L7.73706 67.4049L27.0218 48.2383C27.9004 47.3596 27.9004 45.9354 27.0218 45.0568C26.1432 44.1782 24.72 44.177 23.8414 45.0557H23.8414ZM72.0141 69.4232L71.9668 53.1803C71.9466 52.2701 71.1939 51.7301 70.2849 51.7076L69.1307 51.7054C68.2206 51.6851 67.5006 52.4771 67.5197 53.3861L67.5827 64.2896L48.2271 45.0555C47.3484 44.1768 45.9242 44.1768 45.0456 45.0555C44.167 45.9341 44.167 47.3583 45.0456 48.2369L64.3303 67.4036L53.6968 67.4317C52.7878 67.4114 51.9452 68.0404 51.8068 69.1102L51.8091 70.2656C51.8304 71.1757 52.5831 71.9273 53.4909 71.9486L69.6279 71.8778C69.6448 71.8778 69.6572 71.8844 69.673 71.8844L70.4953 71.9047C70.9487 71.9159 71.3582 71.7382 71.6484 71.4434C71.9433 71.1532 72.049 70.7448 72.0411 70.2881L71.9523 69.4668C71.9523 69.4489 72.0142 69.4388 72.0142 69.4231L72.0141 69.4232ZM7.73713 4.59145L18.3729 4.56354C19.2819 4.58379 20.1245 3.95604 20.2629 2.88497L20.2606 1.72966C20.2381 0.819609 19.4864 0.0669141 18.5787 0.0477891L2.37081 0.117539C2.35281 0.115289 2.34156 0.109664 2.32581 0.109664L1.50231 0.0904687C1.05013 0.0781641 0.639503 0.257039 0.350308 0.550594C0.0544327 0.841969 -0.052372 1.24922 -0.0423173 1.70597L0.0465577 2.52947C0.0465577 2.54515 -0.0153173 2.55647 -0.0153173 2.57334L0.0319327 18.8161C0.0521827 19.7251 0.803753 20.2662 1.71388 20.2876L2.939 20.2886C3.848 20.3089 4.56906 19.518 4.54881 18.609L4.48693 7.76515L23.8414 26.9408C24.7189 27.8195 26.1444 27.8195 27.0231 26.9408C27.9018 26.0621 27.9017 24.6368 27.0231 23.7581L7.73713 4.59145Z" fill="#E45D22"/>
</g>
<defs>
<clipPath id="clip0_588_2468">
<rect width="72" height="72" fill="white"/>
</clipPath>
</defs>
</svg>
