<svg width="243" height="72" viewBox="0 0 243 72" fill="none" xmlns="http://www.w3.org/2000/svg">
<g clip-path="url(#clip0_4022_10826)">
<mask id="mask0_4022_10826" style="mask-type:luminance" maskUnits="userSpaceOnUse" x="0" y="0" width="243" height="72">
<path d="M242.162 0.0625H0.755859V71.9375H242.162V0.0625Z" fill="white"/>
</mask>
<g mask="url(#mask0_4022_10826)">
<path fill-rule="evenodd" clip-rule="evenodd" d="M217.613 21.0938H242.162V24.4999H231.701V50.9014H228.073V24.4999H217.613V21.0938Z" fill="white"/>
<path fill-rule="evenodd" clip-rule="evenodd" d="M187.719 50.9016V21.0938H191.347V44.9395L209.49 21.0938H212.693V50.9016H209.064V27.0558L190.919 50.9016H187.719Z" fill="white"/>
<path fill-rule="evenodd" clip-rule="evenodd" d="M154.623 21.0938H158.251V47.4945H174.263V21.0938H177.891V47.4945H181.946V56.437H178.53V50.9014H154.623V21.0938Z" fill="white"/>
<path fill-rule="evenodd" clip-rule="evenodd" d="M132.755 20.668C141.422 20.668 147.996 26.9277 147.996 35.9978C147.996 44.8545 141.422 51.3268 132.755 51.3268C124.089 51.3268 117.514 45.0672 117.514 35.9978C117.514 27.353 123.875 20.668 132.755 20.668ZM132.755 47.9207C139.586 47.9207 144.155 42.7258 144.155 35.9978C144.155 29.0564 139.158 24.0743 132.755 24.0743C126.266 24.0743 121.357 29.0564 121.357 35.9978C121.357 42.7684 126.35 47.9207 132.755 47.9207Z" fill="white"/>
<path fill-rule="evenodd" clip-rule="evenodd" d="M89.6328 50.9001V21.0922C91.2974 21.0922 99.4854 21.0078 101.364 21.0078C109.902 21.0078 112.421 25.6066 112.421 30.2479C112.421 35.1025 108.963 39.6157 101.662 39.6157C100.467 39.6157 95.1191 39.6588 93.2617 39.6588V50.9001H89.6328ZM93.2617 24.4992V36.2692C95.2416 36.2692 99.3749 36.2094 101.535 36.2094C105.932 36.2094 108.579 33.9525 108.579 30.2047C108.579 26.6709 106.444 24.4141 101.705 24.4141C100.509 24.4141 94.6699 24.4572 93.2617 24.4992Z" fill="white"/>
<path fill-rule="evenodd" clip-rule="evenodd" d="M36.7867 3.65625C54.6675 3.65625 69.2144 18.1654 69.2144 36C69.2144 53.8346 54.6675 68.3438 36.7867 68.3438C18.9058 68.3438 4.35894 53.8346 4.35894 36C4.35894 18.1654 18.9058 3.65625 36.7867 3.65625ZM36.7867 0.0625C16.8875 0.0625 0.755859 16.1523 0.755859 36C0.755859 55.8477 16.8875 71.9375 36.7867 71.9375C56.6858 71.9375 72.8174 55.8477 72.8174 36C72.8174 16.1523 56.6858 0.0625 36.7867 0.0625Z" fill="white"/>
<path fill-rule="evenodd" clip-rule="evenodd" d="M36.7869 17.1328C47.2172 17.1328 55.703 25.5967 55.703 36C55.703 46.4033 47.2172 54.8672 36.7869 54.8672C26.3565 54.8672 17.8706 46.4033 17.8706 36C17.8706 25.5967 26.3565 17.1328 36.7869 17.1328ZM36.7869 13.5391C24.3496 13.5391 14.2676 23.5949 14.2676 36C14.2676 48.4051 24.3496 58.4609 36.7869 58.4609C49.224 58.4609 59.306 48.4051 59.306 36C59.306 23.5949 49.224 13.5391 36.7869 13.5391Z" fill="white"/>
<path fill-rule="evenodd" clip-rule="evenodd" d="M36.787 30.6094C39.7673 30.6094 42.1916 33.0274 42.1916 36C42.1916 38.9726 39.7673 41.3906 36.787 41.3906C33.8066 41.3906 31.3823 38.9726 31.3823 36C31.3823 33.0274 33.8066 30.6094 36.787 30.6094ZM36.787 27.0156C31.8124 27.0156 27.7793 31.0383 27.7793 36C27.7793 40.9617 31.8124 44.9844 36.787 44.9844C41.7617 44.9844 45.7946 40.9617 45.7946 36C45.7946 31.0383 41.7617 27.0156 36.787 27.0156Z" fill="white"/>
</g>
</g>
<defs>
<clipPath id="clip0_4022_10826">
<rect width="241.406" height="71.875" fill="white" transform="translate(0.755859 0.0625)"/>
</clipPath>
</defs>
</svg>
