<svg width="32" height="52" viewBox="0 0 32 52" fill="none" xmlns="http://www.w3.org/2000/svg">
<path fill-rule="evenodd" clip-rule="evenodd" d="M16.1243 46.8004C27.8446 31.3464 32 25.8671 32 16.1845C32 7.24605 24.8366 0 16 0C7.16344 0 0 7.24605 0 16.1845C0 25.123 7.16344 32.369 16 32.369C14.9385 36.8175 13.9471 40.5393 13.1573 43.5043C11.3431 50.315 10.5928 53.1317 12.5 51.5881C13.7812 49.8899 14.9883 48.2983 16.1243 46.8004ZM16 28.3229C22.6274 28.3229 28 22.8884 28 16.1845C28 9.48067 22.6274 4.04613 16 4.04613C9.37258 4.04613 4 9.48067 4 16.1845C4 22.8884 9.37258 28.3229 16 28.3229Z" fill="#454545"/>
</svg>
