<svg width="36" height="36" viewBox="0 0 36 36" fill="none" xmlns="http://www.w3.org/2000/svg">
<path d="M26.0356 21.1182L31.7506 16.2034C32.7121 15.3777 32.2006 13.8019 30.9368 13.6984L23.4248 13.0827C23.164 13.0615 22.9141 12.9689 22.7024 12.815C22.4907 12.6611 22.3255 12.452 22.2248 12.2104L19.3171 5.25641C18.8281 4.08641 17.1721 4.08641 16.6831 5.25641L13.7753 12.2104C13.6747 12.452 13.5095 12.6611 13.2978 12.815C13.0861 12.9689 12.8362 13.0615 12.5753 13.0827L5.0626 13.6984C3.7996 13.8019 3.2881 15.3777 4.24885 16.2034L7.71985 19.1884C8.03988 19.4641 8.41329 19.671 8.81679 19.796C9.22029 19.921 9.64523 19.9616 10.0651 19.9152L17.8366 19.0639C18.4756 18.9942 18.7403 19.8589 18.1718 20.1589L11.1961 23.8414C10.8067 24.0464 10.4659 24.3326 10.1967 24.6807C9.92741 25.0287 9.736 25.4305 9.63535 25.8589L8.68735 29.8639C8.3956 31.0969 9.73585 32.0712 10.8181 31.4127L17.2583 27.4954C17.7136 27.2179 18.2858 27.2179 18.7418 27.4954L25.1813 31.4127C26.2643 32.0712 27.6038 31.0977 27.3128 29.8639L25.5773 22.5289C25.5169 22.2743 25.5276 22.0081 25.6084 21.7592C25.6893 21.5104 25.8371 21.2886 26.0356 21.1182Z" fill="white"/>
</svg>
