<svg width="25" height="24" viewBox="0 0 25 24" fill="none" xmlns="http://www.w3.org/2000/svg">
<path d="M9.60613 5.448C10.2041 3.698 12.6221 3.645 13.3311 5.289L13.3911 5.449L14.1981 7.809C14.3831 8.35023 14.6819 8.84551 15.0746 9.26142C15.4672 9.67734 15.9444 10.0042 16.4741 10.22L16.6911 10.301L19.0511 11.107C20.8011 11.705 20.8541 14.123 19.2111 14.832L19.0511 14.892L16.6911 15.699C16.1497 15.8838 15.6542 16.1826 15.2381 16.5753C14.8221 16.9679 14.495 17.4452 14.2791 17.975L14.1981 18.191L13.3921 20.552C12.7941 22.302 10.3761 22.355 9.66813 20.712L9.60613 20.552L8.80013 18.192C8.61531 17.6506 8.3165 17.1551 7.92387 16.739C7.53124 16.3229 7.05392 15.9959 6.52413 15.78L6.30813 15.699L3.94813 14.893C2.19713 14.295 2.14413 11.877 3.78813 11.169L3.94813 11.107L6.30813 10.301C6.84936 10.1161 7.34464 9.81719 7.76055 9.42457C8.17646 9.03195 8.50334 8.55469 8.71913 8.025L8.80013 7.809L9.60613 5.448ZM19.4991 2C19.6862 2 19.8695 2.05248 20.0283 2.15147C20.187 2.25046 20.3148 2.392 20.3971 2.56L20.4451 2.677L20.7951 3.703L21.8221 4.053C22.0096 4.1167 22.174 4.23462 22.2944 4.39182C22.4148 4.54902 22.4858 4.73842 22.4984 4.93602C22.511 5.13362 22.4647 5.33053 22.3653 5.50179C22.266 5.67304 22.118 5.81094 21.9401 5.898L21.8221 5.946L20.7961 6.296L20.4461 7.323C20.3823 7.51043 20.2643 7.6747 20.1071 7.79499C19.9498 7.91529 19.7604 7.98619 19.5628 7.99872C19.3652 8.01125 19.1683 7.96484 18.9971 7.86538C18.8259 7.76591 18.6881 7.61787 18.6011 7.44L18.5531 7.323L18.2031 6.297L17.1761 5.947C16.9886 5.8833 16.8243 5.76538 16.7039 5.60819C16.5835 5.45099 16.5125 5.26158 16.4999 5.06398C16.4872 4.86638 16.5335 4.66947 16.6329 4.49821C16.7323 4.32696 16.8803 4.18906 17.0581 4.102L17.1761 4.054L18.2021 3.704L18.5521 2.677C18.6196 2.47943 18.7471 2.30791 18.917 2.1865C19.0868 2.06509 19.2904 1.99987 19.4991 2Z" fill="#0288DB"/>
</svg>
