<svg width="375" height="88" viewBox="0 0 375 88" fill="none" xmlns="http://www.w3.org/2000/svg">
<g clip-path="url(#clip0_604_3003)">
<mask id="mask0_604_3003" style="mask-type:luminance" maskUnits="userSpaceOnUse" x="0" y="0" width="375" height="88">
<path d="M375 0H0V88H375V0Z" fill="white"/>
</mask>
<g mask="url(#mask0_604_3003)">
<mask id="mask1_604_3003" style="mask-type:luminance" maskUnits="userSpaceOnUse" x="0" y="0" width="88" height="88">
<path d="M87.6168 43.7811C87.6168 19.6015 68.0031 0 43.8084 0C19.6137 0 0 19.6015 0 43.7811C0 67.9607 19.6137 87.5622 43.8084 87.5622C68.0031 87.5622 87.6168 67.9607 87.6168 43.7811Z" fill="white"/>
</mask>
<g mask="url(#mask1_604_3003)">
<path fill-rule="evenodd" clip-rule="evenodd" d="M43.8084 0C68.0031 0 87.6168 19.6015 87.6168 43.7811C87.6168 67.9607 68.0031 87.5622 43.8084 87.5622C39.0446 87.5622 34.4585 86.8023 30.1646 85.3972C30.3643 85.1285 30.5444 84.835 30.7051 84.5169L41.7395 62.1177L49.6504 73.7021C50.6137 75.1277 51.921 75.5952 53.5708 75.1053C55.221 74.615 56.0648 73.5222 56.1025 71.8261L57.0991 26.8249C57.1315 25.3629 56.4959 24.2956 55.1926 23.6232C53.8888 22.9507 52.6425 23.0695 51.454 23.9793L15.3745 51.0905C14.0065 52.055 13.5825 53.3325 14.1023 54.924C14.622 56.515 15.7316 57.3298 17.4309 57.3674L32.1774 57.6936L21.2366 79.8315C21.0341 80.2314 20.8832 80.6325 20.7837 81.0348C8.30976 73.3185 0 59.5196 0 43.7811C0 19.6015 19.6137 0 43.8084 0Z" fill="white"/>
</g>
<path d="M135.573 63.044C133.573 63.4174 131.611 63.5763 129.685 63.5203C127.779 63.4831 126.068 63.1372 124.554 62.4836C123.04 61.8111 121.891 60.7555 121.106 59.3173C120.414 58.0096 120.05 56.6743 120.012 55.3105C119.975 53.9467 119.956 52.4056 119.956 50.6872V24.3765H126.685V50.2949C126.685 51.509 126.694 52.5737 126.713 53.4892C126.751 54.4046 126.947 55.1515 127.302 55.7308C127.975 56.8516 129.05 57.4772 130.526 57.6081C132.003 57.739 133.685 57.6642 135.573 57.384V63.044ZM114.461 38.0782V32.7825H135.573V38.0782H114.461ZM152.57 77.3341C150.888 77.3341 149.271 77.0727 147.72 76.5496C146.187 76.0264 144.804 75.2698 143.57 74.2799C142.337 73.3084 141.327 72.1316 140.542 70.7494L146.767 67.6673C147.346 68.7692 148.159 69.5818 149.206 70.105C150.271 70.6466 151.402 70.9176 152.598 70.9176C154 70.9176 155.253 70.6654 156.355 70.161C157.458 69.6755 158.309 68.947 158.907 67.9755C159.524 67.0228 159.813 65.8271 159.776 64.3889V55.7868H160.617V32.7825H166.533V64.501C166.533 65.2667 166.496 65.9953 166.421 66.6866C166.365 67.3963 166.262 68.0876 166.112 68.76C165.664 70.7214 164.804 72.3277 163.533 73.5794C162.262 74.8495 160.682 75.793 158.795 76.4095C156.925 77.0259 154.851 77.3341 152.57 77.3341ZM151.982 63.8846C149.197 63.8846 146.767 63.1841 144.692 61.7831C142.617 60.3821 141.01 58.4767 139.869 56.067C138.729 53.6573 138.159 50.9394 138.159 47.9132C138.159 44.8499 138.729 42.1224 139.869 39.7314C141.028 37.3217 142.664 35.4257 144.776 34.0434C146.888 32.6424 149.374 31.9419 152.234 31.9419C155.113 31.9419 157.524 32.6424 159.468 34.0434C161.43 35.4257 162.916 37.3217 163.925 39.7314C164.935 42.1411 165.439 44.8682 165.439 47.9132C165.439 50.9205 164.935 53.6385 163.925 56.067C162.916 58.4767 161.411 60.3821 159.411 61.7831C157.412 63.1841 154.935 63.8846 151.982 63.8846ZM153.019 57.8323C154.832 57.8323 156.29 57.4212 157.393 56.5994C158.514 55.7588 159.327 54.5912 159.832 53.0969C160.355 51.6027 160.617 49.8746 160.617 47.9132C160.617 45.933 160.355 44.2054 159.832 42.7295C159.327 41.2352 158.533 40.077 157.449 39.2551C156.365 38.4145 154.963 37.9942 153.243 37.9942C151.43 37.9942 149.935 38.4425 148.757 39.3391C147.58 40.2171 146.71 41.4126 146.15 42.9257C145.589 44.4199 145.309 46.0827 145.309 47.9132C145.309 49.7625 145.58 51.4437 146.122 52.9568C146.682 54.451 147.533 55.6375 148.673 56.5153C149.813 57.3931 151.262 57.8323 153.019 57.8323ZM195.687 63.8846C192.733 63.8846 190.256 63.1841 188.257 61.7831C186.257 60.3821 184.752 58.4767 183.743 56.067C182.733 53.6385 182.229 50.9205 182.229 47.9132C182.229 44.8682 182.733 42.1411 183.743 39.7314C184.752 37.3217 186.229 35.4257 188.173 34.0434C190.135 32.6424 192.556 31.9419 195.434 31.9419C198.294 31.9419 200.771 32.6424 202.864 34.0434C204.976 35.4257 206.612 37.3217 207.771 39.7314C208.929 42.1224 209.509 44.8499 209.509 47.9132C209.509 50.9394 208.939 53.6573 207.799 56.067C206.658 58.4767 205.051 60.3821 202.976 61.7831C200.902 63.1841 198.471 63.8846 195.687 63.8846ZM181.079 63.044V22.6953H187.892V41.8049H187.051V63.044H181.079ZM194.649 57.8323C196.406 57.8323 197.855 57.3931 198.995 56.5153C200.135 55.6375 200.976 54.451 201.518 52.9568C202.079 51.4437 202.359 49.7625 202.359 47.9132C202.359 46.0827 202.079 44.4199 201.518 42.9257C200.958 41.4126 200.088 40.2171 198.911 39.3391C197.733 38.4425 196.238 37.9942 194.425 37.9942C192.705 37.9942 191.304 38.4145 190.219 39.2551C189.135 40.077 188.332 41.2352 187.808 42.7295C187.303 44.2054 187.051 45.933 187.051 47.9132C187.051 49.8746 187.303 51.6027 187.808 53.0969C188.332 54.5912 189.145 55.7588 190.247 56.5994C191.369 57.4212 192.836 57.8323 194.649 57.8323ZM226.82 63.8846C223.792 63.8846 221.147 63.2029 218.885 61.8391C216.623 60.4753 214.867 58.598 213.614 56.2071C212.381 53.7974 211.764 51.0326 211.764 47.9132C211.764 44.7378 212.399 41.9543 213.67 39.5633C214.941 37.1723 216.708 35.3043 218.969 33.9593C221.231 32.6144 223.848 31.9419 226.82 31.9419C229.867 31.9419 232.521 32.6237 234.783 33.9873C237.044 35.351 238.801 37.2376 240.054 39.6474C241.306 42.0384 241.932 44.7938 241.932 47.9132C241.932 51.0515 241.296 53.8254 240.025 56.2351C238.773 58.626 237.016 60.5033 234.754 61.8671C232.493 63.2121 229.848 63.8846 226.82 63.8846ZM226.82 57.5521C229.511 57.5521 231.511 56.6554 232.82 54.8622C234.128 53.0689 234.783 50.7524 234.783 47.9132C234.783 44.9803 234.119 42.6455 232.792 40.9082C231.465 39.1523 229.474 38.2744 226.82 38.2744C225.007 38.2744 223.511 38.6853 222.334 39.5073C221.175 40.3105 220.315 41.4406 219.754 42.8977C219.194 44.3359 218.913 46.0079 218.913 47.9132C218.913 50.8461 219.577 53.1902 220.904 54.9462C222.25 56.6835 224.222 57.5521 226.82 57.5521ZM259.24 63.8846C256.212 63.8846 253.568 63.2029 251.306 61.8391C249.044 60.4753 247.287 58.598 246.035 56.2071C244.801 53.7974 244.184 51.0326 244.184 47.9132C244.184 44.7378 244.82 41.9543 246.091 39.5633C247.362 37.1723 249.128 35.3043 251.39 33.9593C253.652 32.6144 256.268 31.9419 259.24 31.9419C262.287 31.9419 264.941 32.6237 267.203 33.9873C269.465 35.351 271.221 37.2376 272.474 39.6474C273.726 42.0384 274.352 44.7938 274.352 47.9132C274.352 51.0515 273.717 53.8254 272.446 56.2351C271.193 58.626 269.437 60.5033 267.175 61.8671C264.913 63.2121 262.268 63.8846 259.24 63.8846ZM259.24 57.5521C261.932 57.5521 263.932 56.6554 265.24 54.8622C266.549 53.0689 267.203 50.7524 267.203 47.9132C267.203 44.9803 266.539 42.6455 265.212 40.9082C263.885 39.1523 261.895 38.2744 259.24 38.2744C257.427 38.2744 255.932 38.6853 254.754 39.5073C253.596 40.3105 252.736 41.4406 252.175 42.8977C251.614 44.3359 251.334 46.0079 251.334 47.9132C251.334 50.8461 251.997 53.1902 253.324 54.9462C254.67 56.6835 256.642 57.5521 259.24 57.5521ZM289.267 63.8846C285.528 63.8846 282.491 63.044 280.154 61.3628C277.818 59.6816 276.397 57.3187 275.893 54.2737L282.79 53.209C283.145 54.7032 283.93 55.8801 285.145 56.7395C286.36 57.5989 287.893 58.0284 289.743 58.0284C291.369 58.0284 292.622 57.711 293.5 57.0757C294.397 56.4221 294.846 55.5346 294.846 54.4138C294.846 53.7225 294.678 53.1718 294.341 52.7607C294.024 52.3312 293.313 51.9201 292.211 51.5278C291.108 51.1355 289.416 50.6403 287.136 50.0427C284.594 49.3703 282.575 48.6509 281.08 47.8852C279.584 47.1006 278.509 46.176 277.855 45.1112C277.201 44.0465 276.874 42.7576 276.874 41.2445C276.874 39.3578 277.37 37.714 278.36 36.313C279.351 34.912 280.734 33.8379 282.51 33.0907C284.285 32.3248 286.379 31.9419 288.79 31.9419C291.145 31.9419 293.229 32.3061 295.042 33.0347C296.874 33.7632 298.351 34.7999 299.472 36.1449C300.594 37.4898 301.285 39.0683 301.547 40.8802L294.65 42.1131C294.482 40.8242 293.893 39.8061 292.883 39.0589C291.893 38.3117 290.566 37.8914 288.902 37.798C287.313 37.7047 286.033 37.9475 285.061 38.5266C284.089 39.087 283.603 39.8808 283.603 40.9082C283.603 41.4873 283.799 41.9823 284.192 42.3933C284.584 42.8043 285.369 43.2152 286.547 43.6262C287.743 44.0373 289.519 44.5416 291.874 45.1392C294.285 45.7557 296.211 46.4654 297.65 47.2688C299.108 48.0533 300.154 48.9968 300.79 50.0988C301.444 51.2007 301.771 52.5365 301.771 54.1056C301.771 57.1506 300.659 59.5415 298.435 61.2787C296.229 63.0159 293.173 63.8846 289.267 63.8846ZM323.417 63.044C321.417 63.4174 319.455 63.5763 317.529 63.5203C315.623 63.4831 313.912 63.1372 312.398 62.4836C310.884 61.8111 309.735 60.7555 308.95 59.3173C308.258 58.0096 307.893 56.6743 307.856 55.3105C307.819 53.9467 307.8 52.4056 307.8 50.6872V24.3765H314.529V50.2949C314.529 51.509 314.538 52.5737 314.557 53.4892C314.594 54.4046 314.791 55.1515 315.146 55.7308C315.819 56.8516 316.893 57.4772 318.37 57.6081C319.847 57.739 321.529 57.6642 323.417 57.384V63.044ZM302.305 38.0782V32.7825H323.417V38.0782H302.305ZM339.918 63.8846C336.853 63.8846 334.161 63.2213 331.844 61.8952C329.526 60.569 327.713 58.7289 326.404 56.3752C325.115 54.0216 324.47 51.3128 324.47 48.2495C324.47 44.9431 325.105 42.0758 326.376 39.6474C327.647 37.2003 329.413 35.3043 331.675 33.9593C333.937 32.6144 336.554 31.9419 339.526 31.9419C342.666 31.9419 345.33 32.6797 347.516 34.1555C349.722 35.6125 351.358 37.6766 352.423 40.3479C353.488 43.0191 353.89 46.1668 353.629 49.7906H346.928V47.3248C346.909 44.0373 346.33 41.6368 345.189 40.1237C344.049 38.6106 342.255 37.8541 339.806 37.8541C337.04 37.8541 334.984 38.7134 333.638 40.4319C332.292 42.1318 331.619 44.6257 331.619 47.9132C331.619 50.9766 332.292 53.3491 333.638 55.0303C334.984 56.7115 336.946 57.5521 339.526 57.5521C341.189 57.5521 342.619 57.1878 343.816 56.4593C345.03 55.712 345.965 54.638 346.619 53.237L353.292 55.2544C352.133 57.9816 350.339 60.1019 347.909 61.615C345.498 63.128 342.834 63.8846 339.918 63.8846ZM329.488 49.7906V44.6909H350.32V49.7906H329.488ZM357.641 63.044V32.7825H363.613V40.1517L362.884 39.199C363.258 38.1903 363.754 37.275 364.37 36.4531C365.006 35.6125 365.763 34.9213 366.641 34.3796C367.389 33.8753 368.212 33.483 369.109 33.2028C370.025 32.9039 370.959 32.7264 371.912 32.6704C372.866 32.5957 373.791 32.633 374.688 32.7825V39.087C373.791 38.8254 372.754 38.7414 371.576 38.8348C370.417 38.9282 369.37 39.2551 368.436 39.8155C367.501 40.3198 366.735 40.9643 366.137 41.7488C365.557 42.5334 365.127 43.43 364.847 44.4388C364.567 45.4286 364.426 46.503 364.426 47.661V63.044H357.641Z" fill="white"/>
</g>
</g>
<defs>
<clipPath id="clip0_604_3003">
<rect width="375" height="88" fill="white"/>
</clipPath>
</defs>
</svg>
