<svg width="1427" height="231" viewBox="0 0 1427 231" fill="none" xmlns="http://www.w3.org/2000/svg">
<g clip-path="url(#clip0_588_2530)">
<mask id="mask0_588_2530" style="mask-type:luminance" maskUnits="userSpaceOnUse" x="0" y="0" width="1427" height="231">
<path d="M1427 0H0V231H1427V0Z" fill="white"/>
</mask>
<g mask="url(#mask0_588_2530)">
<path d="M76.9451 209.824V45.961H5.73438V8.94133H187.782V45.961H117.145V209.824H76.9451ZM238.049 109.669C238.049 149.271 267.05 176.821 307.537 176.821C338.261 176.821 362.094 159.029 370.133 131.192H305.527V97.6163H416.65V209.824H380.471L377.312 182.848C358.36 202.936 332.805 214.128 302.655 214.128C242.643 214.128 197.849 169.359 197.849 109.669C197.849 49.1177 242.93 4.63672 305.24 4.63672C356.638 4.63672 396.837 33.908 409.758 80.1108H369.559C358.648 56.292 335.102 41.6564 304.952 41.6564C265.902 41.6564 238.049 69.7798 238.049 109.669Z" fill="white"/>
<path d="M1306.68 13.5203L1304.68 35.226H1292.73L1296.91 13.5203H1306.68ZM1339.1 12.3516C1352.72 12.3516 1361.65 20.1155 1361.65 32.5545C1361.65 53.4254 1330.58 46.4962 1328.08 60.3545H1362.41V72.0422H1315.55V64.2782C1315.55 34.3076 1349.95 47.2475 1349.95 31.9701C1349.95 26.7106 1345.45 23.5383 1339.02 23.5383C1331.75 23.5383 1327.24 27.9629 1327.24 35.7269H1315.55C1315.55 21.6182 1325.15 12.3516 1339.1 12.3516ZM1396.23 73.2944C1382.12 73.2944 1371.26 63.1929 1371.26 50.2529H1382.96C1382.96 57.182 1388.38 62.1076 1396.15 62.1076C1402.83 62.1076 1407.35 58.3509 1407.35 53.008C1407.35 47.3311 1402.75 43.9917 1395.57 43.9917H1379.11L1373.6 37.814L1375.02 13.6038H1414.86V25.2915H1385.21L1384.71 35.059H1395.4C1410.18 35.059 1419.04 41.6542 1419.04 52.8409C1419.04 64.6121 1409.27 73.2944 1396.23 73.2944Z" fill="white"/>
<path fill-rule="evenodd" clip-rule="evenodd" d="M966.836 210.925V76.9079L1091.46 210.925H1091.46H1123.9H1131.67V136.599H1252.84V99.0049H1131.67V47.0626H1257.44V10.043H1123.9H1091.46H1083.71V143.199L958.797 10.043H926.637V210.925H966.836Z" fill="white"/>
<path d="M678.535 115.123C678.535 54.5709 725.626 10.0898 788.797 10.0898C851.681 10.0898 898.771 52.2751 898.771 115.123C898.771 177.109 851.681 219.581 788.797 219.581C725.914 219.581 678.535 174.813 678.535 115.123ZM718.734 115.123C718.734 153.864 748.023 181.126 788.797 181.126C830.432 181.126 858.572 153.864 858.572 115.123C858.572 75.52 830.432 48.5444 788.797 48.5444C747.736 48.5444 718.734 75.52 718.734 115.123Z" fill="white"/>
<path d="M489.082 115.118C489.082 153.86 518.371 181.123 559.145 181.123C588.146 181.123 610.829 167.634 622.028 145.825H664.525C652.178 190.879 610.829 219.577 559.145 219.577C496.26 219.577 448.883 174.809 448.883 115.118C448.883 54.5669 495.974 10.0859 559.145 10.0859C610.829 10.0859 651.891 38.7834 664.525 83.8382H622.028C611.117 61.7413 588.432 48.5405 559.145 48.5405C518.083 48.5405 489.082 75.516 489.082 115.118Z" fill="white"/>
</g>
</g>
<defs>
<clipPath id="clip0_588_2530">
<rect width="1427" height="231" fill="white"/>
</clipPath>
</defs>
</svg>
